<svg width="155" height="135" viewBox="0 0 155 135" fill="none" xmlns="http://www.w3.org/2000/svg">
<g clip-path="url(#clip0_172_197)">
<path d="M122.398 11.1483C122.224 11.0314 122.048 10.9205 121.874 10.8077C116.838 7.56634 111.441 4.93311 105.794 2.96239L104.484 21.1438H96.1831V0.30833C95.6605 0.199508 95.1339 0.0967311 94.6073 0V21.1438H84.7423C79.3114 21.1438 74.1031 18.9724 70.2629 15.1073C66.4227 11.2423 64.2653 6.0001 64.2653 0.534058C63.7367 0.648926 63.2122 0.771836 62.6876 0.902826V21.1438H54.6526L53.4052 3.80677C47.6016 6.04696 42.0919 8.99292 36.9988 12.5791C36.9107 12.6395 36.8226 12.702 36.7365 12.7625C36.294 13.0748 35.8575 13.3932 35.423 13.7157V83.0779H59.1035L58.6851 77.2438L56.3825 45.2117H102.752L100.45 77.2438L100.031 83.0779H123.45V11.8496C123.101 11.6118 122.751 11.378 122.398 11.1483ZM62.6876 39.9217H56.0021L54.7667 22.7318H62.6876V39.9217ZM94.6073 39.9217H83.3788V39.5811C83.3788 39.4174 83.3467 39.2553 83.2844 39.1041C83.2221 38.9528 83.1308 38.8155 83.0156 38.6998C82.9005 38.5841 82.7639 38.4924 82.6135 38.4299C82.4632 38.3675 82.302 38.3355 82.1394 38.3357H77.2579C77.0954 38.3357 76.9345 38.3678 76.7843 38.4304C76.6341 38.493 76.4977 38.5847 76.3828 38.7004C76.2679 38.816 76.1767 38.9533 76.1146 39.1045C76.0524 39.2556 76.0205 39.4176 76.0205 39.5811V39.9217H64.2653V22.7318H94.6073V39.9217ZM96.1831 39.9217V22.7318H104.37L103.135 39.9217H96.1831Z" fill="#F2F2F2"/>
<path d="M148.116 126.063L148.272 122.521C149.904 121.643 151.724 121.179 153.574 121.17C151.028 123.265 151.346 127.304 149.62 130.121C149.075 130.996 148.341 131.736 147.473 132.286C146.605 132.837 145.625 133.184 144.606 133.301L142.476 134.614C142.183 132.974 142.248 131.289 142.665 129.676C143.081 128.063 143.841 126.56 144.89 125.271C145.486 124.553 146.169 123.914 146.924 123.369C147.434 124.723 148.116 126.063 148.116 126.063Z" fill="#F2F2F2"/>
<path d="M33.7977 122.181L28.6558 120.614C27.9815 117.857 27.9861 114.975 28.6693 112.22C30.7867 116.796 36.8369 117.844 40.3237 121.473C41.4026 122.613 42.2128 123.983 42.6941 125.482C43.1755 126.98 43.3157 128.568 43.1044 130.128L44.2299 133.792C41.711 133.609 39.2615 132.878 37.05 131.651C34.8386 130.423 32.9179 128.728 31.4202 126.681C30.5913 125.524 29.9104 124.268 29.3936 122.94C31.5744 122.691 33.7977 122.181 33.7977 122.181Z" fill="#F2F2F2"/>
<path d="M144.115 134.035C144.114 134.142 144.072 134.245 143.997 134.321C143.96 134.358 143.916 134.388 143.867 134.408C143.819 134.428 143.767 134.438 143.714 134.438H142.105C142.052 134.438 142 134.428 141.951 134.408C141.902 134.388 141.858 134.358 141.821 134.32C141.784 134.283 141.754 134.238 141.734 134.189C141.714 134.14 141.704 134.088 141.704 134.035V85.0367C141.704 83.9565 141.344 83.0799 140.901 83.0779H20.268C19.8235 83.0799 19.4651 83.9565 19.4631 85.0367V133.735C19.4628 133.835 19.4255 133.931 19.3586 134.005C19.2916 134.08 19.1997 134.126 19.1007 134.136C18.7763 134.168 18.452 134.196 18.1296 134.222C18.1216 134.222 18.1136 134.224 18.1056 134.224C17.9294 134.241 17.7532 134.253 17.577 134.267H17.575C17.4829 134.099 17.3948 133.928 17.3047 133.757C17.2758 133.699 17.2607 133.635 17.2607 133.569V82.4955C17.2607 82.1972 17.2727 81.8969 17.2927 81.6007C17.3213 81.1939 17.3714 80.7889 17.4429 80.3875C17.7812 78.5154 18.5461 77.2478 19.4151 77.2438H141.752C141.879 77.2446 142.004 77.2714 142.121 77.3224C142.291 77.3984 142.446 77.5073 142.575 77.6428C142.751 77.8265 142.901 78.0333 143.022 78.2574C143.45 79.0172 143.756 80.1497 143.865 81.4677C143.865 81.4798 143.867 81.4919 143.867 81.504C143.895 81.8304 143.909 82.1629 143.907 82.4955L143.935 86.8141L143.953 89.3896L144.007 97.4706L144.027 100.34L144.115 134.035Z" fill="#E6E6E6"/>
<path d="M154.762 134.938L99.5497 135C99.4866 135 99.4262 134.974 99.3816 134.929C99.337 134.884 99.312 134.824 99.312 134.76C99.312 134.696 99.337 134.636 99.3816 134.591C99.4262 134.546 99.4866 134.52 99.5497 134.52L154.762 134.458C154.825 134.458 154.885 134.484 154.93 134.529C154.974 134.574 154.999 134.635 154.999 134.698C154.999 134.762 154.974 134.823 154.93 134.867C154.885 134.912 154.825 134.938 154.762 134.938Z" fill="#CACACA"/>
<path d="M86.2303 62.9279H76.4517C76.3133 62.9281 76.1807 62.9836 76.0831 63.0821C75.9854 63.1807 75.9306 63.3143 75.9307 63.4535V79.001H86.7526V63.4535C86.7526 63.3845 86.7391 63.3161 86.7129 63.2523C86.6867 63.1885 86.6482 63.1306 86.5997 63.0817C86.5512 63.0329 86.4936 62.9942 86.4302 62.9678C86.3668 62.9414 86.2989 62.9278 86.2303 62.9279ZM81.3739 71.7618C81.0681 71.7603 80.7752 71.6374 80.5589 71.4198C80.3427 71.2021 80.2206 70.9074 80.2192 70.5996V68.8063C80.2192 68.4981 80.3408 68.2025 80.5574 67.9845C80.7739 67.7666 81.0676 67.6441 81.3739 67.6441C81.6801 67.6441 81.9738 67.7666 82.1904 67.9845C82.4069 68.2025 82.5286 68.4981 82.5286 68.8063V70.5996C82.5271 70.9074 82.405 71.2021 82.1888 71.4198C81.9726 71.6374 81.6797 71.7603 81.3739 71.7618Z" fill="#2F2E41"/>
<path d="M102.423 38.6642H60.6231C60.2639 38.6648 59.9197 38.8086 59.6657 39.0642C59.4118 39.3198 59.2689 39.6663 59.2683 40.0277V68.4173C59.2687 68.7788 59.4115 69.1254 59.6655 69.3811C59.9195 69.6367 60.2639 69.7805 60.6231 69.7808H102.423C102.782 69.7805 103.126 69.6367 103.38 69.3811C103.634 69.1254 103.777 68.7788 103.778 68.4173V40.0277C103.777 39.6663 103.634 39.3198 103.38 39.0642C103.126 38.8086 102.782 38.6648 102.423 38.6642Z" fill="#3F3D56"/>
<path d="M102.073 39.6488H60.9716C60.7793 39.6492 60.595 39.7264 60.4592 39.8634C60.3234 40.0004 60.2471 40.186 60.2471 40.3795V68.0654C60.2474 68.2587 60.3238 68.444 60.4596 68.5807C60.5954 68.7174 60.7795 68.7943 60.9716 68.7946H102.073C102.265 68.7943 102.449 68.7174 102.585 68.5807C102.721 68.444 102.797 68.2587 102.798 68.0654V40.3795C102.798 40.186 102.721 40.0004 102.586 39.8634C102.45 39.7264 102.265 39.6492 102.073 39.6488Z" fill="white"/>
<path d="M75.8972 78.5038V80.0038C75.8973 80.0815 75.9281 80.156 75.9827 80.211C76.0373 80.266 76.1113 80.2969 76.1885 80.2971H86.4948C86.5719 80.2967 86.6458 80.2656 86.7004 80.2107C86.7549 80.1558 86.7857 80.0815 86.7861 80.0038V78.5038H75.8972Z" fill="#3F3D56"/>
<path d="M94.0679 80.819H69.6147C69.5478 80.819 69.4817 80.8039 69.4213 80.775C69.3609 80.746 69.3076 80.7038 69.2654 80.6515C69.2233 80.5992 69.1932 80.5381 69.1775 80.4726C69.1618 80.4071 69.1608 80.3389 69.1746 80.273L69.554 78.4592C69.5756 78.3577 69.631 78.2667 69.7111 78.2014C69.7911 78.136 69.891 78.1001 69.9941 78.0997H93.6886C93.7917 78.1001 93.8916 78.136 93.9716 78.2014C94.0517 78.2667 94.1071 78.3577 94.1287 78.4592L94.5081 80.273C94.5219 80.3389 94.5209 80.4071 94.5052 80.4726C94.4895 80.5381 94.4594 80.5992 94.4172 80.6515C94.3751 80.7038 94.3218 80.746 94.2614 80.775C94.201 80.8039 94.1349 80.819 94.0679 80.819Z" fill="#2F2E41"/>
<path d="M70.8232 78.4263H70.2655C70.2115 78.4263 70.1678 78.4703 70.1678 78.5247V78.7827C70.1678 78.837 70.2115 78.8811 70.2655 78.8811H70.8232C70.8772 78.8811 70.9209 78.837 70.9209 78.7827V78.5247C70.9209 78.4703 70.8772 78.4263 70.8232 78.4263Z" fill="#3F3D56"/>
<path d="M72.3294 78.4263H71.7718C71.7178 78.4263 71.674 78.4703 71.674 78.5247V78.7827C71.674 78.837 71.7178 78.8811 71.7718 78.8811H72.3294C72.3834 78.8811 72.4272 78.837 72.4272 78.7827V78.5247C72.4272 78.4703 72.3834 78.4263 72.3294 78.4263Z" fill="#3F3D56"/>
<path d="M73.8357 78.4263H73.278C73.2241 78.4263 73.1803 78.4703 73.1803 78.5247V78.7827C73.1803 78.837 73.2241 78.8811 73.278 78.8811H73.8357C73.8897 78.8811 73.9334 78.837 73.9334 78.7827V78.5247C73.9334 78.4703 73.8897 78.4263 73.8357 78.4263Z" fill="#3F3D56"/>
<path d="M75.342 78.4263H74.7843C74.7303 78.4263 74.6866 78.4703 74.6866 78.5247V78.7827C74.6866 78.837 74.7303 78.8811 74.7843 78.8811H75.342C75.396 78.8811 75.4397 78.837 75.4397 78.7827V78.5247C75.4397 78.4703 75.396 78.4263 75.342 78.4263Z" fill="#3F3D56"/>
<path d="M76.8483 78.4263H76.2906C76.2366 78.4263 76.1929 78.4703 76.1929 78.5247V78.7827C76.1929 78.837 76.2366 78.8811 76.2906 78.8811H76.8483C76.9022 78.8811 76.946 78.837 76.946 78.7827V78.5247C76.946 78.4703 76.9022 78.4263 76.8483 78.4263Z" fill="#3F3D56"/>
<path d="M78.3545 78.4263H77.7969C77.7429 78.4263 77.6991 78.4703 77.6991 78.5247V78.7827C77.6991 78.837 77.7429 78.8811 77.7969 78.8811H78.3545C78.4085 78.8811 78.4523 78.837 78.4523 78.7827V78.5247C78.4523 78.4703 78.4085 78.4263 78.3545 78.4263Z" fill="#3F3D56"/>
<path d="M79.8608 78.4263H79.3031C79.2491 78.4263 79.2054 78.4703 79.2054 78.5247V78.7827C79.2054 78.837 79.2491 78.8811 79.3031 78.8811H79.8608C79.9148 78.8811 79.9585 78.837 79.9585 78.7827V78.5247C79.9585 78.4703 79.9148 78.4263 79.8608 78.4263Z" fill="#3F3D56"/>
<path d="M81.3671 78.4263H80.8094C80.7554 78.4263 80.7117 78.4703 80.7117 78.5247V78.7827C80.7117 78.837 80.7554 78.8811 80.8094 78.8811H81.3671C81.421 78.8811 81.4648 78.837 81.4648 78.7827V78.5247C81.4648 78.4703 81.421 78.4263 81.3671 78.4263Z" fill="#3F3D56"/>
<path d="M82.8733 78.4263H82.3157C82.2617 78.4263 82.2179 78.4703 82.2179 78.5247V78.7827C82.2179 78.837 82.2617 78.8811 82.3157 78.8811H82.8733C82.9273 78.8811 82.9711 78.837 82.9711 78.7827V78.5247C82.9711 78.4703 82.9273 78.4263 82.8733 78.4263Z" fill="#3F3D56"/>
<path d="M84.3796 78.4263H83.8219C83.7679 78.4263 83.7242 78.4703 83.7242 78.5247V78.7827C83.7242 78.837 83.7679 78.8811 83.8219 78.8811H84.3796C84.4336 78.8811 84.4773 78.837 84.4773 78.7827V78.5247C84.4773 78.4703 84.4336 78.4263 84.3796 78.4263Z" fill="#3F3D56"/>
<path d="M85.8859 78.4263H85.3282C85.2742 78.4263 85.2305 78.4703 85.2305 78.5247V78.7827C85.2305 78.837 85.2742 78.8811 85.3282 78.8811H85.8859C85.9398 78.8811 85.9836 78.837 85.9836 78.7827V78.5247C85.9836 78.4703 85.9398 78.4263 85.8859 78.4263Z" fill="#3F3D56"/>
<path d="M87.3921 78.4263H86.8345C86.7805 78.4263 86.7368 78.4703 86.7368 78.5247V78.7827C86.7368 78.837 86.7805 78.8811 86.8345 78.8811H87.3921C87.4461 78.8811 87.4899 78.837 87.4899 78.7827V78.5247C87.4899 78.4703 87.4461 78.4263 87.3921 78.4263Z" fill="#3F3D56"/>
<path d="M88.8984 78.4263H88.3408C88.2868 78.4263 88.243 78.4703 88.243 78.5247V78.7827C88.243 78.837 88.2868 78.8811 88.3408 78.8811H88.8984C88.9524 78.8811 88.9961 78.837 88.9961 78.7827V78.5247C88.9961 78.4703 88.9524 78.4263 88.8984 78.4263Z" fill="#3F3D56"/>
<path d="M90.4047 78.4263H89.847C89.793 78.4263 89.7493 78.4703 89.7493 78.5247V78.7827C89.7493 78.837 89.793 78.8811 89.847 78.8811H90.4047C90.4586 78.8811 90.5024 78.837 90.5024 78.7827V78.5247C90.5024 78.4703 90.4586 78.4263 90.4047 78.4263Z" fill="#3F3D56"/>
<path d="M91.9109 78.4263H91.3533C91.2993 78.4263 91.2556 78.4703 91.2556 78.5247V78.7827C91.2556 78.837 91.2993 78.8811 91.3533 78.8811H91.9109C91.9649 78.8811 92.0087 78.837 92.0087 78.7827V78.5247C92.0087 78.4703 91.9649 78.4263 91.9109 78.4263Z" fill="#3F3D56"/>
<path d="M93.4172 78.4263H92.8596C92.8056 78.4263 92.7618 78.4703 92.7618 78.5247V78.7827C92.7618 78.837 92.8056 78.8811 92.8596 78.8811H93.4172C93.4712 78.8811 93.5149 78.837 93.5149 78.7827V78.5247C93.5149 78.4703 93.4712 78.4263 93.4172 78.4263Z" fill="#3F3D56"/>
<path d="M70.8053 79.1843H70.2477C70.1937 79.1843 70.15 79.2284 70.15 79.2827V79.5408C70.15 79.5951 70.1937 79.6391 70.2477 79.6391H70.8053C70.8593 79.6391 70.9031 79.5951 70.9031 79.5408V79.2827C70.9031 79.2284 70.8593 79.1843 70.8053 79.1843Z" fill="#3F3D56"/>
<path d="M72.3116 79.1843H71.754C71.7 79.1843 71.6562 79.2284 71.6562 79.2827V79.5408C71.6562 79.5951 71.7 79.6391 71.754 79.6391H72.3116C72.3656 79.6391 72.4094 79.5951 72.4094 79.5408V79.2827C72.4094 79.2284 72.3656 79.1843 72.3116 79.1843Z" fill="#3F3D56"/>
<path d="M73.8179 79.1843H73.2603C73.2063 79.1843 73.1625 79.2284 73.1625 79.2827V79.5408C73.1625 79.5951 73.2063 79.6391 73.2603 79.6391H73.8179C73.8719 79.6391 73.9156 79.5951 73.9156 79.5408V79.2827C73.9156 79.2284 73.8719 79.1843 73.8179 79.1843Z" fill="#3F3D56"/>
<path d="M75.3242 79.1843H74.7665C74.7126 79.1843 74.6688 79.2284 74.6688 79.2827V79.5408C74.6688 79.5951 74.7126 79.6391 74.7665 79.6391H75.3242C75.3782 79.6391 75.4219 79.5951 75.4219 79.5408V79.2827C75.4219 79.2284 75.3782 79.1843 75.3242 79.1843Z" fill="#3F3D56"/>
<path d="M76.8304 79.1843H76.2728C76.2188 79.1843 76.175 79.2284 76.175 79.2827V79.5408C76.175 79.5951 76.2188 79.6391 76.2728 79.6391H76.8304C76.8844 79.6391 76.9282 79.5951 76.9282 79.5408V79.2827C76.9282 79.2284 76.8844 79.1843 76.8304 79.1843Z" fill="#3F3D56"/>
<path d="M78.3367 79.1843H77.7791C77.7251 79.1843 77.6813 79.2284 77.6813 79.2827V79.5408C77.6813 79.5951 77.7251 79.6391 77.7791 79.6391H78.3367C78.3907 79.6391 78.4345 79.5951 78.4345 79.5408V79.2827C78.4345 79.2284 78.3907 79.1843 78.3367 79.1843Z" fill="#3F3D56"/>
<path d="M79.843 79.1843H79.2853C79.2314 79.1843 79.1876 79.2284 79.1876 79.2827V79.5408C79.1876 79.5951 79.2314 79.6391 79.2853 79.6391H79.843C79.897 79.6391 79.9407 79.5951 79.9407 79.5408V79.2827C79.9407 79.2284 79.897 79.1843 79.843 79.1843Z" fill="#3F3D56"/>
<path d="M81.3492 79.1843H80.7916C80.7376 79.1843 80.6938 79.2284 80.6938 79.2827V79.5408C80.6938 79.5951 80.7376 79.6391 80.7916 79.6391H81.3492C81.4032 79.6391 81.447 79.5951 81.447 79.5408V79.2827C81.447 79.2284 81.4032 79.1843 81.3492 79.1843Z" fill="#3F3D56"/>
<path d="M82.8555 79.1843H82.2979C82.2439 79.1843 82.2001 79.2284 82.2001 79.2827V79.5408C82.2001 79.5951 82.2439 79.6391 82.2979 79.6391H82.8555C82.9095 79.6391 82.9533 79.5951 82.9533 79.5408V79.2827C82.9533 79.2284 82.9095 79.1843 82.8555 79.1843Z" fill="#3F3D56"/>
<path d="M84.3618 79.1843H83.8042C83.7502 79.1843 83.7064 79.2284 83.7064 79.2827V79.5408C83.7064 79.5951 83.7502 79.6391 83.8042 79.6391H84.3618C84.4158 79.6391 84.4596 79.5951 84.4596 79.5408V79.2827C84.4596 79.2284 84.4158 79.1843 84.3618 79.1843Z" fill="#3F3D56"/>
<path d="M85.8681 79.1843H85.3104C85.2564 79.1843 85.2127 79.2284 85.2127 79.2827V79.5408C85.2127 79.5951 85.2564 79.6391 85.3104 79.6391H85.8681C85.922 79.6391 85.9658 79.5951 85.9658 79.5408V79.2827C85.9658 79.2284 85.922 79.1843 85.8681 79.1843Z" fill="#3F3D56"/>
<path d="M87.3743 79.1843H86.8167C86.7627 79.1843 86.7189 79.2284 86.7189 79.2827V79.5408C86.7189 79.5951 86.7627 79.6391 86.8167 79.6391H87.3743C87.4283 79.6391 87.4721 79.5951 87.4721 79.5408V79.2827C87.4721 79.2284 87.4283 79.1843 87.3743 79.1843Z" fill="#3F3D56"/>
<path d="M88.8806 79.1843H88.323C88.269 79.1843 88.2252 79.2284 88.2252 79.2827V79.5408C88.2252 79.5951 88.269 79.6391 88.323 79.6391H88.8806C88.9346 79.6391 88.9784 79.5951 88.9784 79.5408V79.2827C88.9784 79.2284 88.9346 79.1843 88.8806 79.1843Z" fill="#3F3D56"/>
<path d="M90.3869 79.1843H89.8292C89.7752 79.1843 89.7315 79.2284 89.7315 79.2827V79.5408C89.7315 79.5951 89.7752 79.6391 89.8292 79.6391H90.3869C90.4408 79.6391 90.4846 79.5951 90.4846 79.5408V79.2827C90.4846 79.2284 90.4408 79.1843 90.3869 79.1843Z" fill="#3F3D56"/>
<path d="M91.8931 79.1843H91.3355C91.2815 79.1843 91.2377 79.2284 91.2377 79.2827V79.5408C91.2377 79.5951 91.2815 79.6391 91.3355 79.6391H91.8931C91.9471 79.6391 91.9909 79.5951 91.9909 79.5408V79.2827C91.9909 79.2284 91.9471 79.1843 91.8931 79.1843Z" fill="#3F3D56"/>
<path d="M93.3994 79.1843H92.8418C92.7878 79.1843 92.744 79.2284 92.744 79.2827V79.5408C92.744 79.5951 92.7878 79.6391 92.8418 79.6391H93.3994C93.4534 79.6391 93.4972 79.5951 93.4972 79.5408V79.2827C93.4972 79.2284 93.4534 79.1843 93.3994 79.1843Z" fill="#3F3D56"/>
<path d="M83.3074 80.094H77.4778C77.4238 80.094 77.3801 80.138 77.3801 80.1924V80.4504C77.3801 80.5048 77.4238 80.5488 77.4778 80.5488H83.3074C83.3614 80.5488 83.4051 80.5048 83.4051 80.4504V80.1924C83.4051 80.138 83.3614 80.094 83.3074 80.094Z" fill="#3F3D56"/>
<path d="M100.008 43.4636H61.5492C61.5092 43.4628 61.4711 43.4462 61.4431 43.4174C61.4151 43.3886 61.3994 43.35 61.3994 43.3097C61.3994 43.2694 61.4151 43.2307 61.4431 43.202C61.4711 43.1732 61.5092 43.1566 61.5492 43.1558H100.008C100.048 43.1566 100.086 43.1732 100.114 43.202C100.142 43.2307 100.158 43.2694 100.158 43.3097C100.158 43.35 100.142 43.3886 100.114 43.4174C100.086 43.4462 100.048 43.4628 100.008 43.4636Z" fill="#CACACA"/>
<path d="M64.1671 42.3698C64.6621 42.3698 65.0634 41.9569 65.0634 41.4476C65.0634 40.9383 64.6621 40.5254 64.1671 40.5254C63.6721 40.5254 63.2708 40.9383 63.2708 41.4476C63.2708 41.9569 63.6721 42.3698 64.1671 42.3698Z" fill="#3F3D56"/>
<path d="M67.2634 42.3698C67.7584 42.3698 68.1597 41.9569 68.1597 41.4476C68.1597 40.9383 67.7584 40.5254 67.2634 40.5254C66.7684 40.5254 66.3671 40.9383 66.3671 41.4476C66.3671 41.9569 66.7684 42.3698 67.2634 42.3698Z" fill="#3F3D56"/>
<path d="M70.3597 42.3698C70.8547 42.3698 71.256 41.9569 71.256 41.4476C71.256 40.9383 70.8547 40.5254 70.3597 40.5254C69.8647 40.5254 69.4634 40.9383 69.4634 41.4476C69.4634 41.9569 69.8647 42.3698 70.3597 42.3698Z" fill="#3F3D56"/>
<path d="M98.1435 40.7539H95.9441C95.9005 40.7548 95.859 40.7728 95.8284 40.8042C95.7979 40.8355 95.7808 40.8776 95.7808 40.9215C95.7808 40.9654 95.7979 41.0075 95.8284 41.0389C95.859 41.0702 95.9005 41.0883 95.9441 41.0891H98.1435C98.1871 41.0883 98.2286 41.0702 98.2592 41.0389C98.2897 41.0075 98.3068 40.9654 98.3068 40.9215C98.3068 40.8776 98.2897 40.8355 98.2592 40.8042C98.2286 40.7728 98.1871 40.7548 98.1435 40.7539Z" fill="#3F3D56"/>
<path d="M98.1435 41.3831H95.9441C95.9005 41.3839 95.859 41.402 95.8284 41.4333C95.7979 41.4647 95.7808 41.5068 95.7808 41.5507C95.7808 41.5946 95.7979 41.6367 95.8284 41.668C95.859 41.6994 95.9005 41.7174 95.9441 41.7183H98.1435C98.1871 41.7174 98.2286 41.6994 98.2592 41.668C98.2897 41.6367 98.3068 41.5946 98.3068 41.5507C98.3068 41.5068 98.2897 41.4647 98.2592 41.4333C98.2286 41.402 98.1871 41.3839 98.1435 41.3831Z" fill="#3F3D56"/>
<path d="M98.1435 42.0115H95.9441C95.9005 42.0123 95.859 42.0304 95.8284 42.0617C95.7979 42.0931 95.7808 42.1352 95.7808 42.1791C95.7808 42.223 95.7979 42.2651 95.8284 42.2965C95.859 42.3278 95.9005 42.3458 95.9441 42.3467H98.1435C98.1871 42.3458 98.2286 42.3278 98.2592 42.2965C98.2897 42.2651 98.3068 42.223 98.3068 42.1791C98.3068 42.1352 98.2897 42.0931 98.2592 42.0617C98.2286 42.0304 98.1871 42.0123 98.1435 42.0115Z" fill="#3F3D56"/>
<path d="M83.8506 52.4564H79.045C78.684 52.4564 78.3914 52.7509 78.3914 53.1142V53.1142C78.3914 53.4775 78.684 53.772 79.045 53.772H83.8506C84.2115 53.772 84.5041 53.4775 84.5041 53.1142V53.1142C84.5041 52.7509 84.2115 52.4564 83.8506 52.4564Z" fill="#6C63FF"/>
<path d="M86.955 55.0876H75.9406C75.5796 55.0876 75.287 55.3822 75.287 55.7455V55.7455C75.287 56.1088 75.5796 56.4033 75.9406 56.4033H86.955C87.316 56.4033 87.6086 56.1088 87.6086 55.7455C87.6086 55.3822 87.316 55.0876 86.955 55.0876Z" fill="#E6E6E6"/>
<path d="M86.955 57.7189H75.9406C75.5796 57.7189 75.287 58.0134 75.287 58.3767C75.287 58.74 75.5796 59.0345 75.9406 59.0345H86.955C87.316 59.0345 87.6086 58.74 87.6086 58.3767C87.6086 58.0134 87.316 57.7189 86.955 57.7189Z" fill="#E6E6E6"/>
<path d="M61.9247 82.7977H49.9112C49.4864 82.7977 49.079 82.9676 48.7786 83.2699C48.4782 83.5723 48.3094 83.9823 48.3094 84.4099C48.3094 84.8375 48.4782 85.2475 48.7786 85.5499C49.079 85.8522 49.4864 86.0221 49.9112 86.0221H54.3162V98.5165H57.5198V86.0221H61.9247C62.3495 86.0221 62.7569 85.8522 63.0573 85.5499C63.3577 85.2475 63.5265 84.8375 63.5265 84.4099C63.5265 83.9823 63.3577 83.5723 63.0573 83.2699C62.7569 82.9676 62.3495 82.7977 61.9247 82.7977Z" fill="#3F3D56"/>
<path d="M69.8538 105.436H37.7212C34.6061 105.425 31.5991 104.286 29.2494 102.227C26.8998 100.169 25.3643 97.3282 24.9236 94.2244L23.7862 90.0135C21.4319 81.2874 17.846 72.9465 13.138 65.2456C10.9861 61.7283 9.87851 58.3236 12.3942 55.0455C12.4156 55.0176 12.4366 54.9901 12.4573 54.9629C14.475 52.3197 24.5177 51.7475 27.7916 51.6362C27.921 51.6318 28.0508 51.6296 28.1811 51.6296H48.1673C48.2977 51.6296 48.4275 51.6318 48.5567 51.6362C50.3216 51.688 52.0396 52.2197 53.5285 53.1749C55.0174 54.13 56.2217 55.473 57.0134 57.0614C57.8583 58.6831 58.2513 60.5047 58.1506 62.333C58.0499 64.1613 57.4594 65.9281 56.4416 67.4459C49.421 78.0603 47.2716 84.7158 49.4722 89.0259C51.6008 93.195 58.1259 95.3265 70.0069 95.7337C73.1997 95.8431 74.6651 98.3454 74.6753 100.624C74.6853 102.844 73.2765 105.294 70.1597 105.43C70.0584 105.434 69.9565 105.436 69.8538 105.436Z" fill="#3F3D56"/>
<path d="M43.1799 134.153H55.1933C55.6181 134.153 56.0256 133.983 56.326 133.681C56.6264 133.379 56.7951 132.969 56.7951 132.541C56.7951 132.113 56.6264 131.703 56.326 131.401C56.0256 131.099 55.6181 130.929 55.1933 130.929H50.7884V103.723H47.5848V130.929H43.1799C42.755 130.929 42.3476 131.099 42.0472 131.401C41.7468 131.703 41.5781 132.113 41.5781 132.541C41.5781 132.969 41.7468 133.379 42.0472 133.681C42.3476 133.983 42.755 134.153 43.1799 134.153Z" fill="#3F3D56"/>
<path d="M42.2204 52.6394L42.4722 54.1796C42.5914 54.9265 43.0228 60.2023 42.7032 60.8317C42.675 59.6566 40.5007 57.8089 39.0919 58.2308L36.881 58.7252L35.5087 59.0325L34.3919 59.2789L31.1464 59.9926C31.1407 59.9547 31.1366 59.9144 31.131 59.8765C31.1233 59.8287 31.1156 59.7809 31.106 59.7335C31.0456 59.4272 30.9353 59.1329 30.7798 58.8627C30.7633 59.2247 30.6571 59.5768 30.4709 59.8869C30.4658 59.895 30.4614 59.9035 30.4577 59.9123C30.4 60.0062 30.3364 60.0962 30.2673 60.1819C30.264 60.1841 30.2611 60.1868 30.2586 60.1898C30.2586 60.1898 29.5918 49.491 29.6617 49.3922C29.7128 49.322 29.7643 49.2538 29.8182 49.1872C29.8717 49.1186 29.9236 49.0523 29.9795 48.9853C29.9867 48.9789 29.9927 48.9714 29.9975 48.9631C30.1539 48.7767 30.3195 48.5985 30.4938 48.4289C30.545 48.3793 30.5982 48.3292 30.6514 48.2792C31.4633 47.5231 32.4334 46.9599 33.4902 46.6311C33.6094 46.5942 33.7334 46.5604 33.8593 46.5263C33.9836 46.4945 34.1103 46.4643 34.2378 46.438L34.281 46.4291C34.3418 46.4166 34.405 46.4057 34.4662 46.3951C34.5431 46.3813 34.6204 46.3695 34.6961 46.3601C35.6794 46.2176 36.6811 46.2742 37.6423 46.5268C37.6443 46.5264 37.6447 46.5283 37.6467 46.5279C38.449 46.739 39.2117 47.0808 39.9043 47.5399C41.1023 48.3361 41.5687 49.6346 41.8998 51.0927C42.0159 51.5934 42.1136 52.1142 42.2204 52.6394Z" fill="#2F2E41"/>
<path d="M54.0532 123.185L56.1227 124.317L61.6013 116.693L58.5466 115.023L54.0532 123.185Z" fill="#FFB6B6"/>
<path d="M55.0494 120.469L58.8064 121.653L58.2084 123.237L60.7846 127C60.9119 127.186 60.9768 127.408 60.9699 127.634C60.963 127.859 60.8846 128.077 60.7461 128.254C60.6077 128.432 60.4165 128.56 60.2004 128.621C59.9843 128.681 59.7547 128.671 59.5451 128.59L55.1714 126.918L55.009 125.063L54.1232 126.517L52.4741 125.887L55.0494 120.469Z" fill="#2F2E41"/>
<path d="M65.7756 89.0853C65.4453 89.1662 65.1014 89.1733 64.768 89.106C64.4347 89.0387 64.1201 88.8986 63.8464 88.6957C63.5726 88.4928 63.3464 88.2319 63.1837 87.9315C63.021 87.6311 62.9256 87.2984 62.9045 86.9569L45.2524 80.5653L48.492 77.7279L65.2463 84.442C65.8187 84.4443 66.3703 84.6577 66.7968 85.042C67.2232 85.4263 67.4948 85.9547 67.56 86.527C67.6253 87.0994 67.4797 87.6759 67.1508 88.1474C66.8219 88.6189 66.3326 88.9526 65.7756 89.0853Z" fill="#FFB6B6"/>
<path d="M40.3212 64.7311C40.3212 64.7311 37.3482 64.797 37.0838 68.2132C36.8195 71.6294 43.3066 80.0793 44.3117 81.4727C45.3168 82.8662 56.4807 84.5812 56.4807 84.5812L60.2757 81.8083C56.288 79.2076 52.6487 77.2135 50.2064 77.3032L40.3212 64.7311Z" fill="#6C63FF"/>
<path d="M36.675 79.8045L37.3994 82.9374C37.3994 82.9374 37.4065 85.8263 37.9148 86.3589C38.4196 86.8891 49.5189 85.8246 49.5189 85.8246C49.5189 85.8246 48.3421 81.1695 48.3578 77.6471L36.675 79.8045Z" fill="#FFB6B6"/>
<path d="M60.1227 119.878L56.1182 117.661C56.042 112.417 59.1763 105.319 62.8937 97.8853C54.5798 99.3244 46.7364 99.7854 39.9522 98.0445C38.8384 97.7485 37.8851 97.0232 37.2983 96.0255C36.7115 95.0279 36.5383 93.8378 36.8161 92.7126C36.8425 92.6022 36.873 92.4929 36.9077 92.3847C37.7196 89.8914 35.899 88.3285 37.5736 85.5862C41.9778 84.0723 46.1616 83.6447 49.9875 84.9816L52.3846 90.3162L64.2665 88.7687C64.8405 88.6996 65.4225 88.7455 65.9788 88.9039C66.5351 89.0622 67.0548 89.3298 67.5079 89.6913C67.961 90.0527 68.3385 90.5008 68.6188 91.0098C68.899 91.5187 69.0764 92.0785 69.1407 92.6568C69.1566 92.7866 69.167 92.9169 69.1719 93.0478C66.7694 104.384 64.0755 114.584 60.1227 119.878Z" fill="#2F2E41"/>
<path d="M37.2252 58.1555C39.9125 57.602 41.6452 54.9608 41.0953 52.2561C40.5455 49.5513 37.9212 47.8074 35.2339 48.3608C32.5466 48.9143 30.8139 51.5555 31.3638 54.2602C31.9137 56.965 34.5379 58.7089 37.2252 58.1555Z" fill="#FFB6B6"/>
<path d="M35.0621 59.9701L39.6394 59.698C39.8324 59.6866 40.0242 59.736 40.188 59.8394C40.3518 59.9428 40.4795 60.0951 40.5532 60.275L41.8467 63.4312L47.2228 67.9034C47.2228 67.9034 49.3513 70.6296 49.3563 74.1505C49.3612 77.6713 50.1115 85.8206 50.1115 85.8206C50.1115 85.8206 47.005 81.4196 45.0876 82.5902C44.7614 82.7893 44.6466 83.1966 44.3049 83.4024C44.1345 83.505 43.7407 83.4052 43.5686 83.5081C40.9265 85.0867 38.171 86.6289 37.9136 86.3585C37.4081 85.8276 36.7948 83.1145 36.7948 83.1145L32.6049 67.6199C32.3777 66.8047 32.3326 65.949 32.4728 65.1141C32.613 64.2792 32.935 63.4859 33.4157 62.7911C33.7084 62.3763 34.0151 62.0677 34.3001 62.0167C34.94 61.8795 34.5996 60.4359 35.0621 59.9701Z" fill="#6C63FF"/>
<path d="M73.9995 129.749L75.9317 128.397L71.5546 120.085L68.703 122.08L73.9995 129.749Z" fill="#FFB6B6"/>
<path d="M74.2916 124.172L71.2635 126.896C66.4485 121.496 62.8085 113.923 59.7239 105.322C51.6416 102.94 45.5466 99.0976 40.2256 94.5355C38.4205 92.9981 37.0674 91.0232 38.6069 89.1505C38.6788 89.063 38.754 88.9783 38.8323 88.8965C40.65 87.0163 45.2597 87.3746 47.9595 85.6521L53.9905 92.1404L53.6111 93.8799L64.9393 97.742C65.4844 97.9343 65.9862 98.2333 66.4159 98.6217C66.8456 99.0102 67.1946 99.4804 67.4428 100.005C67.6911 100.53 67.8336 101.099 67.8622 101.68C67.8908 102.261 67.8048 102.841 67.6094 103.388C67.567 103.512 67.5193 103.633 67.4665 103.753L74.2916 124.172Z" fill="#2F2E41"/>
<path d="M72.873 129.201L75.966 126.749L76.927 128.141L81.4677 128.127C81.692 128.126 81.9106 128.197 82.0917 128.331C82.2727 128.464 82.4067 128.652 82.4741 128.867C82.5416 129.082 82.5388 129.314 82.4663 129.527C82.3939 129.741 82.2555 129.926 82.0713 130.054L78.2296 132.742L76.6168 131.829L77.3089 133.386L75.8604 134.4L72.873 129.201Z" fill="#2F2E41"/>
<path d="M41.8213 99.0189C41.5084 98.8852 41.2283 98.6841 41.001 98.4297C40.7736 98.1753 40.6044 97.8738 40.5054 97.5465C40.4063 97.2192 40.3797 96.874 40.4275 96.5352C40.4753 96.1964 40.5964 95.8723 40.7821 95.5857L30.4196 79.8464L34.7017 79.5188L44.1528 94.977C44.6104 95.3229 44.9261 95.8258 45.0401 96.3904C45.154 96.955 45.0581 97.542 44.7708 98.0402C44.4834 98.5384 44.0244 98.9132 43.4808 99.0936C42.9372 99.274 42.3467 99.2474 41.8213 99.0189Z" fill="#FFB6B6"/>
<path d="M35.8632 64.1832C35.8632 64.1832 33.4399 62.4485 31.2002 65.0292C28.9606 67.6099 29.1476 78.2868 29.1266 80.0086C29.12 80.5477 29.8935 81.7111 30.9593 83.0549C31.4377 83.6582 31.9751 84.2978 32.5272 84.9337C32.8467 85.3017 32.5714 86.0676 32.8922 86.4252C33.2112 86.7809 34.1264 86.7284 34.4299 87.0585C35.8703 88.6255 37.0405 89.8182 37.0405 89.8182L41.7298 89.8762C41.7827 86.3677 39.3955 83.2359 36.3286 80.2091L35.8632 64.1832Z" fill="#6C63FF"/>
<path d="M42.4371 50.8299C42.2533 50.9212 42.075 51.0093 41.8998 51.0927C41.1971 51.4404 40.4708 51.7378 39.7264 51.9826C39.6025 51.6435 39.4135 51.3322 39.1702 51.0666C39.2325 51.4335 39.2008 51.8103 39.0781 52.1614C37.9513 52.4422 36.7686 52.3963 35.6667 52.0288C36.3873 53.3717 36.9197 56.2015 36.881 58.7252C36.8641 60.0595 36.6846 61.308 36.2928 62.2054L35.7892 60.6635C35.7425 60.1127 35.6487 59.567 35.5087 59.0325C35.1711 57.5325 34.8559 58.5354 34.3919 59.2789L31.1464 59.9926C31.1407 59.9547 31.1366 59.9144 31.131 59.8765C31.1233 59.8287 31.1156 59.7809 31.106 59.7335C31.0456 59.4272 30.9354 59.1329 30.7798 58.8627C30.7633 59.2247 30.6571 59.5768 30.4709 59.8869C30.4658 59.895 30.4614 59.9035 30.4577 59.9123C30.4 60.0062 30.3364 60.0962 30.2673 60.1819C30.264 60.1841 30.2611 60.1868 30.2586 60.1898C28.1633 60.472 26.6944 49.5966 29.6621 49.3942C29.7483 49.3883 29.7647 49.2558 29.8182 49.1872C29.8717 49.1186 29.9236 49.0523 29.9795 48.9853C29.9867 48.9789 29.9927 48.9714 29.9975 48.9631C30.1561 48.7782 30.3202 48.6004 30.4938 48.4289C30.545 48.3793 30.5982 48.3292 30.6514 48.2792C31.4658 47.5268 32.4353 46.9647 33.4906 46.6331C33.6098 46.5962 33.7334 46.5604 33.8593 46.5263C33.9836 46.4945 34.1103 46.4643 34.2378 46.438L34.281 46.4291C34.3418 46.4166 34.405 46.4057 34.4662 46.3951C34.5431 46.3813 34.6204 46.3695 34.6961 46.3601C34.9805 46.5044 35.2239 46.719 35.4033 46.9838L37.4767 46.5568C37.5317 46.5454 37.587 46.5361 37.6427 46.5287L37.6467 46.5279C40.2352 46.0915 41.8996 48.1862 42.4371 50.8299Z" fill="#2F2E41"/>
<path d="M31.1365 48.9071C30.6925 49.2297 30.2255 49.5619 29.6837 49.6418C29.142 49.7218 28.5078 49.4582 28.3579 48.9282C28.1746 48.2801 28.756 47.6901 29.2785 47.2689L30.9356 45.9334C31.239 45.6625 31.5816 45.4396 31.9515 45.2723C32.1373 45.19 32.3392 45.1508 32.5421 45.1576C32.745 45.1644 32.9438 45.2171 33.1237 45.3117C33.3018 45.4328 33.4461 45.5977 33.543 45.7908C33.6398 45.9838 33.6859 46.1987 33.6769 46.4148C33.6533 46.8479 33.5113 47.266 33.2666 47.6231C32.959 48.1056 32.5575 48.5205 32.0864 48.8429C31.6153 49.1652 31.0843 49.3882 30.5253 49.4986" fill="#2F2E41"/>
<path d="M43.7043 83.6039H31.6908C31.266 83.6039 30.8586 83.7737 30.5582 84.0761C30.2578 84.3784 30.089 84.7885 30.089 85.2161C30.089 85.6436 30.2578 86.0537 30.5582 86.356C30.8586 86.6584 31.266 86.8283 31.6908 86.8283H36.0958V99.3227H39.2993V86.8283H43.7043C44.1291 86.8283 44.5365 86.6584 44.8369 86.356C45.1373 86.0537 45.3061 85.6436 45.3061 85.2161C45.3061 84.7885 45.1373 84.3784 44.8369 84.0761C44.5365 83.7737 44.1291 83.6039 43.7043 83.6039Z" fill="#3F3D56"/>
<path d="M88.0869 134.736L0.238416 134.798C0.175307 134.798 0.114847 134.773 0.0702867 134.728C0.0257264 134.683 0.000701904 134.622 0.000701904 134.558C0.000701904 134.495 0.0257264 134.434 0.0702867 134.389C0.114847 134.344 0.175307 134.319 0.238416 134.319L88.0869 134.257C88.15 134.257 88.2105 134.282 88.255 134.327C88.2996 134.372 88.3246 134.433 88.3246 134.497C88.3246 134.56 88.2996 134.621 88.255 134.666C88.2105 134.711 88.15 134.736 88.0869 134.736Z" fill="#CACACA"/>
<path d="M113.652 107.971L115.607 110.116L124.758 103.545L121.872 100.379L113.652 107.971Z" fill="#A0616A"/>
<path d="M117.699 111.007V111.005L117.501 108.863L117.411 108.82L116.884 108.569L114.4 107.386L114.347 107.329L113.849 106.781L111.088 109.332L114.828 113.435L117.393 116.249L117.479 116.168C117.83 115.844 118.115 115.453 118.316 115.018C118.518 114.583 118.632 114.113 118.652 113.633C118.673 113.154 118.599 112.675 118.436 112.225C118.272 111.774 118.022 111.36 117.699 111.007Z" fill="#2F2E41"/>
<path d="M103.52 129.37L106.287 130.216L110.847 119.874L106.762 118.625L103.52 129.37Z" fill="#A0616A"/>
<path d="M110.685 131.685C110.462 131.261 110.158 130.886 109.789 130.582C109.421 130.277 108.996 130.049 108.539 129.912L107.284 128.169L107.185 128.177L103.868 128.483L103.794 128.461L103.089 128.245L102 131.855L110.924 134.583L110.958 134.468C111.097 134.009 111.145 133.527 111.098 133.049C111.051 132.572 110.911 132.108 110.685 131.685Z" fill="#2F2E41"/>
<path d="M126.341 75.222C126.341 75.222 144.011 92.3933 132.84 97.7084H129.388C129.388 97.7084 128.35 93.9983 125.975 90.8697C125.649 90.44 124.427 90.5273 124.087 90.1085C122.015 87.5518 119.769 85.356 118.217 85.4432L118.588 97.3075L119.189 101.539C119.504 103.727 110.603 122.829 110.603 122.829L105.008 120.616C105.008 120.616 110.837 104.883 110.905 102.614L106.234 77.6751L126.341 75.222Z" fill="#2F2E41"/>
<path d="M127.815 76.0689C127.724 76.1982 127.607 76.3056 127.47 76.3832C127.245 76.5113 127.001 76.6025 126.747 76.6533C122.769 77.5621 109.772 79.4464 106.399 78.5476C105.984 78.4388 105.714 78.2856 105.626 78.0841C105.343 77.4473 105.379 74.7569 105.546 71.5084C105.576 70.8998 106.242 70.2408 106.282 69.604C106.31 69.1264 105.712 68.677 105.744 68.1913C105.964 64.9065 106.248 61.5592 106.439 59.4432C106.559 58.0829 106.641 57.2325 106.641 57.2325L104.589 44.2081L104.685 44.0489L104.793 43.9945L111.41 40.6975L111.771 39.7705C111.875 39.5036 112.057 39.2743 112.292 39.1123C112.527 38.9503 112.805 38.863 113.09 38.8617L117.449 38.8435C117.675 38.8423 117.898 38.8954 118.1 38.9984C118.302 39.1015 118.476 39.2515 118.608 39.436L119.79 41.0824L127.598 46.1205L127.568 46.2132L123.904 57.436L123.886 58.3106V58.3127L123.75 65.3458L124.128 66.299L123.702 67.8628C123.702 67.8628 123.898 69.6906 124.949 71.0489C125.902 72.2822 127.116 73.568 127.664 74.6118V74.6139C127.969 75.1902 128.071 75.69 127.815 76.0689Z" fill="#6C63FF"/>
<path d="M133.689 96.6883L132.744 97.8895C132.744 97.8895 124.058 104.006 123.76 104.578L122.387 105.885L119.065 102.311L120.793 100.132C122.175 98.3884 123.961 97.0122 125.994 96.1241L128.642 93.7601L133.689 96.6883Z" fill="#2F2E41"/>
<path d="M128.169 79.521L126.588 64.1105L126.17 57.7681L130.598 56.9623C130.598 56.9623 130.422 61.4973 131.002 64.0561C131.574 66.581 131.078 79.1827 131.043 79.5197C131.368 79.8123 131.597 80.1974 131.7 80.624C131.803 81.0506 131.775 81.4987 131.619 81.9088C131.464 82.319 131.188 82.672 130.829 82.9211C130.47 83.1702 130.044 83.3037 129.608 83.3039C129.172 83.3041 128.746 83.171 128.386 82.9223C128.027 82.6735 127.751 82.3208 127.595 81.9108C127.439 81.5008 127.411 81.0528 127.513 80.626C127.616 80.1993 127.845 79.814 128.169 79.521Z" fill="#A0616A"/>
<path d="M132.488 67.304L126.797 68.4896L126.3 66.493L125.72 65.8736L124.561 59.7627L122.898 56.1831L123.33 43.9418L127.554 46.1963L127.559 46.2003C128.205 46.9061 128.65 47.9162 129.39 48.9298C131.723 52.1237 131.981 59.8845 131.911 64.1355C131.91 64.2053 131.979 64.279 132.063 64.3564C132.46 64.7234 132.72 65.2171 132.797 65.7541C132.874 66.2911 132.765 66.8385 132.488 67.304Z" fill="#6C63FF"/>
<path d="M102.4 80.1257L103.981 64.7151L104.399 58.3727L99.9715 57.5669C99.9715 57.5669 100.147 62.1019 99.5669 64.6607C98.9945 67.1856 99.4909 79.7873 99.5263 80.1243C99.2012 80.4169 98.972 80.802 98.869 81.2286C98.766 81.6553 98.7942 82.1033 98.9497 82.5135C99.1052 82.9236 99.3808 83.2766 99.74 83.5257C100.099 83.7748 100.525 83.9083 100.961 83.9085C101.397 83.9087 101.823 83.7756 102.183 83.5269C102.542 83.2781 102.818 82.9254 102.974 82.5154C103.13 82.1054 103.158 81.6574 103.056 81.2307C102.953 80.8039 102.724 80.4186 102.4 80.1257Z" fill="#A0616A"/>
<path d="M107.672 56.7872L106.439 59.4433L106.008 60.3683L104.849 66.4784L104.27 67.0971L103.772 69.0942L103.537 69.0458L99.3126 68.1652L98.0812 67.9092C97.8037 67.4438 97.6944 66.8962 97.7717 66.359C97.849 65.8218 98.1083 65.3279 98.5057 64.961C98.5898 64.8844 98.6599 64.8098 98.6579 64.7393C98.5878 60.4892 98.8461 52.7285 101.179 49.5344C101.92 48.5207 102.364 47.5111 103.011 46.8057C103.013 46.8037 103.013 46.8017 103.015 46.8017L104.589 44.2081L104.685 44.0489L104.793 43.9945L107.672 56.7872Z" fill="#6C63FF"/>
<path d="M115.144 37.5945C118.347 37.5945 120.943 34.9811 120.943 31.7573C120.943 28.5335 118.347 25.92 115.144 25.92C111.941 25.92 109.344 28.5335 109.344 31.7573C109.344 34.9811 111.941 37.5945 115.144 37.5945Z" fill="#A0616A"/>
<path d="M121.664 29.1967C121.644 28.2012 121.532 26.9275 120.839 25.9119C120.254 25.0574 119.075 24.3803 117.976 24.7189C117.988 24.4976 117.939 24.2773 117.834 24.0823C117.73 23.8874 117.573 23.7254 117.383 23.6145C116.966 23.3586 116.466 23.3122 116.023 23.2699C114.908 23.1651 113.753 23.0563 112.624 23.2719C111.356 23.5137 110.319 24.1707 109.78 25.0755L109.768 25.1038L109.658 25.6398C109.644 25.7117 109.614 25.7795 109.57 25.8387C109.527 25.8978 109.472 25.9468 109.408 25.9824C109.344 26.0185 109.273 26.0399 109.2 26.0451C109.127 26.0503 109.054 26.0392 108.985 26.0126C108.911 25.9844 108.83 25.9763 108.751 25.9892C108.672 26.002 108.598 26.0353 108.536 26.0858C108.474 26.1362 108.426 26.2021 108.397 26.277C108.368 26.3518 108.359 26.433 108.371 26.5124L108.401 26.726L108.082 26.6656C108.003 26.65 107.92 26.6562 107.843 26.6835C107.766 26.7108 107.698 26.7582 107.646 26.8208C107.593 26.8835 107.559 26.9591 107.545 27.0399C107.531 27.1206 107.539 27.2036 107.568 27.2802L107.656 27.5241C107.59 27.5249 107.525 27.5391 107.465 27.5658C107.405 27.5925 107.351 27.631 107.306 27.6792C107.241 27.7495 107.201 27.8385 107.19 27.9334C107.179 28.0283 107.199 28.1242 107.246 28.2072C107.602 28.8203 108.108 29.332 108.715 29.6945C108.988 29.86 109.283 29.9868 109.59 30.0713C109.654 30.0895 109.72 30.1056 109.788 30.1197C112.247 30.6529 114.781 30.7294 117.267 30.3454C117.12 30.8389 117.064 31.3551 117.101 31.8689C117.181 32.5118 117.555 33.0418 118.056 33.2191C118.169 33.2577 118.286 33.2861 118.404 33.3037C118.517 33.3222 118.629 33.3499 118.738 33.3864C118.899 33.4457 119.042 33.5469 119.152 33.6795C119.262 33.8122 119.334 33.9716 119.363 34.1418C119.392 34.3119 119.376 34.4867 119.316 34.6485C119.256 34.8103 119.155 34.9533 119.023 35.063C119.023 35.063 119.547 35.5003 119.613 35.4782C119.871 35.3635 120.087 35.1704 120.23 34.926C121.229 33.4791 121.712 31.5525 121.664 29.1967Z" fill="#2F2E41"/>
</g>
<defs>
<clipPath id="clip0_172_197">
<rect width="155" height="135" fill="white"/>
</clipPath>
</defs>
</svg>
