<svg width="124" height="101" viewBox="0 0 124 101" fill="none" xmlns="http://www.w3.org/2000/svg">
<g clip-path="url(#clip0_105_682)">
<path d="M18.197 86.085C26.0231 82.0383 42.2015 75.2496 62.6227 75.2496C83.0438 75.2496 99.2222 82.0383 107.048 86.085C114.667 90.0247 120.795 94.6698 123.681 98.4597C124.733 97.0313 123.189 71.6187 118.916 61.5404C112.651 46.7297 102.144 34.0922 88.711 25.2109C75.2781 16.3296 59.5165 11.5994 43.4006 11.6128C37.6683 11.5972 31.9898 12.7158 26.6938 14.9039C21.3979 17.092 16.5896 20.3061 12.5474 24.3602C12.3757 24.5315 12.2056 24.7039 12.0371 24.8775C2.99278 34.1966 -1.23028 47.1621 0.311577 60.041C1.40931 69.2103 4.11471 88.3888 7.9373 92.4552C11.1742 90.0518 14.6059 87.921 18.197 86.085Z" fill="#F2F2F2"/>
<path d="M76.8201 23.5585C83.2798 23.5585 88.5165 18.3352 88.5165 11.8919C88.5165 5.4486 83.2798 0.225281 76.8201 0.225281C70.3605 0.225281 65.1238 5.4486 65.1238 11.8919C65.1238 18.3352 70.3605 23.5585 76.8201 23.5585Z" fill="#8E8CAF"/>
<path d="M63.5321 81.5388C70.713 81.5388 76.5343 80.3274 76.5343 78.8332C76.5343 77.3389 70.713 76.1276 63.5321 76.1276C56.3512 76.1276 50.5298 77.3389 50.5298 78.8332C50.5298 80.3274 56.3512 81.5388 63.5321 81.5388Z" fill="#F2F2F2"/>
<path d="M76.7407 17.7043C64.8217 17.7033 55.4853 15.548 55.4856 12.7976C55.4857 11.1486 58.7941 9.67762 64.5624 8.76195C64.5829 8.75852 64.604 8.75915 64.6243 8.76382C64.6446 8.76849 64.6637 8.7771 64.6807 8.78916C64.6977 8.80122 64.7121 8.8165 64.7231 8.83411C64.7342 8.85173 64.7416 8.87134 64.7451 8.89184C64.7485 8.91233 64.7479 8.9333 64.7432 8.95355C64.7385 8.97379 64.7299 8.99292 64.7178 9.00984C64.7057 9.02676 64.6904 9.04114 64.6727 9.05215C64.6551 9.06317 64.6354 9.07061 64.6148 9.07404L64.6142 9.07414L64.6122 9.07446C59.1785 9.93708 55.8029 11.3637 55.8028 12.7976C55.8026 15.2848 65.391 17.3869 76.7408 17.3879C88.0906 17.3889 97.6793 15.2885 97.6796 12.8013C97.6797 11.3614 94.2828 9.93074 88.8145 9.06767C88.7938 9.06457 88.774 9.05744 88.7561 9.04669C88.7383 9.03594 88.7227 9.02178 88.7104 9.00502C88.698 8.98827 88.6891 8.96924 88.6841 8.94904C88.6791 8.92883 88.6781 8.90785 88.6813 8.88728C88.6845 8.86671 88.6916 8.84696 88.7025 8.82917C88.7133 8.81138 88.7275 8.79589 88.7443 8.78359C88.7612 8.77129 88.7802 8.76242 88.8005 8.75748C88.8208 8.75255 88.8418 8.75166 88.8624 8.75485L88.8629 8.75492L88.8641 8.7551C94.6682 9.67119 97.997 11.146 97.9968 12.8014C97.9966 15.5518 88.6598 17.7054 76.7407 17.7043Z" fill="#3F3D56"/>
<path d="M77.5902 15.8197C67.3195 21.852 58.1781 24.7208 56.779 22.3508C55.9402 20.9298 58.0425 17.9877 62.547 14.2788C62.5629 14.2655 62.5814 14.2554 62.6012 14.2491C62.6211 14.2429 62.642 14.2406 62.6628 14.2424C62.6835 14.2442 62.7037 14.2501 62.7222 14.2597C62.7407 14.2692 62.7571 14.2824 62.7705 14.2983C62.7839 14.3142 62.794 14.3326 62.8003 14.3524C62.8065 14.3722 62.8088 14.3931 62.807 14.4138C62.8052 14.4345 62.7993 14.4546 62.7897 14.473C62.7801 14.4915 62.7669 14.5078 62.751 14.5212L62.7505 14.5216L62.7489 14.5229C58.5057 18.0166 56.323 20.9546 57.0523 22.1902C58.3176 24.3334 67.649 21.2912 77.4293 15.547C87.2095 9.80273 94.4033 3.13921 93.138 0.995961C92.4056 -0.244822 88.7507 0.241848 83.5997 2.26618C83.5804 2.2739 83.5597 2.27774 83.5389 2.27748C83.518 2.27723 83.4974 2.27288 83.4783 2.26469C83.4592 2.25651 83.4418 2.24464 83.4273 2.22976C83.4127 2.21489 83.4012 2.19731 83.3935 2.17801C83.3858 2.15872 83.3819 2.13809 83.3822 2.11732C83.3824 2.09654 83.3868 2.07601 83.395 2.05692C83.4032 2.03782 83.4151 2.02052 83.43 2.00601C83.4449 1.99149 83.4626 1.98005 83.4819 1.97234L83.4824 1.97215L83.4834 1.97173C88.9507 -0.176886 92.5694 -0.591066 93.4114 0.835393C94.8105 3.20546 87.861 9.78732 77.5902 15.8197Z" fill="#3F3D56"/>
<path d="M63.9001 80.2684C68.7714 80.2684 72.7203 79.6155 72.7203 78.81C72.7203 78.0045 68.7714 77.3515 63.9001 77.3515C59.0288 77.3515 55.0798 78.0045 55.0798 78.81C55.0798 79.6155 59.0288 80.2684 63.9001 80.2684Z" fill="#E6E6E6"/>
<path d="M34.5039 95.6868C42.6995 95.6868 49.3434 94.3043 49.3434 92.5989C49.3434 90.8935 42.6995 89.511 34.5039 89.511C26.3082 89.511 19.6643 90.8935 19.6643 92.5989C19.6643 94.3043 26.3082 95.6868 34.5039 95.6868Z" fill="#F2F2F2"/>
<path d="M94.9396 101C107.16 101 117.066 98.9386 117.066 96.3957C117.066 93.8529 107.16 91.7915 94.9396 91.7915C82.7195 91.7915 72.8131 93.8529 72.8131 96.3957C72.8131 98.9386 82.7195 101 94.9396 101Z" fill="#F2F2F2"/>
<path d="M34.4587 94.3806C40.741 94.3806 45.8338 93.5384 45.8338 92.4996C45.8338 91.4608 40.741 90.6187 34.4587 90.6187C28.1764 90.6187 23.0836 91.4608 23.0836 92.4996C23.0836 93.5384 28.1764 94.3806 34.4587 94.3806Z" fill="#E6E6E6"/>
<path d="M94.9445 99.319C105.685 99.319 114.392 97.8793 114.392 96.1032C114.392 94.3272 105.685 92.8875 94.9445 92.8875C84.2039 92.8875 75.4968 94.3272 75.4968 96.1032C75.4968 97.8793 84.2039 99.319 94.9445 99.319Z" fill="#E6E6E6"/>
<path d="M9.16637 51.2473C9.77961 51.2473 10.2767 50.7514 10.2767 50.1397C10.2767 49.528 9.77961 49.0322 9.16637 49.0322C8.55313 49.0322 8.056 49.528 8.056 50.1397C8.056 50.7514 8.55313 51.2473 9.16637 51.2473Z" fill="white"/>
<path d="M86.8921 67.3858C87.5054 67.3858 88.0025 66.89 88.0025 66.2783C88.0025 65.6666 87.5054 65.1707 86.8921 65.1707C86.2789 65.1707 85.7818 65.6666 85.7818 66.2783C85.7818 66.89 86.2789 67.3858 86.8921 67.3858Z" fill="white"/>
<path d="M48.9703 30.8494C51.6661 31.6167 51.5625 33.2227 54.7601 33.2227C57.9577 33.2227 60.5499 33.6457 60.5499 30.8494C60.5499 28.0531 59.2772 22.855 54.7601 23.0965C49.8984 23.3565 47.3359 30.3842 48.9703 30.8494Z" fill="#2F2E41"/>
<path d="M41.8758 54.5277C41.7598 54.3078 41.6936 54.0652 41.6817 53.817C41.6699 53.5688 41.7128 53.321 41.8073 53.0911C41.9019 52.8612 42.0459 52.6548 42.2291 52.4864C42.4122 52.318 42.6302 52.1918 42.8676 52.1165L49.5007 38.1204L52.5348 40.2426L45.0607 53.333C45.161 53.7392 45.1085 54.168 44.9131 54.5382C44.7176 54.9083 44.3928 55.1941 44.0003 55.3414C43.6077 55.4886 43.1746 55.4872 42.783 55.3372C42.3915 55.1872 42.0687 54.8992 41.8758 54.5277Z" fill="#FFB8B8"/>
<path d="M47.5596 39.9786C47.528 39.8737 47.5195 39.7632 47.5346 39.6547C47.5497 39.5463 47.5881 39.4423 47.6472 39.35L49.7095 36.1251C49.9387 35.6135 50.362 35.2134 50.8865 35.0126C51.411 34.8118 51.9939 34.8266 52.5074 35.0539C53.021 35.2811 53.4232 35.7022 53.6259 36.2249C53.8286 36.7475 53.8153 37.329 53.5888 37.8418L52.55 41.5368C52.5203 41.6422 52.4682 41.7401 52.3972 41.8236C52.3263 41.9072 52.2381 41.9745 52.1386 42.021C52.0392 42.0675 51.9309 42.092 51.8212 42.093C51.7114 42.094 51.6026 42.0714 51.5024 42.0267L47.9796 40.4554C47.8793 40.4107 47.7899 40.345 47.7174 40.2627C47.6449 40.1804 47.5911 40.0835 47.5596 39.9786Z" fill="#8E8CAF"/>
<path d="M65.9617 81.575L64.1344 82.2387L60.6984 75.5241L63.3953 74.5446L65.9617 81.575Z" fill="#FFB8B8"/>
<path d="M62.639 82.1919L66.1631 80.912L66.971 83.1253L61.228 85.211C61.0137 84.624 61.042 83.9762 61.3066 83.41C61.5712 82.8438 62.0505 82.4056 62.639 82.1919Z" fill="#2F2E41"/>
<path d="M60.9731 77.3277L54.0116 65.176C53.9443 65.0584 53.9097 64.9251 53.9111 64.7898C53.9126 64.6544 53.9501 64.5219 54.0198 64.4058L57.1546 59.1944C57.229 59.0708 57.3369 58.9708 57.466 58.9059C57.595 58.841 57.7399 58.814 57.8837 58.8279C58.0276 58.8419 58.1645 58.8962 58.2786 58.9846C58.3927 59.0731 58.4794 59.192 58.5284 59.3276L64.4552 75.6985C64.5205 75.8767 64.5164 76.0728 64.444 76.2482C64.3715 76.4236 64.2358 76.5655 64.0637 76.6462L61.9636 77.6383C61.8623 77.6862 61.7515 77.711 61.6394 77.711C61.5044 77.7112 61.3717 77.6758 61.2547 77.6085C61.1377 77.5413 61.0406 77.4444 60.9731 77.3277Z" fill="#2F2E41"/>
<path d="M54.513 33.0709C56.6647 33.0709 58.409 31.3311 58.409 29.1848C58.409 27.0386 56.6647 25.2988 54.513 25.2988C52.3613 25.2988 50.6171 27.0386 50.6171 29.1848C50.6171 31.3311 52.3613 33.0709 54.513 33.0709Z" fill="#FFB8B8"/>
<path d="M48.9715 46.7872C45.9034 40.0013 48.9964 36.2087 50.4687 34.8932C50.8927 34.5137 51.4424 34.304 52.0121 34.3044H57.5004C57.8945 34.3044 58.2821 34.4048 58.6264 34.5963C58.9706 34.7877 59.2601 35.0637 59.4673 35.3981C59.6745 35.7325 59.7925 36.1142 59.8102 36.5069C59.828 36.8996 59.7447 37.2904 59.5685 37.642L55.8996 44.9611L49.0013 46.8533L48.9715 46.7872Z" fill="#8E8CAF"/>
<path d="M53.4084 83.4099L51.4636 83.4097L50.5385 75.9277L53.4087 75.9279L53.4084 83.4099Z" fill="#FFB8B8"/>
<path d="M50.0746 82.8555H53.8251V85.2109H47.7132C47.7132 84.9016 47.7743 84.5953 47.8929 84.3095C48.0116 84.0238 48.1856 83.7641 48.4048 83.5454C48.6241 83.3267 48.8844 83.1532 49.1709 83.0348C49.4574 82.9164 49.7645 82.8555 50.0746 82.8555Z" fill="#2F2E41"/>
<path d="M52.5844 80.5536L49.4708 80.1953C49.2695 80.1721 49.0856 80.0701 48.9597 79.9116C48.8338 79.7532 48.7761 79.5514 48.7994 79.3506C48.7999 79.3463 48.8004 79.342 48.801 79.3378L51.5798 58.4684C51.5895 58.3957 51.5856 58.3218 51.5682 58.2506L48.7752 46.7566C48.7488 46.6506 48.7458 46.5402 48.7665 46.4329C48.7871 46.3256 48.8309 46.2241 48.8948 46.1354C49.3279 45.5398 50.8119 44.1518 55.2262 44.1255H55.2309C55.3779 44.1256 55.5218 44.1677 55.6455 44.247C55.7692 44.3263 55.8674 44.4394 55.9284 44.5728L56.5173 45.8648C56.5611 45.9607 56.6297 46.0433 56.716 46.1041C57.5265 46.6764 61.4528 49.8885 59.1473 56.9405C56.8814 63.8717 53.9782 77.3281 53.4192 79.9552C53.3836 80.1259 53.29 80.2792 53.1543 80.3891C53.0185 80.4991 52.8489 80.5589 52.6741 80.5587C52.6441 80.5587 52.6142 80.557 52.5844 80.5536Z" fill="#2F2E41"/>
<path d="M68.0722 30.1602C68.0798 30.2474 68.0942 30.3339 68.1154 30.4189L62.8258 36.2268L60.9575 35.8252L59.9814 38.5583L63.2194 39.5899C63.481 39.6732 63.7626 39.6697 64.022 39.5798C64.2814 39.4899 64.5046 39.3184 64.658 39.0913L69.658 31.6872C69.9958 31.7022 70.3301 31.6143 70.6166 31.4351C70.9031 31.2559 71.1281 30.994 71.2616 30.6841C71.3952 30.3743 71.4311 30.0312 71.3644 29.7006C71.2977 29.3699 71.1317 29.0673 70.8885 28.8331C70.6452 28.5988 70.3362 28.444 70.0025 28.3892C69.6689 28.3344 69.3264 28.3822 69.0207 28.5263C68.715 28.6704 68.4605 28.9039 68.291 29.1957C68.1216 29.4876 68.0453 29.824 68.0722 30.1602Z" fill="#FFB8B8"/>
<path d="M62.6656 36.473L61.4393 39.8546C61.4044 39.9508 61.3491 40.0384 61.2772 40.1113C61.2053 40.1843 61.1185 40.241 61.0227 40.2775C60.9269 40.314 60.8243 40.3295 60.7219 40.3229C60.6196 40.3163 60.5198 40.2877 60.4295 40.2392L57.2653 38.5388C56.7727 38.358 56.3721 37.9897 56.1514 37.5147C55.9306 37.0397 55.9077 36.4968 56.0877 36.005C56.2677 35.5132 56.6359 35.1127 57.1115 34.8913C57.5871 34.6698 58.1314 34.6456 58.6249 34.8239L62.1362 35.533C62.2368 35.5534 62.3317 35.5951 62.4146 35.6553C62.4976 35.7156 62.5665 35.7929 62.6167 35.8821C62.667 35.9713 62.6973 36.0703 62.7058 36.1723C62.7142 36.2742 62.7005 36.3768 62.6656 36.473Z" fill="#8E8CAF"/>
<path d="M59.2809 28.9507H57.74L57.0602 27.0521L56.9242 28.9507H56.1877L55.7912 27.8432L55.7118 28.9507C53.7845 29.7619 51.9575 29.7843 50.2393 28.9507C50.2393 27.8597 50.6738 26.8133 51.4473 26.0419C52.2207 25.2704 53.2697 24.837 54.3635 24.837H55.1567C56.2505 24.837 57.2995 25.2704 58.0729 26.0419C58.8464 26.8133 59.2809 27.8597 59.2809 28.9507Z" fill="#2F2E41"/>
<path d="M18.1286 69.6009H17.5734V69.0472C17.5734 68.8583 17.4982 68.6772 17.3644 68.5437C17.2305 68.4102 17.0489 68.3352 16.8596 68.3352C16.6703 68.3352 16.4888 68.4102 16.3549 68.5437C16.221 68.6772 16.1458 68.8583 16.1458 69.0472V69.6009H15.5906C15.4013 69.6009 15.2198 69.676 15.0859 69.8095C14.952 69.943 14.8768 70.1241 14.8768 70.3129C14.8768 70.5018 14.952 70.6829 15.0859 70.8164C15.2198 70.9499 15.4013 71.0249 15.5906 71.0249H16.1458V71.5787C16.1458 71.7675 16.221 71.9486 16.3549 72.0822C16.4888 72.2157 16.6703 72.2907 16.8596 72.2907C17.0489 72.2907 17.2305 72.2157 17.3644 72.0822C17.4982 71.9486 17.5734 71.7675 17.5734 71.5787V71.0249H18.1286C18.3179 71.0249 18.4995 70.9499 18.6334 70.8164C18.7672 70.6829 18.8424 70.5018 18.8424 70.3129C18.8424 70.1241 18.7672 69.943 18.6334 69.8095C18.4995 69.676 18.3179 69.6009 18.1286 69.6009Z" fill="white"/>
<path d="M99.8454 56.0192H99.5567V55.7313C99.5567 55.6331 99.5176 55.5389 99.4479 55.4695C99.3783 55.4 99.2839 55.361 99.1855 55.361C99.087 55.361 98.9926 55.4 98.923 55.4695C98.8534 55.5389 98.8143 55.6331 98.8143 55.7313V56.0192H98.5256C98.4272 56.0192 98.3328 56.0582 98.2631 56.1277C98.1935 56.1971 98.1544 56.2913 98.1544 56.3895C98.1544 56.4877 98.1935 56.5818 98.2631 56.6513C98.3328 56.7207 98.4272 56.7597 98.5256 56.7597H98.8143V57.0477C98.8143 57.1459 98.8534 57.24 98.923 57.3095C98.9926 57.3789 99.087 57.4179 99.1855 57.4179C99.2839 57.4179 99.3783 57.3789 99.4479 57.3095C99.5176 57.24 99.5567 57.1459 99.5567 57.0477V56.7597H99.8454C99.9438 56.7599 100.038 56.721 100.108 56.6517C100.178 56.5824 100.217 56.4883 100.217 56.3901C100.217 56.2919 100.178 56.1977 100.109 56.1281C100.039 56.0586 99.9451 56.0194 99.8467 56.0192H99.8454Z" fill="#FF6584"/>
<path d="M15.616 36.8744H15.3273V36.5865C15.3275 36.4883 15.2886 36.394 15.2191 36.3245C15.1496 36.2549 15.0553 36.2157 14.9568 36.2155C14.9081 36.2155 14.8598 36.2249 14.8147 36.2435C14.7697 36.262 14.7287 36.2892 14.6942 36.3235C14.6244 36.3928 14.5852 36.4869 14.585 36.5851V36.8744H14.2963C14.2475 36.8744 14.1992 36.8838 14.1542 36.9024C14.1091 36.9209 14.0681 36.9481 14.0336 36.9824C13.9991 37.0167 13.9717 37.0575 13.9529 37.1024C13.9342 37.1473 13.9245 37.1954 13.9244 37.244C13.9244 37.2926 13.9339 37.3408 13.9524 37.3858C13.971 37.4307 13.9983 37.4716 14.0327 37.506C14.0671 37.5405 14.108 37.5678 14.153 37.5865C14.198 37.6052 14.2462 37.6148 14.295 37.6149H14.585V37.9029C14.5848 38.0011 14.6237 38.0953 14.6932 38.1649C14.7627 38.2344 14.857 38.2736 14.9555 38.2738C15.0539 38.274 15.1484 38.2352 15.2181 38.1658C15.2879 38.0965 15.3271 38.0024 15.3273 37.9043V37.6149H15.616C15.7145 37.6152 15.809 37.5765 15.8788 37.5072C15.9486 37.438 15.988 37.3439 15.9883 37.2457C15.9885 37.1475 15.9497 37.0533 15.8803 36.9836C15.8109 36.914 15.7166 36.8747 15.6181 36.8744H15.6173L15.616 36.8744Z" fill="#8E8CAF"/>
<path d="M37.0303 36.8744H36.7416V36.5865C36.7418 36.4883 36.7028 36.394 36.6333 36.3245C36.5639 36.2549 36.4695 36.2157 36.3711 36.2155C36.2726 36.2154 36.1782 36.2542 36.1084 36.3235C36.0387 36.3928 35.9994 36.4869 35.9992 36.5851V36.8744H35.7105C35.6121 36.8743 35.5176 36.9131 35.4479 36.9824C35.3781 37.0517 35.3389 37.1458 35.3387 37.244C35.3385 37.3422 35.3775 37.4365 35.4469 37.506C35.5164 37.5756 35.6108 37.6147 35.7092 37.6149H35.9992V37.9029C35.999 38.0011 36.038 38.0953 36.1074 38.1649C36.1769 38.2344 36.2713 38.2736 36.3697 38.2738C36.4681 38.274 36.5626 38.2352 36.6324 38.1658C36.7021 38.0965 36.7414 38.0024 36.7416 37.9043V37.6149H37.0303C37.1287 37.6152 37.2232 37.5765 37.293 37.5072C37.3628 37.438 37.4022 37.3439 37.4025 37.2457C37.4028 37.1475 37.3639 37.0533 37.2945 36.9836C37.2251 36.914 37.1308 36.8747 37.0324 36.8744H37.0316L37.0303 36.8744Z" fill="white"/>
<path d="M110.79 74.8476H110.502V74.5596C110.502 74.4614 110.463 74.3672 110.393 74.2978C110.323 74.2284 110.229 74.1894 110.131 74.1894C110.032 74.1894 109.938 74.2284 109.868 74.2978C109.798 74.3672 109.759 74.4614 109.759 74.5596V74.8476H109.471C109.372 74.8476 109.278 74.8866 109.208 74.956C109.139 75.0254 109.099 75.1196 109.099 75.2178C109.099 75.316 109.139 75.4102 109.208 75.4796C109.278 75.549 109.372 75.588 109.471 75.588H109.759V75.876C109.759 75.9742 109.798 76.0684 109.868 76.1378C109.938 76.2072 110.032 76.2462 110.131 76.2462C110.229 76.2462 110.323 76.2072 110.393 76.1378C110.463 76.0684 110.502 75.9742 110.502 75.876V75.588H110.79C110.889 75.588 110.983 75.549 111.053 75.4796C111.122 75.4102 111.162 75.316 111.162 75.2178C111.162 75.1196 111.122 75.0254 111.053 74.956C110.983 74.8866 110.889 74.8476 110.79 74.8476Z" fill="white"/>
<path d="M77.4794 43.9944H77.1907V43.7064C77.1907 43.6082 77.1516 43.5141 77.082 43.4446C77.0124 43.3752 76.918 43.3362 76.8195 43.3362C76.7211 43.3362 76.6267 43.3752 76.557 43.4446C76.4874 43.5141 76.4483 43.6082 76.4483 43.7064V43.9944H76.1596C76.0612 43.9944 75.9668 44.0334 75.8972 44.1028C75.8276 44.1723 75.7885 44.2664 75.7885 44.3646C75.7885 44.4628 75.8276 44.557 75.8972 44.6264C75.9668 44.6959 76.0612 44.7349 76.1596 44.7349H76.4483V45.0228C76.4483 45.121 76.4874 45.2152 76.557 45.2846C76.6267 45.3541 76.7211 45.3931 76.8195 45.3931C76.918 45.3931 77.0124 45.3541 77.082 45.2846C77.1516 45.2152 77.1907 45.121 77.1907 45.0228V44.7349H77.4794C77.5281 44.735 77.5764 44.7255 77.6215 44.7069C77.6666 44.6884 77.7075 44.6612 77.742 44.6269C77.7766 44.5926 77.804 44.5518 77.8227 44.5069C77.8415 44.462 77.8511 44.4139 77.8512 44.3653C77.8513 44.3167 77.8418 44.2685 77.8232 44.2236C77.8046 44.1786 77.7774 44.1377 77.743 44.1033C77.7086 44.0689 77.6677 44.0415 77.6227 44.0228C77.5777 44.0041 77.5294 43.9945 77.4807 43.9944H77.4794Z" fill="white"/>
<path d="M26.5611 51.9055H26.2724V51.6175C26.2725 51.5193 26.2336 51.4251 26.1641 51.3555C26.0947 51.2859 26.0003 51.2468 25.9019 51.2466C25.8034 51.2464 25.709 51.2852 25.6392 51.3545C25.5695 51.4238 25.5302 51.5179 25.53 51.6161V51.9055H25.2413C25.1429 51.9053 25.0484 51.9441 24.9787 52.0135C24.9089 52.0828 24.8696 52.1769 24.8695 52.2751C24.8693 52.3733 24.9082 52.4675 24.9777 52.537C25.0472 52.6066 25.1416 52.6458 25.24 52.6459H25.53V52.9339C25.5298 53.0321 25.5688 53.1263 25.6382 53.1959C25.7077 53.2655 25.8021 53.3047 25.9005 53.3048C25.9989 53.305 26.0934 53.2662 26.1632 53.1969C26.2329 53.1276 26.2722 53.0335 26.2724 52.9353V52.6459H26.5611C26.6595 52.6461 26.754 52.6073 26.8237 52.538C26.8934 52.4687 26.9327 52.3746 26.9329 52.2764C26.9331 52.1782 26.8941 52.0839 26.8246 52.0144C26.7551 51.9448 26.6608 51.9056 26.5624 51.9055L26.5611 51.9055Z" fill="white"/>
<path d="M27.5128 25.6407H27.2241V25.3528C27.2243 25.2546 27.1854 25.1603 27.1159 25.0908C27.0464 25.0212 26.9521 24.982 26.8536 24.9818C26.7552 24.9816 26.6607 25.0205 26.591 25.0898C26.5212 25.1591 26.4819 25.2532 26.4818 25.3514V25.6407H26.1931C26.0946 25.6405 26.0001 25.6794 25.9304 25.7487C25.8607 25.818 25.8214 25.9121 25.8212 26.0103C25.8211 26.1085 25.86 26.2027 25.9295 26.2723C25.999 26.3418 26.0933 26.381 26.1918 26.3812H26.4818V26.6692C26.4816 26.7674 26.5205 26.8616 26.59 26.9312C26.6595 27.0007 26.7538 27.0399 26.8522 27.0401C26.9507 27.0403 27.0452 27.0014 27.1149 26.9321C27.1847 26.8628 27.2239 26.7687 27.2241 26.6705V26.3812H27.5128C27.6113 26.3814 27.7057 26.3425 27.7755 26.2732C27.8452 26.2039 27.8845 26.1098 27.8846 26.0116C27.8848 25.9134 27.8459 25.8192 27.7764 25.7496C27.7069 25.6801 27.6126 25.6409 27.5141 25.6407L27.5128 25.6407Z" fill="white"/>
<path d="M76.8197 15.4265C65.3296 9.63709 55.6941 11.5183 55.5645 10.5197C55.5647 8.87072 58.8731 7.39974 64.6414 6.48408C64.6619 6.48061 64.683 6.48122 64.7033 6.48588C64.7236 6.49053 64.7428 6.49913 64.7598 6.51119C64.7768 6.52325 64.7912 6.53853 64.8023 6.55616C64.8133 6.57379 64.8208 6.59342 64.8242 6.61393C64.8277 6.63444 64.827 6.65542 64.8224 6.67568C64.8177 6.69594 64.809 6.71508 64.7969 6.73201C64.7848 6.74893 64.7695 6.76331 64.7518 6.77432C64.7341 6.78533 64.7144 6.79275 64.6938 6.79616L64.6932 6.79627L64.6912 6.79658C59.2575 7.6592 55.8819 9.08582 55.8818 10.5197C55.8816 13.0069 65.47 15.109 76.8197 15.11C88.1695 15.111 97.7583 13.0107 97.7585 10.5235C97.7587 9.08356 94.3618 7.65286 88.8934 6.78979C88.8728 6.78665 88.8531 6.77949 88.8352 6.76873C88.8174 6.75796 88.8019 6.7438 88.7896 6.72706C88.7772 6.71031 88.7683 6.69131 88.7634 6.67113C88.7584 6.65095 88.7575 6.62999 88.7606 6.60945C88.7638 6.58891 88.7709 6.56919 88.7817 6.55141C88.7925 6.53364 88.8067 6.51816 88.8235 6.50586C88.8403 6.49355 88.8593 6.48467 88.8796 6.47971C88.8998 6.47475 88.9208 6.47382 88.9414 6.47696L88.9419 6.47704L88.943 6.47722C94.7472 7.39331 98.0759 8.86812 98.0758 10.5235C98.0755 13.2739 87.4585 20.7869 76.8197 15.4265Z" fill="#3F3D56"/>
</g>
<defs>
<clipPath id="clip0_105_682">
<rect width="124" height="101" fill="white"/>
</clipPath>
</defs>
</svg>
