<svg width="183" height="104" viewBox="0 0 183 104" fill="none" xmlns="http://www.w3.org/2000/svg">
<g clip-path="url(#clip0_172_349)">
<path d="M111.367 104C147.127 104 176.115 98.8406 176.115 92.4764C176.115 86.1121 147.127 80.9529 111.367 80.9529C75.6077 80.9529 46.6189 86.1121 46.6189 92.4764C46.6189 98.8406 75.6077 104 111.367 104Z" fill="#F0F0F0"/>
<path d="M171.569 70.4265H50.2216V49.6968H52.0936V34.2673C52.0977 30.632 53.5347 27.1468 56.0893 24.5762C58.6439 22.0057 62.1075 20.5598 65.7203 20.5557H156.291C159.904 20.5598 163.367 22.0057 165.922 24.5763C168.477 27.1468 169.914 30.632 169.918 34.2673V49.6968H171.569V70.4265Z" fill="#9591DC"/>
<path d="M174.857 93.2426H168.817V93.1318C168.811 87.7559 166.686 82.6019 162.908 78.8005C159.13 74.9992 154.008 72.8609 148.665 72.8549H73.1258C67.7832 72.8609 62.6612 74.9992 58.8834 78.8005C55.1056 82.6019 52.9806 87.7559 52.9746 93.1318V93.2426H46.9338C45.5575 93.241 44.238 92.6902 43.2649 91.711C42.2917 90.7317 41.7443 89.404 41.7427 88.0192V54.1331C39.9886 53.1359 38.5619 47.7198 39.4886 43.3943C40.0702 40.6799 41.7491 37.4017 46.4448 37.1987C51.0158 37.0009 54.4087 41.3191 54.7117 45.4758C54.876 47.6631 54.2376 49.8352 52.9173 51.5807H52.9746V56.4148C62.8869 53.2185 72.8132 51.592 82.48 51.5807C92.372 51.5904 102.195 53.2354 111.557 56.4501C131.022 50.115 150.286 49.9918 168.817 56.0851V51.5807H168.874C167.554 49.8352 166.915 47.6631 167.079 45.4758C167.412 40.9165 171.118 37.2034 175.342 37.1986H175.356C180.336 37.1986 182.097 40.2155 182.698 42.7477C183.761 47.2291 181.809 53.1276 180.048 54.133V88.0192C180.047 89.404 179.499 90.7317 178.526 91.711C177.553 92.6902 176.234 93.241 174.857 93.2426Z" fill="#B6B3EA"/>
<path d="M37.5894 60.7866H0.590454V63.9999H1.25115V93.1411H4.99509V63.9999H33.405V93.1411H37.149V63.9999H37.5894V60.7866Z" fill="#302C71"/>
<path d="M132.313 58.2979C132.313 58.2979 134.13 55.2995 136.461 57.0724C138.793 58.8452 143.112 61.8365 143.112 61.8365C143.112 61.8365 143.996 63.7497 141.707 63.0311C139.418 62.3124 131.944 61.1559 131.944 61.1559L132.313 58.2979Z" fill="#9E616A"/>
<path d="M123.391 62.0247C121.437 62.0247 119.648 61.8363 118.226 61.3909C116.536 60.8615 115.476 60.0054 115.073 58.8445C114.883 58.3516 114.827 57.817 114.909 57.2951C114.991 56.7731 115.208 56.2822 115.54 55.8721C118.039 52.5949 126.713 51.6705 127.877 51.5613L130.238 47.0626C130.389 45.9892 129.674 45.1766 130.909 45.1563L145.517 44.9567C146.73 44.931 146.385 45.6867 146.593 46.7333L148.819 50.7312L139.24 54.799L140.688 58.35L140.594 58.4052C137.79 60.0415 129.728 62.0244 123.391 62.0247Z" fill="#2F2E41"/>
<path d="M147.493 50.9017C147.493 50.9017 160.87 49.3613 159.998 55.523C159.125 61.6847 148.947 66.0493 133.534 55.523L135.279 52.4421C135.279 52.4421 141.022 52.1547 144.512 50.6143L147.493 50.9017Z" fill="#2F2E41"/>
<path d="M146.256 19.7186L141.447 17.9086L132.126 17.7876L128.113 19.7186L129.24 26.2358C129.24 26.2358 126.965 30.1127 129.47 33.9899L130.032 47.8055C130.032 47.8055 139.019 53.0496 146.605 46.7523L144.891 33.9071C144.891 33.9071 147.759 27.9474 145.536 25.7333L146.256 19.7186Z" fill="#3F3D56"/>
<path d="M143.855 56.801C143.855 56.801 142.357 53.6295 139.856 55.1498C137.354 56.6702 132.751 59.1954 132.751 59.1954C132.751 59.1954 131.674 61.0063 134.025 60.53C136.376 60.0537 143.928 59.6821 143.928 59.6821L143.855 56.801Z" fill="#9E616A"/>
<path d="M141.509 46.3222H132.126C131.89 46.3222 131.664 46.2278 131.497 46.0598C131.33 45.8918 131.236 45.6639 131.236 45.4263L130.823 33.073C130.823 32.8353 130.916 32.6074 131.083 32.4394C131.25 32.2714 131.477 32.177 131.713 32.177H141.922C142.159 32.177 142.385 32.2714 142.552 32.4394C142.719 32.6074 142.813 32.8353 142.813 33.073L142.399 45.4263C142.399 45.6639 142.306 45.8918 142.139 46.0598C141.972 46.2278 141.745 46.3222 141.509 46.3222Z" fill="white"/>
<path d="M136.818 36.7535C137.274 36.7535 137.645 36.381 137.645 35.9214C137.645 35.4619 137.274 35.0894 136.818 35.0894C136.361 35.0894 135.991 35.4619 135.991 35.9214C135.991 36.381 136.361 36.7535 136.818 36.7535Z" fill="#6C63FF"/>
<path d="M137.076 41.4051C136.931 41.1091 136.724 40.8485 136.469 40.6417C136.214 40.4349 135.916 40.287 135.598 40.2083C135.28 40.1296 134.948 40.1221 134.627 40.1863C134.305 40.2505 134.002 40.3849 133.738 40.5799L129.356 37.9084L127.094 40.1915L133.333 43.8767C133.688 44.3017 134.186 44.5809 134.732 44.6615C135.278 44.742 135.834 44.6182 136.296 44.3135C136.757 44.0089 137.091 43.5445 137.235 43.0085C137.379 42.4725 137.322 41.902 137.076 41.4051Z" fill="#9E616A"/>
<path d="M136.865 40.3993C137.061 40.1352 137.313 39.9177 137.602 39.762C137.891 39.6063 138.21 39.5163 138.537 39.4982C138.865 39.4801 139.192 39.5345 139.496 39.6574C139.8 39.7804 140.074 39.9689 140.297 40.2098L145.094 38.4001L146.898 41.0651L140.088 43.5249C139.661 43.8765 139.121 44.0583 138.57 44.0357C138.018 44.0132 137.494 43.788 137.097 43.4027C136.7 43.0174 136.457 42.4989 136.414 41.9453C136.371 41.3918 136.532 40.8417 136.865 40.3993Z" fill="#9E616A"/>
<path d="M145.738 19.6648C145.738 19.6648 148.853 19.038 149.683 21.754C150.514 24.4699 154.666 34.498 153.42 35.9605C152.175 37.4229 147.607 41.3923 146.154 42.228C144.7 43.0637 144.077 43.0637 144.077 43.0637L142.209 43.8994L141.586 39.0942L143.717 37.824L146.984 35.1248L145.115 29.484L145.738 19.6648Z" fill="#3F3D56"/>
<path d="M128.474 19.7534C128.474 19.7534 125.36 19.1267 124.53 21.8426C123.699 24.5586 119.547 34.5866 120.792 36.0491C122.038 37.5115 126.606 41.481 128.059 42.3166C129.513 43.1523 130.135 43.1523 130.135 43.1523L132.004 43.988L132.627 39.1829L130.496 37.9127L127.229 35.2134L130.239 27.7968L128.474 19.7534Z" fill="#3F3D56"/>
<path d="M137.154 15.9764C141.117 15.9764 144.331 12.7432 144.331 8.75482C144.331 4.76643 141.117 1.5332 137.154 1.5332C133.19 1.5332 129.977 4.76643 129.977 8.75482C129.977 12.7432 133.19 15.9764 137.154 15.9764Z" fill="#9E616A"/>
<path d="M144.293 3.47249C143.813 2.42091 142.958 1.58942 141.897 1.14327C140.845 0.716458 139.67 0.717491 138.619 1.14615C137.67 0.542965 136.616 0.0647744 135.506 0.00554802C134.396 -0.0536784 133.222 0.360784 132.537 1.2731C132.385 1.51393 132.211 1.74077 132.019 1.95101C131.469 2.46349 130.633 2.38957 129.902 2.28478C130.23 2.56754 130.558 2.8503 130.886 3.13305C130.489 3.23737 130.092 3.3417 129.695 3.44604C130.158 3.7287 130.622 4.01136 131.085 4.29403C129.74 5.1061 129.129 6.87856 129.29 8.48832C129.443 10.0124 130.174 11.4061 131.049 12.6448C131.397 11.9043 131.322 11.0183 131.316 10.1843C131.31 9.30318 131.465 8.30258 132.167 7.81011C132.64 7.47791 133.249 7.46307 133.82 7.46623C136.699 7.48212 139.575 7.66279 142.434 8.00735C142.822 8.02424 143.2 8.13462 143.537 8.32922C144.169 8.76321 144.292 9.65884 144.356 10.4446C144.69 9.1472 144.853 7.81135 144.842 6.47119C144.833 5.44546 144.716 4.3989 144.293 3.47249Z" fill="#2F2E41"/>
<path d="M87.6605 72.2743C87.6605 72.2743 88.9252 75.2849 91.313 73.9735C93.7009 72.6622 98.0833 70.5024 98.0833 70.5024C98.0833 70.5024 99.1577 68.8626 96.9523 69.2092C94.7469 69.5559 87.7093 69.5922 87.7093 69.5922L87.6605 72.2743Z" fill="#FEB8B8"/>
<path d="M69.8056 8.91582C70.2635 9.37293 70.5256 9.99201 70.5361 10.6409C70.5466 11.2898 70.3046 11.9172 69.8617 12.389C69.7702 12.4833 69.671 12.5698 69.5652 12.6476L72.0485 20.9773L67.8227 19.6473L66.1123 11.9412C65.8236 11.4759 65.6966 10.9274 65.751 10.3816C65.8054 9.83577 66.0383 9.32357 66.4131 8.92527C66.6333 8.69696 66.8966 8.51528 67.1875 8.39093C67.4785 8.26658 67.7913 8.20206 68.1074 8.20118C68.4235 8.2003 68.7366 8.26308 69.0283 8.38581C69.3199 8.50854 69.5842 8.68875 69.8056 8.91582Z" fill="#FFB6B6"/>
<path d="M87.7488 70.5345L90.4037 69.5929L87.9774 58.6104L84.0588 60.0003L87.7488 70.5345Z" fill="#FEB8B8"/>
<path d="M97.5194 67.6858C97.5194 67.6858 99.8399 69.9729 101.541 67.8366C103.241 65.7002 106.457 62.0073 106.457 62.0073C106.457 62.0073 106.82 60.0774 104.918 61.2529C103.016 62.4283 96.5368 65.1921 96.5368 65.1921L97.5194 67.6858Z" fill="#FEB8B8"/>
<path d="M96.9343 66.046L99.0232 64.1473L92.5763 54.9553L89.4933 57.758L96.9343 66.046Z" fill="#FEB8B8"/>
<path d="M71.2045 17.4487L71.6893 18.9319L73.8689 25.5935C74.0182 26.0325 74.0799 26.4968 74.0507 26.9599C74.0215 27.4229 73.9018 27.8756 73.6986 28.292C73.4954 28.7085 73.2127 29.0806 72.8665 29.387C72.5203 29.6935 72.1174 29.9283 71.681 30.0779C70.8739 30.3434 69.9976 30.2985 69.2214 29.9518L56.956 24.335C56.4731 24.1205 56.0419 23.8036 55.6919 23.406C55.342 23.0083 55.0814 22.5394 54.9282 22.0311C54.7749 21.5229 54.7325 20.9873 54.8039 20.461C54.8752 19.9348 55.0587 19.4302 55.3417 18.9818C55.8189 18.2286 56.5633 17.6865 57.4236 17.4659C58.2838 17.2454 59.1953 17.3629 59.9725 17.7946L68.4748 22.6515L67.5148 18.0451L71.2045 17.4487Z" fill="#6C63FF"/>
<path d="M90.5062 65.338L86.3173 67.2788L77.7849 50.4993C70.4701 54.6082 63.2753 57.6449 56.3503 58.268C55.2101 58.3607 54.0795 57.9983 53.2027 57.259C52.3259 56.5197 51.7734 55.4629 51.6646 54.3171C51.6531 54.2049 51.6459 54.0924 51.6429 53.9796C51.5856 51.3753 52.0492 48.3984 52.7182 45.2744L64.4989 45.422L65.46 46.9023L76.0809 41.507C76.5958 41.2517 77.156 41.1014 77.7289 41.0649C78.3019 41.0284 78.8764 41.1064 79.4193 41.2943C79.9622 41.4822 80.4627 41.7765 80.8921 42.16C81.3215 42.5435 81.6712 43.0087 81.921 43.5288C81.9786 43.645 82.0311 43.7636 82.0786 43.8846L90.5062 65.338Z" fill="#2F2E41"/>
<path d="M95.791 59.2933L91.6021 61.234L78.09 47.8589C70.7753 51.9678 63.5804 55.0045 56.6555 55.6276C55.5153 55.7204 54.3846 55.3579 53.5078 54.6186C52.631 53.8793 52.0785 52.8226 51.9697 51.6767C51.9582 51.5645 51.951 51.452 51.948 51.3393C51.8908 48.7349 52.3543 45.758 53.0233 42.634L65.4888 39.3659L65.7651 44.262L76.386 38.8666C76.901 38.6113 77.4611 38.461 78.0341 38.4245C78.607 38.388 79.1815 38.466 79.7244 38.6539C80.2673 38.8419 80.7679 39.1361 81.1972 39.5196C81.6266 39.9031 81.9763 40.3683 82.2262 40.8884C82.2837 41.0047 82.3362 41.1233 82.3837 41.2442L95.791 59.2933Z" fill="#2F2E41"/>
<path d="M57.2264 14.6816C60.1618 13.6406 61.6841 10.3489 60.6266 7.32936C59.569 4.3098 56.3321 2.70583 53.3967 3.74678C50.4613 4.78773 48.939 8.07943 49.9965 11.099C51.0541 14.1185 54.291 15.7225 57.2264 14.6816Z" fill="#FFB6B6"/>
<path d="M64.5318 16.0582C64.513 16.1745 64.5398 16.2935 64.6065 16.3903C64.6732 16.4871 64.7746 16.554 64.8894 16.5771C65.0377 16.5444 69.1368 17.5276 69.1451 17.2456C69.1924 17.2113 69.2324 17.1677 69.2627 17.1176C69.2931 17.0675 69.3131 17.0118 69.3217 16.9537L71.1508 4.92325C71.1609 4.85727 71.1564 4.78988 71.1378 4.72583C71.1191 4.66179 71.0867 4.60265 71.0428 4.5526C71.1001 4.23904 66.8958 4.60517 66.7369 4.57355C66.6372 4.5778 66.5421 4.61684 66.4679 4.68397C66.3937 4.75109 66.3451 4.84212 66.3303 4.94142L64.5318 16.0582Z" fill="#3F3D56"/>
<path d="M70.3041 4.98332C70.3041 4.98332 66.7585 5.21349 66.7992 5.15532C66.7106 5.18275 66.4899 5.11832 66.4796 5.26895L64.8018 15.8458C64.6638 16.1124 68.6015 16.4934 68.663 16.5772C68.9896 16.6517 70.3018 5.227 70.43 5.12524C70.4348 5.09329 70.427 5.06073 70.4082 5.03449C70.3895 5.00825 70.3613 4.99041 70.3297 4.98477C70.3212 4.98335 70.3127 4.98286 70.3041 4.98332Z" fill="#6C63FF"/>
<path d="M61.2575 16.6431C61.2625 16.5041 61.2491 16.3652 61.2177 16.2298C61.1288 15.8338 60.8879 15.4893 60.5476 15.2714C60.2073 15.0535 59.7951 14.9798 59.401 15.0665L56.8322 15.6636C56.6385 15.7106 56.4561 15.7957 56.2953 15.914C56.1345 16.0323 55.9985 16.1814 55.8952 16.3528C55.7919 16.5242 55.7233 16.7144 55.6934 16.9126C55.6634 17.1108 55.6727 17.3129 55.7208 17.5075C55.8013 17.854 55.9969 18.1626 56.2751 18.3824C55.0573 18.9717 54.0376 19.9069 53.342 21.0726C52.6464 22.2384 52.3052 23.5835 52.3606 24.9421C51.5182 30.3736 51.6104 36.2776 52.9744 42.8261L65.7804 44.1778L66.8091 33.7038L67.1849 32.0781C67.2873 31.8448 67.3826 31.6144 67.4685 31.3837C67.9889 30.0919 68.2893 28.7211 68.3568 27.3288C68.3956 26.3343 68.2749 25.34 67.9992 24.3842C67.1167 21.3271 64.6671 18.8181 61.2575 16.6431Z" fill="#6C63FF"/>
<path opacity="0.2" d="M68.3568 27.3287C68.2892 28.7209 67.9889 30.0918 67.4685 31.3836C67.3826 31.6142 67.2874 31.8447 67.1849 32.078L66.8091 33.7037C62.891 32.4651 57.1562 24.1514 57.1562 24.1514L60.4134 22.2268L68.3568 27.3287Z" fill="black"/>
<path d="M65.483 12.3278C65.3622 12.9656 65.4934 13.6258 65.8489 14.1678C66.2044 14.7097 66.756 15.0907 67.3864 15.2297C67.5149 15.2559 67.6454 15.2714 67.7766 15.2759L70.4004 23.5621L73.1459 20.076L70.2334 12.7417C70.2101 12.1932 70.0069 11.6679 69.6557 11.2478C69.3044 10.8276 68.8249 10.5363 68.2918 10.4193C67.9825 10.3545 67.6634 10.3528 67.3534 10.4142C67.0434 10.4756 66.7488 10.5989 66.4869 10.7768C66.2251 10.9547 66.0014 11.1836 65.8289 11.45C65.6565 11.7164 65.5389 12.0149 65.483 12.3278Z" fill="#FFB6B6"/>
<path d="M69.0064 20.5773L73.081 19.7566L75.7458 27.9009C75.9382 28.4811 75.9799 29.1012 75.867 29.7022C75.7541 30.3032 75.4903 30.8651 75.1007 31.3347C74.6236 31.9046 73.9752 32.303 73.2534 32.4698C72.5316 32.6366 71.7755 32.5628 71.0989 32.2596L58.8332 26.642C57.9732 26.2553 57.2932 25.5517 56.9329 24.676C56.5727 23.8002 56.5597 22.8188 56.8965 21.9337C57.0624 21.4936 57.3146 21.0915 57.6379 20.7513C57.9612 20.4111 58.3492 20.1398 58.7787 19.9534C59.2083 19.7669 59.6707 19.6693 60.1385 19.6661C60.6062 19.6629 61.0699 19.7544 61.5019 19.935C61.6209 19.9843 61.7373 20.0401 61.8503 20.102L70.3514 24.9589L69.0064 20.5773Z" fill="#6C63FF"/>
<path d="M57.764 1.37914C56.3929 1.10955 55.0099 1.59823 53.7056 2.07964C52.7606 2.42843 51.8156 2.77723 50.8705 3.12602C49.7235 3.5494 48.5187 4.01363 47.7546 4.98266C46.9906 5.9517 46.897 7.59367 47.8884 8.34398C45.3576 7.30472 42.3756 8.05624 40.2573 9.76286C39.1915 10.5834 38.3693 11.682 37.8801 12.9394C37.3824 14.3185 37.4108 15.8569 37.7128 17.3052C38.0147 18.7535 38.5779 20.1323 39.1378 21.5013C39.4899 22.362 39.935 23.3158 40.7958 23.621C41.59 23.9025 42.4702 23.5054 43.0728 22.9194C44.1236 21.8977 44.5661 20.3805 44.7775 18.9055C44.9889 17.4304 45.0136 15.9162 45.4194 14.4871C45.8254 13.0579 46.7069 11.6704 48.0741 11.1671C47.6177 12.8608 48.1409 14.9016 49.5828 15.8865C50.6197 16.5948 51.9646 16.6765 53.1677 16.3917C54.3707 16.107 55.4668 15.4929 56.5458 14.8854C57.2764 14.4742 58.1043 13.9011 58.0931 13.0425C58.0821 12.2006 57.2746 11.6328 56.777 10.9555C55.8166 9.6484 56.1203 7.5713 57.408 6.6396L57.2503 6.56496C58.4988 6.31395 59.8673 5.65081 60.1328 4.37723C60.4227 2.98697 59.135 1.64875 57.764 1.37914Z" fill="#2F2E41"/>
<path d="M59.7744 59.9004C58.5458 59.8997 57.3284 59.6659 56.186 59.2112C55.0406 58.767 53.9941 58.0987 53.1068 57.2451C52.2196 56.3915 51.5092 55.3694 51.0168 54.2379L43.9533 37.9038C41.9225 33.2076 44.1985 27.7798 49.0271 25.8044L49.1471 25.7554L63.5768 59.1237L63.4568 59.1728C62.2876 59.6525 61.0371 59.8996 59.7744 59.9004Z" fill="#3F3D56"/>
<path d="M162.855 58.3013C161.788 58.3011 160.732 58.0859 159.749 57.6686L159.648 57.6256L171.858 28.4146L171.959 28.4575C173.923 29.2912 175.478 30.8745 176.282 32.8602C177.087 34.8459 177.076 37.0718 176.252 39.0495L170.276 53.3486C169.66 54.817 168.628 56.0702 167.308 56.9511C165.988 57.8321 164.439 58.3017 162.855 58.3013Z" fill="#3F3D56"/>
<path d="M0.00369382 49.2137C0.0105655 49.1676 0.0269811 49.1235 0.0518797 49.0843C0.0767782 49.045 0.109603 49.0115 0.148221 48.9858L11.7705 41.2653C11.5954 41.1918 11.4489 41.0626 11.3534 40.8976C11.2373 40.6938 11.2059 40.4521 11.2664 40.2253C11.3268 39.9984 11.474 39.8048 11.6758 39.6867L12.6294 39.1327C12.8319 39.0159 13.0721 38.9844 13.2976 39.0452C13.523 39.106 13.7154 39.2541 13.8327 39.4572C13.8961 39.5688 13.9342 39.6931 13.9443 39.8212L22.3338 34.2482C22.6156 33.5616 23.0427 32.945 23.5855 32.4415C24.1283 31.938 24.7737 31.5596 25.4766 31.3327V28.8755H28.5599V31.3327C29.5828 31.6619 30.4754 32.3096 31.1087 33.1823C31.7421 34.0551 32.0835 35.1078 32.0836 36.1885V36.8533H29.0003C29.0003 37.3823 28.7915 37.8896 28.4198 38.2636C28.0481 38.6376 27.5439 38.8478 27.0183 38.8478C26.4926 38.8478 25.9884 38.6376 25.6167 38.2636C25.245 37.8896 25.0362 37.3823 25.0362 36.8533H21.9529V36.1885C21.9532 35.8698 21.9831 35.5518 22.0421 35.2387L0.818495 49.3372L9.63466 60.1229C9.70315 60.1226 9.77123 60.1219 9.84016 60.1219C10.5435 60.1219 11.2251 60.1387 11.8745 60.1675C11.8353 60.0579 11.8182 59.9416 11.8242 59.8254C11.837 59.5908 11.9415 59.3709 12.115 59.2137C12.2884 59.0565 12.5166 58.9747 12.7497 58.9863L13.8494 59.0439C14.0825 59.0568 14.301 59.162 14.4573 59.3365C14.6135 59.511 14.6948 59.7407 14.6833 59.9753C14.6752 60.1139 14.6343 60.2485 14.564 60.3679C16.5084 60.5759 17.7685 60.8625 17.7685 61.0084C17.7685 61.2473 14.385 61.0198 10.1502 61.0089C10.1308 61.0643 10.097 61.1135 10.0525 61.1515C10.0079 61.1895 9.95413 61.2148 9.89661 61.225C9.8391 61.2351 9.77994 61.2297 9.72519 61.2093C9.67045 61.1888 9.62209 61.1541 9.58508 61.1087L9.50346 61.0089C5.2811 61.0208 1.9118 61.2468 1.9118 61.0084C1.9118 60.7835 4.90741 60.2242 8.78878 60.1345L0.0751005 49.4743C0.045722 49.4384 0.0241844 49.3966 0.0118833 49.3516C-0.000417797 49.3067 -0.00320674 49.2597 0.00369382 49.2137Z" fill="#302C71"/>
<path d="M29.9181 60.1996V45.045C29.9181 44.5951 30.6097 44.229 31.4597 44.229C32.3098 44.229 33.0014 44.5951 33.0014 45.045V60.1996C33.0014 60.6496 32.3098 61.0157 31.4597 61.0157C30.6097 61.0157 29.9181 60.6496 29.9181 60.1996Z" fill="#302C71"/>
<path d="M26.2292 60.1996V45.045C26.2292 44.5951 26.9208 44.229 27.7709 44.229C28.6209 44.229 29.3125 44.5951 29.3125 45.045V60.1996C29.3125 60.6496 28.6209 61.0157 27.7709 61.0157C26.9208 61.0157 26.2292 60.6496 26.2292 60.1996Z" fill="#302C71"/>
<path d="M22.5403 60.1996V45.045C22.5403 44.5951 23.2319 44.229 24.082 44.229C24.932 44.229 25.6236 44.5951 25.6236 45.045V60.1996C25.6236 60.6496 24.932 61.0157 24.082 61.0157C23.2319 61.0157 22.5403 60.6496 22.5403 60.1996Z" fill="#302C71"/>
</g>
<defs>
<clipPath id="clip0_172_349">
<rect width="183" height="104" fill="white"/>
</clipPath>
</defs>
</svg>
