<svg width="154" height="134" viewBox="0 0 154 134" fill="none" xmlns="http://www.w3.org/2000/svg">
<g clip-path="url(#clip0_172_285)">
<path d="M25.5429 46.6478C25.1826 46.6841 24.8201 46.6925 24.4585 46.6731C24.3968 46.6663 24.335 46.684 24.2863 46.7224C24.2376 46.7607 24.206 46.8165 24.1981 46.8779L23.5064 52.0551C23.4532 52.4309 23.299 52.7853 23.0601 53.0807C22.8632 53.3158 22.7168 53.5888 22.6301 53.8827C22.5433 54.1766 22.518 54.4851 22.5558 54.7892V63.5836C22.5558 63.5836 22.5112 64.7562 23.4142 64.7562C24.4949 64.8917 25.5883 64.8917 26.6691 64.7562C26.6691 64.7562 27.392 64.6196 27.392 63.5376V54.8782C27.4472 54.5761 27.4358 54.2656 27.3588 53.9683C27.2817 53.671 27.1408 53.394 26.9457 53.1564C26.7149 52.86 26.5657 52.5085 26.5129 52.1367L25.7943 46.8512C25.7862 46.7918 25.7556 46.7377 25.7089 46.6999C25.6622 46.6621 25.6029 46.6435 25.5429 46.6478Z" fill="white"/>
<path d="M25.0384 65.0059C24.4922 65.006 23.9466 64.9721 23.4046 64.9045C23.2835 64.9074 23.1631 64.8852 23.051 64.8395C22.9389 64.7937 22.8375 64.7252 22.7531 64.6385C22.3856 64.2577 22.4061 63.6055 22.4071 63.5779L22.407 54.7982C22.3687 54.4754 22.3967 54.1481 22.4894 53.8365C22.582 53.5249 22.7374 53.2353 22.9459 52.9856C23.167 52.7115 23.3098 52.3828 23.3591 52.0343L24.0507 46.8582C24.0641 46.7587 24.1159 46.6683 24.1951 46.6062C24.2742 46.5441 24.3745 46.5151 24.4746 46.5255C24.8259 46.544 25.1781 46.5355 25.528 46.5001L25.5322 46.4998C25.6299 46.4927 25.7266 46.523 25.8026 46.5845C25.8787 46.6461 25.9284 46.7342 25.9417 46.831L26.6603 52.1168C26.7097 52.4626 26.8485 52.7895 27.0632 53.0653C27.27 53.3174 27.4197 53.6111 27.5021 53.9262C27.5845 54.2414 27.5977 54.5707 27.5408 54.8914V63.5375C27.5408 64.7287 26.7052 64.9004 26.6967 64.902C26.1467 64.9712 25.5928 65.0059 25.0384 65.0059ZM24.4382 46.8206C24.4161 46.8196 24.3944 46.8268 24.3773 46.8408C24.3602 46.8548 24.3489 46.8747 24.3457 46.8966L23.6538 52.0747C23.5969 52.4775 23.4318 52.8573 23.1759 53.1739C22.9919 53.3938 22.8551 53.6489 22.7739 53.9236C22.6926 54.1982 22.6686 54.4866 22.7034 54.7709L22.7046 54.7891V63.5835C22.7043 63.5945 22.6885 64.1444 22.9681 64.4333C23.026 64.4921 23.0956 64.538 23.1725 64.568C23.2493 64.5981 23.3317 64.6116 23.4142 64.6078L23.4327 64.6089C24.5011 64.7427 25.5821 64.7427 26.6505 64.6089C26.6646 64.6054 27.2433 64.4738 27.2433 63.5375L27.2457 54.8516C27.2972 54.5707 27.2867 54.2819 27.2151 54.0054C27.1434 53.7289 27.0122 53.4713 26.8307 53.2505C26.5828 52.9328 26.4225 52.5561 26.3656 52.1576L25.6469 46.8711C25.6438 46.8494 25.6326 46.8297 25.6157 46.8157C25.5987 46.8018 25.5772 46.7947 25.5552 46.7958C25.1882 46.8324 24.8188 46.8409 24.4505 46.8213C24.4464 46.8209 24.4423 46.8206 24.4382 46.8206Z" fill="#3F3D56"/>
<path d="M24.451 54.9465H25.5474C25.9834 54.9465 26.4015 55.1193 26.7097 55.4269C27.018 55.7345 27.1912 56.1517 27.1912 56.5867V60.7026C27.1912 61.1376 27.018 61.5548 26.7097 61.8624C26.4015 62.17 25.9834 62.3427 25.5474 62.3427H24.451C24.0151 62.3427 23.597 62.17 23.2887 61.8624C22.9804 61.5548 22.8072 61.1376 22.8072 60.7026V56.5867C22.8072 56.3713 22.8497 56.158 22.9323 55.959C23.015 55.76 23.136 55.5792 23.2887 55.4269C23.4413 55.2746 23.6225 55.1538 23.822 55.0714C24.0214 54.989 24.2352 54.9465 24.451 54.9465Z" fill="#6C63FF"/>
<path d="M4.29476 130.543H7.86917L9.56968 116.787L4.29413 116.787L4.29476 130.543Z" fill="#9F616A"/>
<path d="M3.38303 129.378L10.4223 129.378H10.4226C11.6124 129.378 12.7533 129.85 13.5946 130.689C14.4359 131.529 14.9085 132.667 14.9086 133.854V134L3.38324 134L3.38303 129.378Z" fill="#2F2E41"/>
<path d="M2.04764 81.4087C2.04764 81.4087 0.498518 83.1559 3.06363 89.9667L2.61181 127.312L10.9245 127.15L12.7518 108.933L16.0786 82.3501L2.04764 81.4087Z" fill="#2F2E41"/>
<path d="M18.9296 86.572L18.8386 86.5582C8.20433 84.9399 0.179507 83.3885 0.0996882 83.3731L0 83.3538L2.7877 76.5886C2.76568 75.8816 2.16224 56.0303 3.31741 50.3268C4.4357 44.8055 9.70691 43.9006 10.3076 43.8155L10.9107 41.8215L18.5307 45.7778L19.8597 50.3415L20.1297 62.8494L18.9296 86.572Z" fill="#3F3D56"/>
<path d="M23.519 60.8279C23.1759 60.8278 22.8364 60.8986 22.5221 61.0358C22.2077 61.173 21.9251 61.3736 21.6922 61.625H8.88429L4.19281 62.6214L4.96308 68.5492L21.652 64.968C21.9283 65.2794 22.2784 65.5167 22.6703 65.6584C23.0621 65.8 23.4833 65.8414 23.8954 65.7789C24.3074 65.7163 24.6972 65.5518 25.0292 65.3003C25.3611 65.0488 25.6246 64.7184 25.7956 64.3391C25.9666 63.9599 26.0397 63.5439 26.0082 63.1293C25.9767 62.7146 25.8416 62.3144 25.6152 61.9652C25.3888 61.6161 25.0783 61.329 24.7122 61.1304C24.346 60.9317 23.9358 60.8277 23.519 60.8279Z" fill="#9F616A"/>
<path d="M23.6302 39.5806C25.2654 36.596 24.166 32.8538 21.1747 31.2222C18.1833 29.5907 14.4328 30.6876 12.7976 33.6722C11.1624 36.6569 12.2617 40.3991 15.2531 42.0306C18.2444 43.6622 21.9949 42.5653 23.6302 39.5806Z" fill="#9F616A"/>
<path d="M12.4083 31.7026L12.1091 31.1016L13.6148 30.3552C13.6148 30.3552 15.2759 27.6584 18.2817 28.4163C21.2875 29.1741 22.6399 29.6277 22.6399 29.6277L24.1418 30.3817L23.388 31.1301L24.7403 31.5836L23.8369 32.0315L24.8881 32.6344L24.3222 35.7248C24.3222 35.7248 23.3823 33.3808 21.5754 34.2766C19.7685 35.1723 16.4634 33.8135 16.4634 33.8135L13.592 39.3581C13.592 39.3581 12.9997 37.4145 11.9435 37.9327C11.9435 37.9327 9.24529 33.6453 12.4083 31.7026Z" fill="#2F2E41"/>
<path d="M5.04507 69.6602L3.58037 65.313L3.22607 50.8221L3.85015 48.7661C4.07478 48.0261 4.44683 47.339 4.94399 46.7459C5.44116 46.1528 6.05321 45.666 6.74347 45.3146C7.43373 44.9632 8.18798 44.7544 8.96104 44.7008C9.7341 44.6472 10.51 44.7499 11.2424 45.0027C11.9747 45.2555 12.6483 45.6532 13.2229 46.172C13.7975 46.6908 14.2612 47.32 14.5862 48.0219C14.9113 48.7238 15.0909 49.4839 15.1145 50.2568C15.138 51.0296 15.0049 51.7992 14.7232 52.5195L11.3782 61.072L11.5482 61.4013L18.7952 61.3428L21.3694 65.966L5.04507 69.6602Z" fill="#3F3D56"/>
<path d="M77.5522 67.8741C77.8226 67.6923 78.0499 67.4536 78.2179 67.1748C78.3858 66.8959 78.4905 66.5837 78.5245 66.2601C78.5585 65.9365 78.5209 65.6095 78.4145 65.3019C78.3081 64.9944 78.1354 64.7139 77.9085 64.4801L81.4807 57.4202L77.3892 57.8937L74.6243 64.5254C74.256 64.9316 74.0499 65.4585 74.0449 66.0063C74.04 66.554 74.2366 67.0845 74.5975 67.4973C74.9584 67.9101 75.4585 68.1764 76.0031 68.2459C76.5477 68.3153 77.0988 68.183 77.5522 67.8741Z" fill="#FFB7B7"/>
<path d="M106.2 117.883L102.981 117.883L101.45 105.493L106.201 105.494L106.2 117.883Z" fill="#FFB7B7"/>
<path d="M107.021 120.997L96.641 120.996V120.865C96.6411 119.796 97.0668 118.771 97.8245 118.015C98.5822 117.259 99.6098 116.834 100.681 116.834H100.682L107.022 116.834L107.021 120.997Z" fill="#2F2E41"/>
<path d="M88.6069 117.883L85.3875 117.883L83.856 105.493L88.6075 105.494L88.6069 117.883Z" fill="#FFB7B7"/>
<path d="M88.6401 120.997L78.2597 120.996V120.865C78.2598 119.796 78.6855 118.771 79.4432 118.015C80.2009 117.259 81.2285 116.834 82.3 116.834H82.3003L88.6403 116.834L88.6401 120.997Z" fill="#2F2E41"/>
<path d="M88.343 65.5552L85.192 72.7984L82.5927 114.431L89.1573 114.169L90.9503 94.3224L96.4813 76.646L99.6609 96.3524L100.974 113.645L106.406 113.879L108.571 65.5552H88.343Z" fill="#2F2E41"/>
<path d="M104.094 29.814L94.9614 30.0419L89.5995 32.7884L89.3053 53.0511L85.9611 67.0408C85.9611 67.0408 106.856 68.4756 109.744 66.3796L106.33 50.3974L110.909 33.1252L104.094 29.814Z" fill="#6C63FF"/>
<path d="M91.0098 33.1242L90.1596 32.5513C90.1596 32.5513 86.6374 33.6046 85.5963 38.2908C85.5963 38.2908 84.7996 40.6419 84.4501 42.2583C84.0491 44.1124 75.1959 61.1426 75.1959 61.1426L80.4964 62.6598L90.2143 46.9793L91.0098 33.1242Z" fill="#6C63FF"/>
<path d="M110.766 70.4723C110.556 70.2231 110.404 69.9312 110.319 69.6169C110.235 69.3026 110.221 68.9737 110.277 68.6533C110.334 68.333 110.461 68.0289 110.648 67.7626C110.835 67.4962 111.079 67.2741 111.361 67.1119L109.879 59.3428L113.681 60.9237L114.506 68.059C114.747 68.5508 114.8 69.114 114.653 69.6418C114.507 70.1697 114.171 70.6256 113.71 70.923C113.249 71.2205 112.695 71.3389 112.152 71.2558C111.609 71.1728 111.116 70.8939 110.766 70.4723Z" fill="#FFB7B7"/>
<path d="M109.535 33.3671L110.51 33.0503C110.51 33.0503 113.605 35.0319 113.31 39.8228C113.31 39.8228 113.426 42.302 113.316 43.9519C113.189 45.8444 114.891 64.6502 114.891 64.6502H109.377L107.014 47.62L109.535 33.3671Z" fill="#6C63FF"/>
<path d="M106.336 21.3128C106.336 22.5621 105.965 23.7834 105.269 24.8223C104.574 25.8611 103.585 26.6707 102.428 27.1488C101.271 27.6269 99.9982 27.752 98.7701 27.5083C97.542 27.2646 96.4139 26.6629 95.5285 25.7795C94.6431 24.8961 94.0401 23.7705 93.7958 22.5451C93.5515 21.3198 93.6769 20.0497 94.1561 18.8954C94.6353 17.7411 95.4467 16.7546 96.4879 16.0605C97.529 15.3664 98.753 14.9959 100.005 14.9959C101.68 14.9917 103.288 15.6516 104.475 16.8303C105.663 18.0091 106.332 19.6101 106.336 21.2813C106.336 21.2918 106.336 21.3023 106.336 21.3128Z" fill="#FFB7B7"/>
<path d="M93.6952 12.8282C94.4368 11.2369 95.8721 11.5515 97.1273 12.0909C98.7168 11.7391 100.229 10.6859 101.941 11.3088C103.628 13.757 109.292 13.0367 108.087 17.0223C108.086 17.9774 109.888 17.4215 109.574 18.9856C110.529 21.9958 106.127 27.6967 103.6 26.4962C104.225 25.3533 105.652 22.7575 103.487 22.5C98.8288 26.8246 103.006 14.2652 97.1535 17.9176C95.2156 19.6872 92.5625 14.5981 93.6952 12.8282Z" fill="#2F2E41"/>
<path d="M111.874 71.1022C112.176 71.1627 112.487 71.1565 112.786 71.084C113.085 71.0115 113.364 70.8745 113.604 70.6827C113.844 70.4909 114.039 70.2488 114.175 69.9737C114.311 69.6985 114.386 69.3969 114.392 69.0901L130.289 54.1611L126.712 51.3142L112.184 66.9218C111.667 66.9447 111.176 67.1562 110.804 67.5161C110.433 67.876 110.206 68.3594 110.168 68.8747C110.13 69.39 110.282 69.9014 110.597 70.3119C110.911 70.7224 111.366 71.0036 111.874 71.1022Z" fill="#9F616A"/>
<path d="M128.036 56.5743L124.944 52.958C124.856 52.8551 124.791 52.7345 124.754 52.6044C124.717 52.4743 124.708 52.3377 124.729 52.204C124.75 52.0703 124.799 51.9427 124.873 51.8297C124.948 51.7167 125.046 51.621 125.161 51.5492L129.187 49.0344C129.717 48.5881 130.403 48.3697 131.094 48.4273C131.786 48.4848 132.426 48.8135 132.874 49.3413C133.323 49.8691 133.544 50.553 133.488 51.2428C133.432 51.9327 133.104 52.5723 132.576 53.0214L129.465 56.5821C129.376 56.6841 129.266 56.7656 129.142 56.8213C129.019 56.8769 128.884 56.9053 128.749 56.9046C128.613 56.9039 128.479 56.874 128.357 56.817C128.234 56.76 128.124 56.6772 128.036 56.5743Z" fill="#CBCBCB"/>
<path d="M119.72 130.241L115.833 130.241L113.984 115.282L119.721 115.283L119.72 130.241Z" fill="#9F616A"/>
<path d="M120.711 134L108.179 134V133.841C108.179 132.551 108.693 131.313 109.607 130.4C110.522 129.487 111.763 128.974 113.057 128.974H113.057L120.711 128.975L120.711 134Z" fill="#2F2E41"/>
<path d="M150.789 130.241L146.902 130.241L145.053 115.282L150.789 115.283L150.789 130.241Z" fill="#9F616A"/>
<path d="M151.78 134L139.248 134V133.841C139.248 132.551 139.762 131.313 140.676 130.4C141.591 129.487 142.832 128.974 144.125 128.974H144.126L151.78 128.975L151.78 134Z" fill="#2F2E41"/>
<path d="M140.334 64.5035L144.252 50.0609L139.169 47.2104H132.075L129.316 50.156C129.316 50.156 124.706 53.3563 125.821 56.9022L127.621 64.9786L124.868 77.8058L110.997 96.9992L107.714 115.852L120.639 119.233L134.616 91.7733L141.393 122.179L154 121.546L149.656 84.6795C149.656 84.6795 148.417 73.4487 141.926 66.4363L140.334 64.5035Z" fill="#2F2E41"/>
<path d="M148.425 77.282C148.644 77.066 148.812 76.8048 148.918 76.5168C149.025 76.2289 149.066 75.9212 149.041 75.6153C149.015 75.3095 148.922 75.013 148.77 74.7468C148.617 74.4805 148.407 74.251 148.155 74.0743L145.116 53.6123L140.753 54.9869L145.12 74.694C144.851 75.1352 144.753 75.6598 144.845 76.1682C144.937 76.6766 145.213 77.1337 145.62 77.4527C146.028 77.7717 146.538 77.9305 147.055 77.899C147.572 77.8676 148.06 77.648 148.425 77.282Z" fill="#9F616A"/>
<path d="M145.867 56.8238L141.134 57.3684C140.999 57.3839 140.863 57.3702 140.734 57.3284C140.605 57.2865 140.486 57.2174 140.387 57.1258C140.287 57.0342 140.208 56.9222 140.156 56.7975C140.103 56.6727 140.078 56.5382 140.083 56.403L140.236 51.6659C140.161 50.978 140.362 50.2883 140.795 49.748C141.228 49.2077 141.859 48.8609 142.548 48.7837C143.237 48.7064 143.929 48.905 144.472 49.3359C145.014 49.7668 145.364 50.3948 145.443 51.0823L146.67 55.6452C146.705 55.7758 146.712 55.9125 146.689 56.0458C146.666 56.1792 146.615 56.3061 146.539 56.418C146.463 56.5299 146.363 56.624 146.247 56.694C146.131 56.7641 146.002 56.8083 145.867 56.8238Z" fill="#CBCBCB"/>
<path d="M127.688 43.1032V37.018C127.688 34.8554 128.549 32.7813 130.082 31.2521C131.615 29.7229 133.693 28.8638 135.861 28.8638C138.028 28.8638 140.107 29.7229 141.64 31.2521C143.172 32.7813 144.033 34.8554 144.033 37.018V43.1032C144.033 43.3936 143.917 43.672 143.711 43.8774C143.506 44.0827 143.227 44.1982 142.936 44.1986H128.786C128.495 44.1982 128.216 44.0827 128.01 43.8774C127.805 43.672 127.689 43.3936 127.688 43.1032Z" fill="#2F2E41"/>
<path d="M137.056 43.3241C139.959 41.7404 141.026 38.1079 139.439 35.2108C137.852 32.3136 134.211 31.2489 131.308 32.8326C128.404 34.4163 127.337 38.0488 128.924 40.946C130.511 43.8431 134.152 44.9079 137.056 43.3241Z" fill="#9F616A"/>
<path d="M125.755 37.5048C125.757 35.7946 126.439 34.1551 127.651 32.9458C128.863 31.7366 130.506 31.0564 132.22 31.0544H133.44C135.154 31.0564 136.797 31.7366 138.009 32.9458C139.221 34.1551 139.902 35.7947 139.904 37.5048V37.6265H137.327L136.447 35.1701L136.272 37.6265H134.939L134.496 36.3871L134.407 37.6265H125.755V37.5048Z" fill="#2F2E41"/>
<path d="M133.592 44.8828C133.471 44.7193 133.399 44.525 133.383 44.3223C133.368 44.1196 133.411 43.9167 133.506 43.737C134.799 41.2839 136.608 36.7511 134.206 33.9557L134.033 33.7549H141.007V44.202L134.672 45.3173C134.608 45.3286 134.543 45.3344 134.478 45.3344C134.305 45.3344 134.134 45.2935 133.98 45.215C133.826 45.1365 133.693 45.0226 133.592 44.8828Z" fill="#2F2E41"/>
<path d="M69.4913 50.4458C69.4029 50.5366 69.3218 50.6341 69.2487 50.7376L57.8856 50.4602L56.5599 48.0432L52.6427 49.5626L54.5727 54.0689C54.7286 54.4329 54.9987 54.7367 55.3424 54.9346C55.686 55.1324 56.0848 55.2137 56.4787 55.1662L69.3169 53.6188C69.6198 54.0013 70.0322 54.2828 70.4992 54.4258C70.9663 54.5688 71.466 54.5665 71.9317 54.4192C72.3974 54.272 72.8072 53.9867 73.1065 53.6014C73.4058 53.2161 73.5804 52.749 73.6072 52.2623C73.6339 51.7755 73.5115 51.2922 73.2562 50.8766C73.001 50.4609 72.6249 50.1327 72.1781 49.9355C71.7313 49.7383 71.2349 49.6815 70.755 49.7727C70.275 49.8639 69.8342 50.0986 69.4913 50.4458Z" fill="#FFB7B7"/>
<path d="M32.4491 119.301H36.1854L37.9628 104.922L32.4485 104.922L32.4491 119.301Z" fill="#FFB7B7"/>
<path d="M31.4961 118.084L38.8542 118.084H38.8545C40.0981 118.084 41.2907 118.577 42.1701 119.454C43.0495 120.332 43.5435 121.522 43.5436 122.762V122.914L31.4963 122.915L31.4961 118.084Z" fill="#2F2E41"/>
<path d="M66.3759 119.218L69.8118 117.754L65.785 103.834L60.7142 105.995L66.3759 119.218Z" fill="#FFB7B7"/>
<path d="M65.0202 118.473L71.7867 115.588L71.7869 115.588C72.9306 115.101 74.2215 115.087 75.3756 115.549C76.5297 116.011 77.4526 116.912 77.9412 118.053L78.001 118.193L66.9223 122.915L65.0202 118.473Z" fill="#2F2E41"/>
<path d="M50.61 53.5607L50.8801 57.9291L42.9827 58.7724L34.719 59.6548L37.1512 53.0215L50.61 53.5607Z" fill="#FFB7B7"/>
<path d="M50.8874 55.1281C50.7979 55.0931 41.8777 51.631 36.3986 54.4618L36.2638 54.5315L35.1708 49.1633L34.5479 37.6221L38.6008 35.7113L39.7166 33.2173L47.3173 32.7686L48.8792 34.9058L54.1969 36.6447L51.0187 55.1799L50.8874 55.1281Z" fill="#E4E4E4"/>
<path d="M51.1667 44.7107L52.1069 37.3403L54.2475 36.6902L54.2836 36.7035C54.333 36.7216 55.4964 37.1659 55.8148 38.7729C56.1205 40.3154 58.4227 49.9143 58.4459 50.0111L58.4689 50.1072L53.0599 52.2665L51.1667 44.7107Z" fill="#E4E4E4"/>
<path d="M63.5931 116.691L70.7933 115.218L59.2852 83.5335L55.3466 72.7265C55.3466 72.7265 52.8485 64.0615 51.7199 60.7083L51.0387 56.209L34.9151 57.9897C34.9151 57.9897 30.4118 64.5884 31.7798 75.344L31.1611 115.77L38.3613 116.139L44.3923 75.3668L54.9774 97.7177C54.9774 97.7177 58.3136 107.256 60.7007 109.323L63.5931 116.691Z" fill="#2F2E41"/>
<path d="M41.381 59.49C41.2543 59.487 41.1274 59.4939 41.0017 59.5108L33.4797 51.0082L34.3547 48.395L30.5747 46.562L28.5751 51.038C28.4135 51.3996 28.3739 51.8037 28.4622 52.1897C28.5504 52.5757 28.7617 52.9227 29.0645 53.1786L38.9306 61.5197C38.8553 62.0014 38.9288 62.4945 39.1413 62.9334C39.3538 63.3724 39.6952 63.7364 40.1201 63.977C40.545 64.2177 41.0332 64.3235 41.5199 64.2805C42.0066 64.2376 42.4686 64.0478 42.8445 63.7364C43.2204 63.425 43.4924 63.0068 43.6243 62.5375C43.7562 62.0681 43.7418 61.5698 43.5829 61.1088C43.424 60.6478 43.1283 60.246 42.7349 59.9568C42.3416 59.6677 41.8694 59.5048 41.381 59.49Z" fill="#FFB7B7"/>
<path d="M29.8937 47.8218L32.8343 39.4644C33.1648 38.4792 33.5789 37.8807 34.0653 37.6854C34.161 37.6424 34.2647 37.6197 34.3698 37.6187C34.4748 37.6177 34.5789 37.6385 34.6755 37.6797L35.9941 39.3419L37.2179 44.4715L34.0801 51.8359L29.8937 47.8218Z" fill="#E4E4E4"/>
<path d="M49.3581 31.0392H36.4486C36.183 31.0389 35.9285 30.9335 35.7407 30.7462C35.5529 30.5588 35.4473 30.3048 35.447 30.0398V24.4878C35.447 22.5147 36.2326 20.6223 37.6309 19.2271C39.0292 17.8319 40.9258 17.0481 42.9033 17.0481C44.8809 17.0481 46.7775 17.8319 48.1758 19.2271C49.5741 20.6223 50.3597 22.5147 50.3597 24.4878V30.0398C50.3594 30.3048 50.2538 30.5588 50.066 30.7462C49.8782 30.9335 49.6237 31.0389 49.3581 31.0392Z" fill="#2F2E41"/>
<path d="M44.4356 30.9098C47.4547 30.9098 49.9023 28.4677 49.9023 25.4553C49.9023 22.4428 47.4547 20.0007 44.4356 20.0007C41.4164 20.0007 38.9688 22.4428 38.9688 25.4553C38.9688 28.4677 41.4164 30.9098 44.4356 30.9098Z" fill="#FFB7B7"/>
<path d="M52.1237 25.0431H44.2298L44.1489 23.9123L43.7441 25.0431H42.5287L42.3682 22.8019L41.5661 25.0431H39.2142V24.932C39.2159 23.3717 39.8379 21.8758 40.9437 20.7725C42.0494 19.6692 43.5486 19.0486 45.1124 19.0469H46.2254C47.7892 19.0486 49.2884 19.6692 50.3942 20.7725C51.4999 21.8758 52.1219 23.3717 52.1237 24.932L52.1237 25.0431Z" fill="#2F2E41"/>
<path d="M44.1652 32.0756C44.1058 32.0756 44.0465 32.0704 43.988 32.06L38.2077 31.0424V21.5107H44.5707L44.4131 21.694C42.2214 24.2445 43.8726 28.3801 45.052 30.6182C45.1389 30.7821 45.1776 30.9672 45.1638 31.1522C45.1499 31.3371 45.084 31.5144 44.9735 31.6636C44.8811 31.7911 44.7596 31.895 44.6191 31.9666C44.4786 32.0383 44.323 32.0756 44.1652 32.0756Z" fill="#2F2E41"/>
<path d="M113.406 54.9867C113.045 55.0229 112.683 55.0314 112.321 55.0119C112.26 55.0052 112.198 55.0229 112.149 55.0612C112.1 55.0995 112.069 55.1554 112.061 55.2168L111.369 60.394C111.316 60.7698 111.162 61.1242 110.923 61.4196C110.726 61.6547 110.58 61.9277 110.493 62.2215C110.406 62.5154 110.381 62.824 110.419 63.128V71.9225C110.419 71.9225 110.374 73.095 111.277 73.095C112.358 73.2305 113.451 73.2305 114.532 73.095C114.532 73.095 115.255 72.9585 115.255 71.8764V63.2171C115.31 62.915 115.299 62.6045 115.221 62.3072C115.144 62.0099 115.004 61.7329 114.808 61.4953C114.578 61.1988 114.428 60.8473 114.376 60.4756L113.657 55.1901C113.649 55.1306 113.618 55.0765 113.572 55.0388C113.525 55.001 113.466 54.9824 113.406 54.9867Z" fill="white"/>
<path d="M112.901 73.3448C112.355 73.3448 111.809 73.311 111.267 73.2434C111.146 73.2463 111.026 73.2241 110.914 73.1783C110.802 73.1325 110.7 73.0641 110.616 72.9774C110.248 72.5966 110.269 71.9444 110.27 71.9168L110.27 63.1371C110.231 62.8142 110.259 62.487 110.352 62.1754C110.445 61.8637 110.6 61.5742 110.809 61.3245C111.03 61.0503 111.173 60.7217 111.222 60.3732L111.913 55.1971C111.927 55.0976 111.979 55.0071 112.058 54.945C112.137 54.8829 112.237 54.854 112.337 54.8644C112.689 54.8829 113.041 54.8744 113.391 54.839L113.395 54.8387C113.493 54.8316 113.589 54.8619 113.665 54.9234C113.741 54.9849 113.791 55.0731 113.804 55.1699L114.523 60.4557C114.572 60.8014 114.711 61.1283 114.926 61.4042C115.133 61.6563 115.282 61.9499 115.365 62.2651C115.447 62.5803 115.46 62.9095 115.404 63.2303V71.8764C115.404 73.0676 114.568 73.2393 114.559 73.2409C114.009 73.31 113.456 73.3448 112.901 73.3448ZM112.301 55.1595C112.279 55.1584 112.257 55.1656 112.24 55.1797C112.223 55.1937 112.212 55.2136 112.208 55.2355L111.517 60.4136C111.46 60.8163 111.295 61.1962 111.039 61.5128C110.855 61.7327 110.718 61.9878 110.637 62.2624C110.555 62.5371 110.531 62.8255 110.566 63.1097L110.567 63.128V71.9224C110.567 71.9334 110.551 72.4833 110.831 72.7722C110.889 72.8309 110.958 72.8768 111.035 72.9069C111.112 72.937 111.194 72.9505 111.277 72.9466L111.295 72.9478C112.364 73.0816 113.445 73.0816 114.513 72.9478C114.527 72.9443 115.106 72.8126 115.106 71.8764L115.108 63.1905C115.16 62.9095 115.149 62.6208 115.078 62.3443C115.006 62.0678 114.875 61.8101 114.693 61.5893C114.446 61.2717 114.285 60.8949 114.228 60.4964L113.51 55.2099C113.507 55.1883 113.495 55.1685 113.478 55.1546C113.461 55.1407 113.44 55.1336 113.418 55.1346C113.051 55.1713 112.682 55.1798 112.313 55.1602C112.309 55.1597 112.305 55.1595 112.301 55.1595Z" fill="#3F3D56"/>
<path d="M112.314 63.2854H113.41C113.846 63.2854 114.264 63.4582 114.572 63.7658C114.881 64.0734 115.054 64.4905 115.054 64.9255V69.0415C115.054 69.4765 114.881 69.8936 114.572 70.2012C114.264 70.5088 113.846 70.6816 113.41 70.6816H112.314C111.878 70.6816 111.46 70.5088 111.151 70.2012C110.843 69.8936 110.67 69.4765 110.67 69.0415V64.9255C110.67 64.4906 110.843 64.0734 111.151 63.7658C111.46 63.4582 111.878 63.2854 112.314 63.2854Z" fill="#6C63FF"/>
<path d="M76.2006 47.8561C75.8403 47.8923 75.4778 47.9007 75.1162 47.8813C75.0545 47.8746 74.9927 47.8923 74.944 47.9306C74.8953 47.9689 74.8637 48.0248 74.8558 48.0861L74.1641 53.2634C74.1109 53.6392 73.9567 53.9936 73.7178 54.289C73.5209 54.5241 73.3745 54.797 73.2878 55.0909C73.201 55.3848 73.1757 55.6934 73.2135 55.9974V64.7918C73.2135 64.7918 73.1689 65.9644 74.0719 65.9644C75.1526 66.0999 76.2461 66.0999 77.3268 65.9644C77.3268 65.9644 78.0497 65.8279 78.0497 64.7458V56.0865C78.1049 55.7844 78.0935 55.4739 78.0165 55.1766C77.9394 54.8793 77.7985 54.6023 77.6035 54.3647C77.3726 54.0682 77.2234 53.7167 77.1706 53.345L76.452 48.0594C76.4439 48 76.4134 47.9459 76.3667 47.9081C76.32 47.8704 76.2606 47.8518 76.2006 47.8561Z" fill="white"/>
<path d="M75.6962 66.2142C75.15 66.2142 74.6043 66.1804 74.0623 66.1128C73.9412 66.1157 73.8208 66.0935 73.7087 66.0477C73.5966 66.0019 73.4952 65.9335 73.4108 65.8467C73.0434 65.466 73.0638 64.8138 73.0649 64.7861L73.0648 56.0064C73.0264 55.6836 73.0544 55.3564 73.1471 55.0448C73.2397 54.7331 73.3951 54.4436 73.6037 54.1938C73.8248 53.9197 73.9675 53.591 74.0168 53.2426L74.7084 48.0665C74.7219 47.9669 74.7737 47.8765 74.8528 47.8144C74.9319 47.7523 75.0322 47.7234 75.1323 47.7338C75.4836 47.7523 75.8358 47.7438 76.1858 47.7084L76.1899 47.708C76.2876 47.701 76.3843 47.7313 76.4603 47.7928C76.5364 47.8543 76.5862 47.9424 76.5994 48.0392L77.318 53.3251C77.3674 53.6708 77.5063 53.9977 77.7209 54.2736C77.9277 54.5256 78.0774 54.8193 78.1598 55.1345C78.2423 55.4497 78.2554 55.7789 78.1985 56.0996V64.7458C78.1985 65.937 77.3629 66.1087 77.3544 66.1103C76.8044 66.1794 76.2505 66.2141 75.6962 66.2142ZM75.096 48.0289C75.0738 48.0278 75.0521 48.035 75.035 48.0491C75.0179 48.0631 75.0066 48.083 75.0034 48.1048L74.3115 53.283C74.2547 53.6857 74.0895 54.0656 73.8336 54.3822C73.6497 54.602 73.5128 54.8572 73.4316 55.1318C73.3503 55.4065 73.3264 55.6949 73.3612 55.9791L73.3623 55.9974V64.7918C73.362 64.8027 73.3462 65.3527 73.6259 65.6416C73.6837 65.7003 73.7533 65.7462 73.8302 65.7763C73.9071 65.8063 73.9894 65.8199 74.0719 65.816L74.0904 65.8172C75.1588 65.951 76.2398 65.951 77.3082 65.8172C77.3223 65.8137 77.901 65.682 77.901 64.7458L77.9034 56.0598C77.9549 55.7789 77.9444 55.4901 77.8728 55.2136C77.8011 54.9371 77.6699 54.6795 77.4884 54.4587C77.2405 54.1411 77.0802 53.7643 77.0233 53.3658L76.3046 48.0793C76.3015 48.0576 76.2903 48.0379 76.2734 48.024C76.2564 48.0101 76.2349 48.003 76.2129 48.004C75.8459 48.0407 75.4766 48.0492 75.1082 48.0295C75.1041 48.0291 75.1 48.0289 75.096 48.0289Z" fill="#3F3D56"/>
<path d="M75.1087 56.1545H76.2051C76.641 56.1545 77.0592 56.3273 77.3674 56.6349C77.6757 56.9425 77.8489 57.3597 77.8489 57.7947V61.9106C77.8489 62.3456 77.6757 62.7628 77.3674 63.0704C77.0592 63.378 76.641 63.5508 76.2051 63.5508H75.1087C74.6727 63.5508 74.2546 63.378 73.9464 63.0704C73.6381 62.7628 73.4649 62.3456 73.4649 61.9106V57.7947C73.4649 57.3597 73.6381 56.9425 73.9464 56.6349C74.2546 56.3273 74.6727 56.1545 75.1087 56.1545Z" fill="#6C63FF"/>
<path d="M69.8947 40.3058C69.5344 40.342 69.1718 40.3504 68.8102 40.331C68.7486 40.3243 68.6868 40.342 68.6381 40.3803C68.5894 40.4186 68.5577 40.4745 68.5499 40.5359L67.8582 45.7131C67.8049 46.0889 67.6507 46.4433 67.4119 46.7387C67.215 46.9738 67.0686 47.2467 66.9818 47.5406C66.8951 47.8345 66.8698 48.1431 66.9076 48.4471V57.2415C66.9076 57.2415 66.8629 58.4141 67.7659 58.4141C68.8466 58.5496 69.9401 58.5496 71.0208 58.4141C71.0208 58.4141 71.7438 58.2776 71.7438 57.1955V48.5362C71.799 48.2341 71.7876 47.9236 71.7105 47.6263C71.6335 47.329 71.4926 47.052 71.2975 46.8144C71.0667 46.5179 70.9174 46.1664 70.8646 45.7947L70.1461 40.5091C70.1379 40.4497 70.1074 40.3956 70.0607 40.3579C70.014 40.3201 69.9547 40.3015 69.8947 40.3058Z" fill="white"/>
<path d="M69.3902 58.6639C68.844 58.6639 68.2983 58.6301 67.7563 58.5625C67.6352 58.5654 67.5148 58.5432 67.4027 58.4974C67.2906 58.4516 67.1892 58.3832 67.1049 58.2965C66.7374 57.9157 66.7578 57.2635 66.7589 57.2359L66.7588 48.4561C66.7204 48.1333 66.7485 47.8061 66.8411 47.4945C66.9338 47.1828 67.0891 46.8933 67.2977 46.6435C67.5188 46.3694 67.6615 46.0407 67.7108 45.6923L68.4024 40.5162C68.4159 40.4167 68.4677 40.3262 68.5468 40.2641C68.626 40.202 68.7262 40.1731 68.8264 40.1835C69.1776 40.202 69.5298 40.1935 69.8798 40.1581L69.8839 40.1577C69.9816 40.1507 70.0783 40.181 70.1544 40.2425C70.2304 40.304 70.2802 40.3922 70.2935 40.489L71.012 45.7748C71.0614 46.1205 71.2003 46.4474 71.4149 46.7233C71.6217 46.9753 71.7714 47.269 71.8539 47.5842C71.9363 47.8994 71.9495 48.2286 71.8925 48.5493V57.1955C71.8925 58.3867 71.0569 58.5584 71.0485 58.56C70.4984 58.6291 69.9446 58.6638 69.3902 58.6639ZM68.79 40.4786C68.7679 40.4775 68.7461 40.4847 68.729 40.4988C68.7119 40.5128 68.7007 40.5327 68.6974 40.5545L68.0056 45.7327C67.9487 46.1354 67.7835 46.5153 67.5276 46.8319C67.3437 47.0517 67.2069 47.3069 67.1256 47.5815C67.0444 47.8562 67.0204 48.1446 67.0552 48.4288L67.0563 48.4471V57.2415C67.056 57.2524 67.0402 57.8024 67.3199 58.0913C67.3777 58.15 67.4474 58.1959 67.5242 58.226C67.6011 58.2561 67.6834 58.2696 67.7659 58.2657L67.7845 58.2669C68.8529 58.4007 69.9338 58.4007 71.0022 58.2669C71.0163 58.2634 71.595 58.1317 71.595 57.1955L71.5974 48.5096C71.6489 48.2286 71.6385 47.9399 71.5668 47.6634C71.4951 47.3868 71.364 47.1292 71.1824 46.9084C70.9346 46.5908 70.7743 46.214 70.7173 45.8155L69.9987 40.529C69.9955 40.5074 69.9844 40.4876 69.9674 40.4737C69.9505 40.4598 69.9289 40.4527 69.907 40.4537C69.5399 40.4904 69.1706 40.4989 68.8022 40.4793C68.7982 40.4788 68.7941 40.4786 68.79 40.4786Z" fill="#3F3D56"/>
<path d="M68.8028 48.6045H69.8991C70.3351 48.6045 70.7532 48.7773 71.0615 49.0849C71.3698 49.3925 71.543 49.8096 71.543 50.2446V54.3606C71.543 54.7956 71.3698 55.2127 71.0615 55.5203C70.7532 55.8279 70.3351 56.0007 69.8991 56.0007H68.8028C68.3668 56.0007 67.9487 55.8279 67.6404 55.5203C67.3321 55.2127 67.159 54.7956 67.159 54.3606V50.2446C67.159 49.8096 67.3321 49.3925 67.6404 49.0849C67.9487 48.7773 68.3668 48.6045 68.8028 48.6045Z" fill="#6C63FF"/>
<path d="M11.8105 14.8907C14.7127 14.8907 17.0654 12.5433 17.0654 9.64751C17.0654 6.75176 14.7127 4.4043 11.8105 4.4043C8.90826 4.4043 6.55554 6.75176 6.55554 9.64751C6.55554 12.5433 8.90826 14.8907 11.8105 14.8907Z" fill="#F0F0F0"/>
<path d="M132.885 10.4864C135.787 10.4864 138.139 8.13896 138.139 5.24321C138.139 2.34747 135.787 0 132.885 0C129.982 0 127.63 2.34747 127.63 5.24321C127.63 8.13896 129.982 10.4864 132.885 10.4864Z" fill="#F0F0F0"/>
<path d="M72.7679 23.6994C74.8575 23.6994 76.5515 22.0092 76.5515 19.9243C76.5515 17.8393 74.8575 16.1492 72.7679 16.1492C70.6783 16.1492 68.9843 17.8393 68.9843 19.9243C68.9843 22.0092 70.6783 23.6994 72.7679 23.6994Z" fill="#F0F0F0"/>
</g>
<defs>
<clipPath id="clip0_172_285">
<rect width="154" height="134" fill="white"/>
</clipPath>
</defs>
</svg>
