<svg width="117" height="135" viewBox="0 0 117 135" fill="none" xmlns="http://www.w3.org/2000/svg">
<g clip-path="url(#clip0_172_149)">
<path d="M101.514 131.019C101.962 131.046 102.21 130.499 101.871 130.181L101.837 130.049C101.841 130.039 101.846 130.028 101.85 130.017C102.303 128.956 103.838 128.963 104.288 130.026C104.686 130.97 105.194 131.915 105.319 132.912C105.375 133.353 105.349 133.801 105.25 134.233C106.184 132.228 106.675 130.039 106.675 127.837C106.675 127.284 106.645 126.731 106.582 126.179C106.53 125.728 106.458 125.279 106.366 124.835C105.866 122.432 104.784 120.144 103.222 118.233C102.472 117.829 101.846 117.199 101.468 116.444C101.332 116.171 101.226 115.878 101.175 115.579C101.261 115.591 101.497 114.312 101.433 114.234C101.552 114.056 101.765 113.968 101.895 113.795C102.541 112.933 103.432 113.084 103.897 114.254C104.891 114.747 104.9 115.564 104.291 116.35C103.903 116.85 103.85 117.527 103.509 118.062C103.544 118.106 103.581 118.149 103.616 118.193C104.258 119.002 104.813 119.871 105.281 120.785C105.149 119.77 105.344 118.546 105.677 117.758C106.056 116.859 106.766 116.103 107.392 115.326C108.143 114.393 109.684 114.8 109.817 115.983C109.818 115.994 109.819 116.006 109.82 116.017C109.728 116.069 109.636 116.123 109.548 116.181C109.04 116.511 109.216 117.283 109.817 117.375L109.83 117.377C109.797 117.705 109.739 118.032 109.655 118.352C110.458 121.402 108.725 122.513 106.251 122.563C106.197 122.59 106.143 122.618 106.089 122.644C106.339 123.338 106.54 124.049 106.688 124.77C106.821 125.407 106.913 126.051 106.965 126.698C107.03 127.514 107.024 128.334 106.954 129.149L106.958 129.12C107.136 128.223 107.632 127.385 108.352 126.804C109.424 125.938 110.939 125.62 112.095 124.924C112.652 124.589 113.366 125.022 113.268 125.656L113.264 125.687C113.091 125.755 112.923 125.835 112.761 125.925C112.668 125.976 112.577 126.031 112.488 126.089C111.981 126.418 112.156 127.191 112.757 127.282L112.771 127.284C112.781 127.286 112.789 127.287 112.799 127.288C112.503 127.978 112.092 128.618 111.576 129.169C111.075 131.832 108.919 132.085 106.614 131.309H106.612C106.36 132.388 105.992 133.442 105.519 134.447H101.612C101.598 134.404 101.585 134.36 101.573 134.317C101.934 134.339 102.298 134.319 102.654 134.254C102.364 133.904 102.074 133.552 101.784 133.203C101.777 133.196 101.772 133.189 101.766 133.182C101.619 133.003 101.471 132.826 101.324 132.647L101.324 132.646C101.314 132.097 101.381 131.55 101.514 131.019Z" fill="#1C1111"/>
<path d="M16.8218 131.019C16.3739 131.046 16.1263 130.499 16.4652 130.181L16.4989 130.049C16.4945 130.039 16.49 130.028 16.4855 130.017C16.0326 128.956 14.4975 128.963 14.0484 130.026C13.6498 130.97 13.1423 131.915 13.0173 132.912C12.9613 133.353 12.9865 133.801 13.0859 134.233C12.152 132.228 11.6605 130.039 11.6605 127.837C11.6605 127.284 11.6913 126.731 11.7543 126.179C11.8061 125.728 11.8775 125.279 11.9699 124.835C12.4698 122.432 13.5522 120.144 15.1135 118.233C15.8641 117.829 16.49 117.199 16.8681 116.444C17.0039 116.171 17.1103 115.878 17.1607 115.579C17.0753 115.591 16.8387 114.312 16.9031 114.234C16.7841 114.056 16.571 113.968 16.441 113.795C15.7944 112.933 14.9036 113.084 14.4386 114.254C13.4452 114.747 13.4356 115.564 14.0451 116.35C14.4329 116.85 14.4862 117.527 14.8265 118.062C14.7915 118.106 14.7551 118.149 14.7201 118.193C14.0781 119.002 13.5229 119.871 13.0548 120.785C13.1871 119.77 12.9918 118.546 12.6588 117.758C12.2798 116.859 11.5695 116.103 10.9439 115.326C10.1924 114.393 8.65157 114.8 8.51919 115.983C8.5179 115.994 8.51666 116.006 8.51543 116.017C8.60835 116.069 8.69938 116.123 8.7883 116.181C9.2955 116.511 9.12022 117.283 8.51924 117.375L8.50563 117.377C8.53924 117.705 8.59665 118.032 8.68066 118.352C7.87812 121.402 9.61076 122.513 12.0847 122.563C12.1393 122.59 12.1926 122.618 12.2472 122.644C11.9965 123.338 11.7963 124.049 11.6479 124.77C11.5148 125.407 11.4224 126.051 11.3706 126.698C11.3062 127.514 11.3118 128.334 11.3818 129.149L11.3776 129.12C11.1998 128.223 10.7041 127.385 9.98432 126.804C8.91211 125.938 7.39729 125.62 6.24057 124.924C5.68376 124.589 4.97025 125.022 5.06743 125.656L5.07216 125.687C5.24439 125.755 5.41242 125.835 5.57485 125.925C5.66777 125.976 5.7588 126.031 5.84773 126.089C6.35492 126.418 6.17964 127.191 5.57866 127.282L5.56504 127.284C5.55524 127.286 5.54684 127.287 5.53705 127.288C5.83251 127.978 6.24418 128.618 6.75948 129.169C7.26129 131.832 9.41658 132.085 11.7221 131.309H11.7235C11.9755 132.388 12.3438 133.442 12.8171 134.447H16.7239C16.7379 134.404 16.7505 134.36 16.7631 134.317C16.4018 134.339 16.0377 134.319 15.682 134.254C15.9719 133.904 16.2618 133.552 16.5516 133.203C16.5586 133.196 16.5642 133.189 16.5698 133.182C16.7169 133.003 16.8653 132.826 17.0123 132.647L17.0124 132.646C17.0216 132.097 16.9545 131.55 16.8218 131.019Z" fill="#1C1111"/>
<path d="M0 134.746C0 134.887 0.11491 135 0.258004 135H116.742C116.885 135 117 134.887 117 134.746C117 134.606 116.885 134.493 116.742 134.493H0.258004C0.11491 134.493 0 134.606 0 134.746Z" fill="#CCCCCC"/>
<path d="M83.9818 129.87L86.2827 129.85L87.3013 120.925L83.9053 120.954L83.9818 129.87Z" fill="#A0616A"/>
<path d="M90.9013 132.637L87.2263 130.188L87.2124 128.57L86.4221 128.622L83.9724 128.788L83.3719 128.827L82.936 134.546L84.6622 134.531L84.9563 132.927L85.7572 134.523L90.3321 134.485C90.9005 134.48 91.3571 134.022 91.3521 133.465C91.3493 133.133 91.1809 132.824 90.9013 132.637Z" fill="#2F2E41"/>
<path d="M72.2746 129.87L74.5755 129.85L75.5941 120.925L72.1981 120.954L72.2746 129.87Z" fill="#A0616A"/>
<path d="M79.1941 132.637L75.5191 130.188L75.5052 128.57L74.7149 128.622L72.2652 128.788L71.6647 128.827L71.2288 134.546L72.955 134.531L73.2491 132.927L74.05 134.523L78.625 134.485C79.1933 134.48 79.6499 134.022 79.6449 133.465C79.6421 133.133 79.4737 132.824 79.1941 132.637Z" fill="#2F2E41"/>
<path d="M90.421 11.0315C89.748 12.1441 90.1202 13.5821 91.2524 14.2435C91.7711 14.5466 92.3589 14.6316 92.9089 14.5303L92.9111 14.5327L95.8672 17.7153L99.3404 16.4784L94.7838 11.5884L94.7678 11.605C94.6096 11.0425 94.2404 10.5363 93.6896 10.2146C92.5574 9.55318 91.0941 9.91896 90.421 11.0315Z" fill="#A0616A"/>
<path d="M93.0111 57.7108L83.6841 58.0003L74.848 59.9299C74.848 59.9299 75.7316 60.9912 72.7862 63.8856C72.7862 63.8856 68.859 70.6392 71.6081 77.1999L72.3784 94.359C72.3784 94.359 73.0356 95.7181 72.4433 95.8056C71.8511 95.8931 71.8936 96.9106 72.5227 97.5736C73.1519 98.2366 72.581 98.8701 72.581 98.8701C73.793 99.6641 72.899 101.803 72.7862 103.443C72.7862 103.443 69.3511 121.942 71.9757 127.83L75.4445 128.043L81.3141 103.656L84.175 77.3929L85.5495 103.25C85.5495 103.25 80.2911 120.997 83.6116 128.043L87.3684 127.83L93.7965 103.25C93.7965 103.25 94.8784 92.0862 95.5878 82.432C95.6397 81.726 95.3412 80.1328 95.7369 80.3432C96.1326 80.5536 95.1344 78.8752 95.8503 78.6491C96.5662 78.4231 95.3618 76.676 95.964 76.8039C96.5662 76.9317 95.5781 62.9121 95.4822 61.5922C95.0895 56.1893 93.0111 57.7108 93.0111 57.7108Z" fill="#2F2E41"/>
<path d="M88.1229 34.9077C87.1312 34.9078 86.1747 34.53 85.4391 33.8223C84.4524 32.8729 84.0615 31.5196 84.3934 30.2023C84.7755 28.6853 86.0406 27.5686 87.6162 27.3571L100.674 25.6048L93.966 16.3379L97.7389 14.4562L107.525 25.4978C108.21 26.2702 108.438 27.3163 108.134 28.2962C107.831 29.2762 107.049 30.0206 106.043 30.2877L89.1442 34.7735C88.8047 34.8636 88.4616 34.9077 88.1229 34.9077Z" fill="#FF6584"/>
<path d="M96.2572 61.5715L72.6261 62.6368C71.9771 61.6682 72.1528 60.2119 73.0617 58.3882C76.4936 51.5025 73.8872 38.4761 72.1339 31.6931C71.642 29.79 72.9626 27.8981 74.9508 27.7027L77.1789 27.4837L79.2384 21.3053H86.4517L89.4442 24.665L94.5228 27.6968C93.5984 37.0538 89.6596 50.2667 95.2709 56.8929C96.4981 58.3422 96.8461 59.9093 96.2572 61.5715Z" fill="#FF6584"/>
<path d="M82.4043 20.4113C81.8574 20.61 81.298 20.7966 80.7159 20.936C79.9596 21.1172 79.5326 21.2012 78.8026 20.9227C78.7769 20.913 78.7524 20.9033 78.7294 20.8938C76.0028 19.7761 74.0692 17.1107 74.0096 13.9839C74.0059 13.9332 74.0059 13.8799 74.0059 13.8279C74.0059 13.5758 74.0169 13.325 74.0424 13.0781C74.0752 12.735 74.13 12.3984 74.2078 12.0696L74.2005 12.0683C73.6095 11.4744 73.382 10.6608 73.4574 9.84339C73.5535 8.77514 74.1652 7.69907 75.1479 7.09347C75.8788 6.64381 76.7118 6.34361 77.6057 6.24094C77.8379 6.21495 78.0726 6.20065 78.3122 6.20065H80.5304C81.0011 6.09409 81.4693 6.02001 81.9229 5.98492H81.9266C86.391 5.62104 89.9117 8.52951 89.5833 12.0683C89.5809 12.0722 89.5772 12.0761 89.5748 12.08C89.4799 12.232 89.396 12.3763 89.3218 12.514C89.2501 12.6427 89.1893 12.7662 89.137 12.8831C88.7296 13.7876 90.6656 27.8211 89.9712 28.0343C89.576 28.1551 87.9829 17.7124 88.2687 19.6982C88.6286 22.1895 84.461 19.6642 82.4043 20.4113Z" fill="#2F2E41"/>
<path d="M82.4632 19.4389C85.3632 19.4389 87.7142 17.1286 87.7142 14.2787C87.7142 11.4288 85.3632 9.11853 82.4632 9.11853C79.5631 9.11853 77.2122 11.4288 77.2122 14.2787C77.2122 17.1286 79.5631 19.4389 82.4632 19.4389Z" fill="#A0616A"/>
<path d="M87.0294 12.0966C86.9418 12.142 86.8555 12.1838 86.7679 12.2256C86.6767 12.2687 86.5855 12.3117 86.4931 12.3523C84.7358 13.1351 83.3044 13.2224 82.4361 12.0966C82.4118 11.5074 82.278 10.9218 82.036 10.378C82.081 10.9804 81.9132 11.5946 81.5726 12.0966H79.8238C78.0228 13.2713 77.0985 14.3505 78.3487 18.2071C78.4302 18.4604 78.9884 27.4619 79.1477 28.1538C76.4211 27.126 74.0691 16.2137 74.0095 13.3383C74.0059 13.2917 74.0059 13.2427 74.0059 13.1949C74.0059 12.963 74.0168 12.7324 74.0424 12.5053C74.0752 12.1898 74.1299 11.8803 74.2078 11.5779L74.2005 11.5767C73.6094 11.0306 73.382 10.2824 73.4574 9.53072C73.9122 8.94512 74.4777 8.44557 75.1259 8.06076C75.706 7.7835 76.3177 7.55882 76.9526 7.38672C76.9684 7.38314 76.9818 7.37955 76.9976 7.37597C77.1897 7.32457 77.3867 7.27797 77.5837 7.23734C77.9863 7.15488 78.3949 7.09273 78.8132 7.05449C78.8436 7.0533 78.8728 7.0509 78.8996 7.0509C79.0711 7.0509 79.2304 7.09751 79.369 7.17758C79.3702 7.17758 79.3702 7.17878 79.3727 7.17878C79.4736 7.23734 79.5636 7.31502 79.6341 7.40823C79.7545 7.55882 79.8238 7.74764 79.8238 7.95319H81.7721C81.8438 7.95319 81.9156 7.95559 81.9873 7.95917C84.7005 8.06553 86.881 9.20565 87.0209 11.8265C87.027 11.9173 87.0294 12.0058 87.0294 12.0966Z" fill="#2F2E41"/>
<path d="M75.5111 12.304C77.4217 12.304 78.9705 10.782 78.9705 8.90444C78.9705 7.02691 77.4217 5.50488 75.5111 5.50488C73.6005 5.50488 72.0517 7.02691 72.0517 8.90444C72.0517 10.782 73.6005 12.304 75.5111 12.304Z" fill="#2F2E41"/>
<path d="M80.2604 7.33205C79.8674 9.16941 77.9284 10.2683 76.0734 9.8188C74.2184 9.36928 73.0855 7.52711 73.5429 5.70419C74.0003 3.88128 76.2516 4.40681 77.7299 3.21744C79.8212 1.53491 80.7905 4.85421 80.2604 7.33205Z" fill="#2F2E41"/>
<path d="M86.6257 46.284C86.3539 45.0176 85.0889 44.2074 83.8002 44.4745C83.2097 44.5969 82.7186 44.9256 82.3839 45.3662L82.3806 45.3659L78.0123 44.9924L76.3098 48.2143L83.0324 48.7785L83.0328 48.7555C83.5369 49.0641 84.1574 49.1907 84.7844 49.0607C86.0731 48.7936 86.8975 47.5505 86.6257 46.284Z" fill="#A0616A"/>
<path d="M66.6129 49.0578C65.3644 49.0578 64.2217 48.4405 63.5525 47.4031C62.8794 46.3597 62.8018 45.0715 63.3449 43.9574L70.4796 29.3217C71.0762 28.0978 72.2538 27.298 73.6298 27.1823C75.0035 27.066 76.3046 27.6579 77.1043 28.7644C78.0251 30.0386 78.0614 31.7094 77.1966 33.021L70.0315 43.8899L81.5544 44.9382L80.545 48.976L66.6352 49.0577L66.6129 49.0578Z" fill="#FF6584"/>
<path d="M93.4415 16.1808C93.4414 16.1767 93.4417 16.1728 93.4422 16.1696C93.4502 16.1144 93.5107 16.104 93.5306 16.1005C93.6361 16.0823 94.2231 16.096 94.304 16.2448C94.3286 16.2903 94.4789 16.2781 94.5886 16.2692C94.6656 16.2629 94.7452 16.2564 94.8144 16.2621C96.5863 16.4063 97.9508 16.3806 98.7605 16.1879C99.3736 16.042 99.8866 15.6676 100.205 15.1338C100.523 14.6016 100.607 13.9822 100.436 13.387L99.9517 11.6829C99.7845 11.0943 99.3923 10.6082 98.8471 10.3141C98.2983 10.0181 97.6651 9.95388 97.0641 10.1331C95.9425 10.4677 94.3212 11.4673 93.1587 12.247C93.1111 12.2789 93.0439 12.3132 92.9789 12.3463C92.9233 12.3747 92.8447 12.4147 92.8079 12.4413C92.8158 12.4593 92.8121 12.4755 92.8106 12.4819C92.7982 12.5317 92.7486 12.5403 92.6859 12.5509C92.6472 12.5576 92.5562 12.5732 92.5409 12.5981C92.5387 12.6018 92.5407 12.61 92.5424 12.6145C92.5604 12.6673 92.5361 12.695 92.5204 12.7066C92.4735 12.7412 92.4283 12.7112 92.3464 12.6566C92.2838 12.6149 92.1372 12.5174 92.0914 12.5474C92.0795 12.5552 92.0239 12.6106 92.0922 12.941C92.1118 13.0351 92.0929 13.1193 92.0378 13.1844C91.9046 13.3417 91.5999 13.3384 91.587 13.3382L90.7663 13.2633C89.2514 13.1246 87.7774 13.6628 86.7224 14.74L86.7099 14.7527L85.92 14.9528L86.5231 17.2526L87.3348 17.047L87.3553 17.0562C88.5885 17.6081 90.0411 17.3549 91.7964 16.2819L92.2948 15.9772L92.3129 15.9772C92.6411 15.9766 93.0467 15.9951 93.1151 16.0864C93.126 16.1009 93.132 16.1175 93.1323 16.1346C93.1821 16.1608 93.3414 16.1807 93.4415 16.1808Z" fill="#6C63FF"/>
<path d="M85.3113 17.6403C85.3354 17.732 85.4308 17.7874 85.5242 17.7638L86.6637 17.4751C86.7571 17.4515 86.8134 17.3577 86.7893 17.266L86.1147 14.6936C86.0906 14.6019 85.9952 14.5465 85.9018 14.5702L84.7622 14.8588C84.6689 14.8824 84.6126 14.9762 84.6366 15.068L85.3113 17.6403Z" fill="#3F3D56"/>
<path d="M85.2472 17.0562C85.6064 17.0562 85.8976 16.7701 85.8976 16.4171C85.8976 16.0641 85.6064 15.778 85.2472 15.778C84.888 15.778 84.5968 16.0641 84.5968 16.4171C84.5968 16.7701 84.888 17.0562 85.2472 17.0562Z" fill="#3F3D56"/>
<path d="M48.2791 131.492L45.3001 131.492L43.883 120.2L48.2797 120.2L48.2791 131.492Z" fill="#FFB6B6"/>
<path d="M48.384 134.546L39.2231 134.546V134.432C39.2232 132.497 40.8196 130.928 42.7888 130.928H42.789L44.4623 129.68L47.5844 130.928L48.3841 130.928L48.384 134.546Z" fill="#2F2E41"/>
<path d="M36.3552 131.492L33.3762 131.492L31.959 120.2L36.3558 120.2L36.3552 131.492Z" fill="#FFB6B6"/>
<path d="M36.46 134.546L27.2992 134.546V134.432C27.2993 132.497 28.8956 130.928 30.8648 130.928H30.865L32.5384 129.68L35.6605 130.928L36.4602 130.928L36.46 134.546Z" fill="#2F2E41"/>
<path d="M36.064 8.86965C36.9787 9.85594 36.9066 11.3842 35.903 12.2831C35.4431 12.695 34.8674 12.9009 34.2906 12.9107L34.2889 12.9136L29.0494 21.7314L25.3414 19.957L31.7755 10.3221L31.7952 10.3356C31.8361 9.7352 32.1021 9.14872 32.5904 8.71136C33.5941 7.81245 35.1492 7.88332 36.064 8.86965Z" fill="#FFB6B6"/>
<path d="M33.1686 56.8845C33.1686 56.8845 28.5487 89.577 31.231 95.9473L31.6027 124.284H36.6594L41.0529 97.4849C41.0529 97.4849 40.6059 96.826 41.5 95.9473C42.3941 95.0686 42.3941 95.9473 42.3941 95.0686C42.3941 94.19 39.9353 91.1147 39.9353 91.1147L42.1086 78.5938L43.8969 124.284L48.591 124.064C48.591 124.064 53.0617 109.347 52.3911 102.537C52.3911 102.537 51.944 97.9243 51.944 97.2653C51.944 96.6063 51.2734 95.508 51.944 94.849C52.6146 94.19 52.8041 92.533 52.4858 92.2632C52.1675 91.9933 52.1675 90.7687 52.1675 90.7687L57.0852 73.1022V59.5729L33.1686 56.8845Z" fill="#2F2E41"/>
<path d="M49.0381 16.209L42.3322 16.868L39.0866 21.0941L35.1792 23.9095V47.2232L35.987 52.6235C34.2304 53.8642 31.7312 55.9238 32.735 58.1627C32.735 58.1627 51.8279 64.2414 57.1926 58.9694L56.7455 45.644L58.0998 27.3231C58.3682 23.6916 56.0143 20.3707 52.455 19.3594L49.626 18.5555L49.0381 16.209Z" fill="#93BDDB"/>
<path d="M55.8884 71.2492C57.2253 71.015 58.1159 69.7601 57.8776 68.4463C57.7684 67.8443 57.4396 67.3364 56.9884 66.9831L56.9888 66.9798L57.8838 54.754L53.9817 52.8567L53.389 67.5294L53.413 67.5304C53.0732 68.031 52.9203 68.6552 53.0362 69.2944C53.2746 70.6082 54.5515 71.4834 55.8884 71.2492Z" fill="#FFB6B6"/>
<path d="M58.1005 59.228L53.7645 59.4411L52.122 50.799L48.4329 26.8975C48.22 25.5182 48.6151 24.1093 49.517 23.0319C50.4188 21.9546 51.7494 21.3018 53.1676 21.241C55.8473 21.124 58.1351 23.0931 58.3754 25.7185L60.1675 45.3029L58.1005 59.228Z" fill="#73B4E2"/>
<path d="M35.4027 23.6776L35.8498 32.9035L25.5953 33.1435C21.8549 33.231 19.5083 29.2049 21.4777 26.0787L26.9203 16.6527L30.4581 19.7323L27.8027 26.0939L35.4027 23.6776Z" fill="#93BDDB"/>
<path d="M44.3546 14.5881C47.8128 14.5881 50.6163 11.8332 50.6163 8.43481C50.6163 5.03643 47.8128 2.28149 44.3546 2.28149C40.8964 2.28149 38.093 5.03643 38.093 8.43481C38.093 11.8332 40.8964 14.5881 44.3546 14.5881Z" fill="#FFB6B6"/>
<path d="M50.5884 12.6385C49.9055 13.4779 49.3223 13.97 48.3814 14.3216C48.3663 14.1937 48.3576 14.0638 48.3598 13.9338C48.2297 14.1085 48.1018 14.2832 47.9695 14.4579C47.3842 14.6347 46.6687 14.7732 45.743 14.9138L45.2877 13.5482C45.2162 12.9304 45.6324 12.3615 46.0964 11.9375C46.5603 11.5157 47.1023 11.1535 47.421 10.6166C47.7397 10.0798 47.7354 9.27869 47.2042 8.94207C46.6817 8.60758 45.9641 8.88242 45.3744 8.68429C44.6937 8.45632 44.375 7.63821 44.4877 6.93942C44.6005 6.24061 45.0319 5.63768 45.4503 5.06458C44.4747 5.48216 42.9983 5.53542 41.5609 5.28616C41.613 4.84514 41.5046 4.38283 41.2336 4.02703C41.2076 4.43396 41.0146 4.82596 40.7111 5.10081C39.3301 4.73649 38.0943 4.08882 37.5306 3.21531C37.78 3.1514 38.0293 3.08536 38.2786 3.02145C38.2071 2.51865 38.1355 2.01798 38.064 1.51732C38.3675 1.66433 38.6732 1.81346 38.9789 1.96047C39.0374 1.79002 39.1263 1.64089 39.239 1.50879C39.497 1.42785 39.7637 1.37883 40.0347 1.35967C40.1214 1.3554 40.2103 1.35114 40.2992 1.35114C40.4292 1.35114 40.5637 1.3554 40.6937 1.37032C40.5311 1.22545 40.3664 1.08269 40.2038 0.935702C40.1843 0.918654 40.1669 0.901608 40.1474 0.88456C40.4444 0.758867 40.7653 0.662993 41.0688 0.579902C42.3956 0.217717 43.7701 -0.146588 45.1316 0.0600628C46.0013 0.192287 46.8666 0.624515 47.431 1.26915C47.9349 1.84462 48.6463 2.18563 49.4035 2.33624C49.7673 2.40861 50.1198 2.56858 50.4128 2.79135C50.2286 2.90853 50.0334 3.0108 49.8296 3.09176C50.2156 3.18337 50.5993 3.27498 50.9852 3.36872C51.3451 3.8353 51.5901 4.39135 51.7765 4.94954C52.6394 7.52104 52.3098 10.525 50.5884 12.6385Z" fill="#2F2E41"/>
<path d="M28.8206 11.1429C28.821 11.1471 28.821 11.1511 28.8207 11.1545C28.8167 11.2119 28.7553 11.2271 28.7351 11.2321C28.628 11.2587 28.0234 11.2884 27.9288 11.1415C27.8999 11.0965 27.7463 11.1202 27.6342 11.1376C27.5556 11.1498 27.4742 11.1624 27.4026 11.1617C25.5695 11.1455 24.1684 11.2737 23.3508 11.5322C22.7316 11.728 22.233 12.1512 21.9466 12.7238C21.6611 13.2947 21.6218 13.9379 21.8443 14.5372L22.4737 16.2533C22.691 16.8461 23.1319 17.3167 23.7152 17.5784C24.3024 17.8419 24.9584 17.8607 25.5625 17.6316C26.69 17.204 28.2799 16.0552 29.4151 15.1668C29.4615 15.1305 29.528 15.0902 29.5923 15.0512C29.6472 15.018 29.725 14.9709 29.7608 14.9409C29.7512 14.9229 29.7538 14.906 29.7549 14.8993C29.7638 14.8471 29.8142 14.8347 29.8777 14.819C29.9171 14.8093 30.0094 14.7864 30.0232 14.7597C30.0252 14.7557 30.0225 14.7474 30.0204 14.7429C29.9979 14.69 30.0207 14.6597 30.036 14.6466C30.0815 14.6075 30.1303 14.635 30.2187 14.6851C30.2863 14.7232 30.4445 14.8126 30.4894 14.7783C30.5009 14.7695 30.5539 14.7083 30.4581 14.3737C30.4307 14.2784 30.4436 14.1904 30.4953 14.1194C30.6201 13.9476 30.9337 13.9283 30.9469 13.9275L31.7967 13.9434C33.3651 13.9731 34.8391 13.3098 35.8407 12.1235L35.8527 12.1094L36.6495 11.8448L35.8517 9.52502L35.0329 9.79694L35.0111 9.78903C33.7005 9.31342 32.2264 9.68216 30.5043 10.9163L30.0154 11.2668L29.9968 11.2682C29.6594 11.2932 29.2409 11.3044 29.1634 11.2157C29.1512 11.2016 29.1437 11.185 29.1421 11.1674C29.0888 11.1442 28.9235 11.1355 28.8206 11.1429Z" fill="#6C63FF"/>
<path d="M37.0678 9.03593C37.036 8.94341 36.9336 8.8936 36.8394 8.92487L35.6899 9.30663C35.5958 9.3379 35.5451 9.43856 35.5769 9.53108L36.4692 12.1258C36.5011 12.2183 36.6035 12.2681 36.6976 12.2369L37.8471 11.8551C37.9413 11.8238 37.992 11.7232 37.9601 11.6307L37.0678 9.03593Z" fill="#3F3D56"/>
<path d="M37.2282 10.948C37.5985 10.948 37.8988 10.653 37.8988 10.289C37.8988 9.92505 37.5985 9.63 37.2282 9.63C36.8578 9.63 36.5576 9.92505 36.5576 10.289C36.5576 10.653 36.8578 10.948 37.2282 10.948Z" fill="#3F3D56"/>
</g>
<defs>
<clipPath id="clip0_172_149">
<rect width="117" height="135" fill="white"/>
</clipPath>
</defs>
</svg>
