<svg width="132" height="101" viewBox="0 0 132 101" fill="none" xmlns="http://www.w3.org/2000/svg">
<path d="M71.056 74.2207C91.4512 74.2207 107.985 57.7116 107.985 37.3466C107.985 16.9816 91.4512 0.472443 71.056 0.472443C50.6609 0.472443 34.1273 16.9816 34.1273 37.3466C34.1273 57.7116 50.6609 74.2207 71.056 74.2207Z" fill="#F2F2F2"/>
<path d="M5.28218 89.6265C6.28526 89.9785 7.36225 90.0667 8.40937 89.8826C9.45649 89.6984 10.4385 89.248 11.2607 88.5749C13.3547 86.8199 14.0112 83.9287 14.5454 81.2515L16.1255 73.333L12.8175 75.6073C10.4386 77.243 8.00605 78.931 6.3589 81.3001C4.71175 83.6692 3.99277 86.9032 5.3162 89.4667" fill="#E6E6E6"/>
<path d="M5.56496 99.2135C5.23015 96.7783 4.88588 94.3119 5.12073 91.8506C5.3293 89.6647 5.99717 87.5297 7.35687 85.7791C8.0786 84.8517 8.9568 84.0571 9.95199 83.431C10.2115 83.2674 10.4504 83.6781 10.192 83.8409C8.47 84.9276 7.13811 86.5323 6.38834 88.4235C5.56023 90.5267 5.42725 92.8193 5.56996 95.0535C5.65625 96.4046 5.83915 97.7468 6.02345 99.0873C6.03798 99.1479 6.02892 99.2118 5.9981 99.266C5.96728 99.3202 5.91699 99.3607 5.85741 99.3793C5.79662 99.3957 5.73183 99.3874 5.67708 99.3564C5.62233 99.3254 5.58205 99.274 5.56496 99.2135Z" fill="#F2F2F2"/>
<path d="M27.7223 95.8595C28.1139 96.3213 28.6179 96.6747 29.1859 96.8855C29.754 97.0963 30.3668 97.1575 30.9654 97.0632C32.5016 96.8031 33.659 95.5705 34.6945 94.4079L37.7573 90.9694L35.4743 91.1355C33.8325 91.255 32.1492 91.3848 30.6554 92.0755C29.1616 92.7662 27.8745 94.1494 27.7852 95.7907" fill="#E6E6E6"/>
<path d="M25.0937 100.655C25.632 99.3609 26.1748 98.0491 27.0008 96.9065C27.7344 95.8918 28.6791 95.0343 29.8529 94.565C30.4755 94.3167 31.1367 94.1788 31.8068 94.1574C31.9816 94.1517 31.9805 94.4223 31.8064 94.428C30.646 94.4667 29.528 94.8723 28.6134 95.5864C27.5991 96.3821 26.8718 97.4711 26.297 98.6106C25.9494 99.2998 25.6519 100.012 25.3555 100.724C25.3452 100.758 25.3223 100.787 25.2915 100.805C25.2607 100.823 25.2243 100.828 25.1896 100.82C25.155 100.811 25.1255 100.788 25.1075 100.757C25.0896 100.726 25.0846 100.689 25.0937 100.655Z" fill="#F2F2F2"/>
<path d="M8.78976 94.9044C9.21997 95.5573 9.81131 96.0885 10.5068 96.447C11.2023 96.8054 11.9786 96.9789 12.7607 96.9509C14.7709 96.8556 16.4468 95.4547 17.9553 94.1247L22.4174 90.1908L19.4643 90.0497C17.3405 89.9482 15.162 89.8536 13.1392 90.5075C11.1165 91.1615 9.25094 92.7353 8.88106 94.826" fill="#E6E6E6"/>
<path d="M4.61879 100.613C6.2303 97.7661 8.0995 94.6017 11.4395 93.5903C12.3681 93.3101 13.3419 93.2097 14.3083 93.2946C14.6129 93.3208 14.5369 93.7896 14.2328 93.7634C12.6129 93.6291 10.9961 94.0562 9.65455 94.9729C8.36365 95.8503 7.35854 97.0701 6.50782 98.3636C5.98673 99.1559 5.51998 99.9819 5.05313 100.807C4.90394 101.07 4.46785 100.88 4.61879 100.613Z" fill="#F2F2F2"/>
<path d="M74.2139 52.0142C77.4181 50.2557 81.4061 50.6086 84.8584 51.8109C88.3108 53.0132 91.4394 54.9829 94.792 56.4398C105.037 60.8917 117.385 60.1738 127.043 54.5648C127.957 56.6864 126.977 59.1132 125.9 61.1571C124.824 63.2011 123.597 65.4165 124.04 67.6831C124.607 70.5835 127.653 72.3225 128.887 75.0085C130.058 77.5583 129.429 80.5527 128.531 83.2106C127.632 85.8685 126.466 88.5463 126.618 91.3474C126.771 94.1486 128.809 97.1106 131.619 97.1128C127.455 97.7587 123.21 98.4052 119.049 97.7432C114.888 97.0812 110.749 94.8838 108.817 91.1449C107.851 89.2761 107.479 87.1274 106.37 85.3397C104.481 82.2947 100.856 80.8627 97.4353 79.7835C94.0149 78.7043 90.3545 77.6647 87.9463 75.0101C85.6516 72.4808 84.9248 68.9574 83.7091 65.7677C81.6616 60.4283 78.1054 55.7974 73.4724 52.4377" fill="#8E8CAF"/>
<path d="M77.9265 38.7621C76.8017 38.2396 75.4206 38.0683 74.2761 38.5538C73.1316 39.0394 72.3513 40.2838 72.7214 41.3852C72.8892 41.8846 73.2713 42.3756 73.1224 42.88C73.0078 43.2681 72.6081 43.5244 72.2155 43.7067C71.8229 43.8889 71.3934 44.0421 71.1094 44.3494C70.8255 44.6568 70.7663 45.1859 71.121 45.4242C71.2378 45.5027 71.3839 45.54 71.4972 45.6227C71.5938 45.7011 71.6635 45.8076 71.6966 45.9274C71.7296 46.0471 71.7245 46.1742 71.6817 46.2909C71.5873 46.5258 71.4312 46.7308 71.2299 46.8845C70.8273 47.2312 70.2951 47.6281 70.4201 48.1203C70.4665 48.2519 70.544 48.3703 70.646 48.4656C70.748 48.5608 70.8715 48.6301 71.0061 48.6675C71.2855 48.748 71.5754 48.7862 71.8662 48.7809L83.7477 49.1546C84.14 49.1841 84.5344 49.1621 84.9209 49.0892C85.1087 49.055 85.2875 48.9824 85.446 48.8761C85.6045 48.7698 85.7394 48.6319 85.8422 48.4712C86.0697 48.0507 85.9203 47.5326 85.6393 47.14C85.3583 46.7473 84.9607 46.4375 84.6321 46.0769C84.3035 45.7163 84.0346 45.2662 84.0926 44.8002C84.1389 44.4271 84.3853 44.1047 84.5622 43.7657C84.7391 43.4267 84.8418 43.0031 84.6127 42.6913C84.2899 42.2519 83.5149 42.2916 83.1478 41.8822C82.8708 41.5731 82.9243 41.1283 82.8968 40.7298C82.8305 39.7713 82.1659 38.8661 81.2199 38.4458C80.7388 38.2396 80.2155 38.1505 79.6932 38.1861C79.1709 38.2216 78.6646 38.3806 78.2159 38.65L77.9265 38.7621Z" fill="#2F2E41"/>
<path d="M70.4183 98.9247L68.5574 98.3663L69.8284 90.9334L72.5749 91.7575L70.4183 98.9247Z" fill="#A0616A"/>
<path d="M70.351 100.868L64.3506 99.0681L64.3734 98.9923C64.4656 98.6861 64.6172 98.4009 64.8197 98.1532C65.0222 97.9055 65.2716 97.7 65.5536 97.5485C65.8356 97.397 66.1448 97.3024 66.4634 97.2703C66.782 97.2381 67.1039 97.2688 67.4106 97.3609L71.0755 98.4604L70.351 100.868Z" fill="#2F2E41"/>
<path d="M87.9787 98.9875L86.0356 98.9873L85.1112 91.5036L87.979 91.5038L87.9787 98.9875Z" fill="#A0616A"/>
<path d="M88.4743 100.868L82.209 100.868V100.789C82.209 100.469 82.2721 100.152 82.3946 99.857C82.5172 99.5616 82.6968 99.2932 82.9232 99.067C83.1497 98.8409 83.4185 98.6616 83.7144 98.5392C84.0103 98.4168 84.3274 98.3539 84.6476 98.3539L88.4744 98.354L88.4743 100.868Z" fill="#2F2E41"/>
<path d="M85.2814 93.3272C85.1119 93.3271 84.9479 93.2667 84.8189 93.1569C84.6899 93.047 84.6043 92.8949 84.5775 92.7277L81.6924 74.7567C81.6733 74.6377 81.6158 74.5282 81.5287 74.4447C81.4415 74.3613 81.3295 74.3085 81.2096 74.2943C81.0897 74.2802 80.9685 74.3055 80.8643 74.3665C80.7601 74.4274 80.6787 74.5205 80.6323 74.6319L73.1576 92.5999C73.088 92.7658 72.9583 92.8993 72.7945 92.974C72.6306 93.0486 72.4445 93.0588 72.2735 93.0025L69.5737 92.1038C69.4056 92.0484 69.2642 91.9323 69.1773 91.7784C69.0903 91.6244 69.064 91.4435 69.1036 91.2712L75.2291 64.2057C75.2591 64.0753 75.325 63.9559 75.4195 63.8611C75.514 63.7662 75.6331 63.6996 75.7635 63.6689L83.9786 61.7648C84.0795 61.7419 84.1842 61.7409 84.2856 61.7619C84.387 61.7829 84.4827 61.8254 84.5662 61.8865C89.9756 65.8112 89.5186 78.6336 88.5104 92.5566C88.4979 92.7309 88.4216 92.8945 88.2961 93.0163C88.1706 93.1381 88.0046 93.2096 87.8298 93.2172L85.3127 93.3266C85.3022 93.3269 85.2918 93.3272 85.2814 93.3272Z" fill="#2F2E41"/>
<path d="M78.3661 49.0627C80.516 49.0627 82.2589 47.3224 82.2589 45.1757C82.2589 43.029 80.516 41.2887 78.3661 41.2887C76.2162 41.2887 74.4734 43.029 74.4734 45.1757C74.4734 47.3224 76.2162 49.0627 78.3661 49.0627Z" fill="#A0616A"/>
<path d="M78.5342 65.3215C77.5998 65.3156 76.6783 65.1029 75.8361 64.6989L75.8071 64.6854L75.7956 64.6556L72.3041 55.6228L72.2377 54.0534C72.2155 53.5285 72.3035 53.0048 72.4963 52.516C72.689 52.0272 72.9821 51.5842 73.3567 51.2153C73.7313 50.8465 74.1791 50.5601 74.6713 50.3746C75.1635 50.189 75.6891 50.1084 76.2143 50.138L79.9211 50.3465C80.8786 50.4009 81.7794 50.8175 82.4401 51.5117C83.1007 52.2059 83.4716 53.1254 83.4772 54.083C83.5734 54.2677 84.2572 55.7118 82.9172 57.0686C82.8671 57.3776 82.3984 60.5894 84.1672 62.3556L84.2169 62.4052L84.1735 62.4604C84.1453 62.4962 81.8737 65.3211 78.5342 65.3215Z" fill="#3F3D56"/>
<path d="M83.7393 66.0029C83.9583 65.9236 84.1573 65.7973 84.3222 65.633C84.487 65.4686 84.6138 65.2701 84.6936 65.0515C84.7733 64.8329 84.8041 64.5995 84.7837 64.3677C84.7633 64.1359 84.6923 63.9114 84.5757 63.7101L88.2779 59.4302L85.3593 59.0509L82.2911 63.1733C81.9653 63.3914 81.7309 63.7212 81.6323 64.1004C81.5338 64.4795 81.578 64.8816 81.7565 65.2304C81.935 65.5792 82.2354 65.8505 82.6009 65.9929C82.9663 66.1352 83.3714 66.1388 83.7393 66.0029Z" fill="#A0616A"/>
<path d="M86.054 62.6996C85.9149 62.6996 85.7789 62.6589 85.6627 62.5825L83.8317 61.3833C83.6777 61.2829 83.5687 61.1269 83.5273 60.948C83.486 60.7691 83.5156 60.5812 83.6099 60.4236L84.9355 58.1998C85.0073 58.0794 85.0527 57.9454 85.0688 57.8063C85.0849 57.6672 85.0714 57.5263 85.0292 57.3928C84.9869 57.2593 84.9168 57.1362 84.8235 57.0317C84.7303 56.9272 84.6159 56.8435 84.488 56.7863L80.6797 55.0814C80.2114 54.8691 79.8291 54.5043 79.5955 54.0467C79.3619 53.5891 79.2909 53.0659 79.394 52.5627C79.4652 52.2234 79.6139 51.9051 79.8284 51.6325C80.0429 51.3599 80.3175 51.1404 80.6308 50.991C80.9441 50.8416 81.2877 50.7665 81.6349 50.7714C81.9821 50.7762 82.3234 50.861 82.6324 51.0191L88.4098 53.9752C88.7995 54.1746 89.1415 54.4558 89.4123 54.7994C89.6831 55.1431 89.8764 55.5411 89.9788 55.9663C90.0812 56.3915 90.0904 56.8337 90.0058 57.2628C89.9211 57.6918 89.7446 58.0975 89.4883 58.4521L86.6322 62.4038C86.5663 62.4954 86.4795 62.57 86.3789 62.6215C86.2784 62.6729 86.167 62.6997 86.054 62.6996Z" fill="#3F3D56"/>
<path d="M74.3837 44.6231C75.6131 44.5245 76.6337 43.2983 76.5059 42.0734C76.4915 42.5783 76.6634 43.0708 76.989 43.4573C77.3146 43.8438 77.7711 44.0974 78.2717 44.1697C78.8356 44.2317 79.4538 44.0614 79.9446 44.3454C80.4882 44.66 80.6622 45.4241 81.2285 45.6958C81.7757 45.9584 82.4708 45.6003 82.7411 45.0575C83.0114 44.5147 82.9451 43.8626 82.7659 43.2834C82.5104 42.4574 82.0452 41.7115 81.4154 41.1182C80.7857 40.525 80.0129 40.1045 79.1722 39.8978C78.3316 39.6911 77.4516 39.7051 76.618 39.9386C75.7844 40.172 75.0255 40.6169 74.4151 41.23C73.8981 41.7492 73.4877 42.4108 73.4212 43.1399C73.3546 43.8689 73.6933 44.66 74.349 44.9875L74.3837 44.6231Z" fill="#2F2E41"/>
<path d="M65.3273 33.8561C65.5324 33.9665 65.7108 34.1204 65.8499 34.3071C65.9889 34.4938 66.0853 34.7086 66.1322 34.9365C66.1791 35.1644 66.1754 35.3998 66.1214 35.6261C66.0673 35.8524 65.9642 36.0641 65.8194 36.2463L68.8559 41.0202L65.9132 40.9698L63.4808 36.4442C63.1904 36.1809 63.0067 35.8204 62.9647 35.431C62.9227 35.0415 63.0252 34.6502 63.2528 34.3312C63.4804 34.0122 63.8173 33.7876 64.1997 33.7C64.582 33.6125 64.9832 33.668 65.3273 33.8561Z" fill="#A0616A"/>
<path d="M67.7749 37.2554L71.6855 46.4822L75.7855 53.424C75.9585 53.7171 76.0626 54.0456 76.0899 54.3847C76.1172 54.7238 76.067 55.0647 75.9431 55.3816C75.8191 55.6984 75.6247 55.9831 75.3744 56.2139C75.1241 56.4448 74.8246 56.6159 74.4985 56.7142C73.9812 56.8675 73.426 56.831 72.9333 56.6113C72.4407 56.3917 72.0429 56.0033 71.8119 55.5163L63.9099 38.6567C63.867 38.5651 63.8441 38.4655 63.8427 38.3644C63.8414 38.2632 63.8616 38.163 63.9021 38.0703C63.9426 37.9776 64.0024 37.8946 64.0775 37.8267C64.1526 37.7589 64.2413 37.7078 64.3377 37.6769L66.8999 36.855C66.9485 36.8395 66.9985 36.829 67.0493 36.8238C67.2006 36.8086 67.3528 36.8423 67.4835 36.92C67.6141 36.9977 67.7163 37.1153 67.7749 37.2554Z" fill="#3F3D56"/>
<path d="M79.2104 17.598V30.5751C79.2104 30.6171 79.1937 30.6574 79.164 30.687C79.1342 30.7167 79.0939 30.7334 79.0519 30.7334C79.0099 30.7334 78.9695 30.7167 78.9398 30.687C78.9101 30.6574 78.8934 30.6171 78.8934 30.5751V17.598C78.8934 17.556 78.9101 17.5157 78.9398 17.4861C78.9695 17.4564 79.0099 17.4397 79.0519 17.4397C79.0939 17.4397 79.1342 17.4564 79.164 17.4861C79.1937 17.5157 79.2104 17.556 79.2104 17.598Z" fill="#CCCCCC"/>
<path d="M92.9716 28.6072L88.4888 33.0834C88.459 33.113 88.4187 33.1296 88.3768 33.1295C88.3348 33.1295 88.2945 33.1128 88.2649 33.0832C88.2352 33.0535 88.2185 33.0134 88.2184 32.9714C88.2184 32.9295 88.235 32.8893 88.2646 32.8596L92.7474 28.3834C92.7622 28.3686 92.7796 28.3569 92.7989 28.3489C92.8181 28.3409 92.8387 28.3368 92.8596 28.3368C92.8804 28.3368 92.9011 28.3408 92.9203 28.3488C92.9396 28.3568 92.9571 28.3684 92.9718 28.3831C92.9866 28.3979 92.9983 28.4153 93.0062 28.4346C93.0142 28.4538 93.0183 28.4744 93.0183 28.4952C93.0182 28.516 93.0141 28.5366 93.0061 28.5559C92.9981 28.5751 92.9864 28.5925 92.9716 28.6072Z" fill="#CCCCCC"/>
<path d="M65.1322 28.6072L69.615 33.0834C69.6447 33.1131 69.6851 33.1298 69.7271 33.1298C69.7691 33.1298 69.8094 33.1131 69.8392 33.0834C69.8689 33.0537 69.8856 33.0135 69.8856 32.9715C69.8856 32.9295 69.8689 32.8893 69.8392 32.8596L65.3563 28.3834C65.3416 28.3686 65.3242 28.3569 65.3049 28.3489C65.2857 28.3409 65.265 28.3368 65.2442 28.3368C65.2233 28.3368 65.2027 28.3408 65.1834 28.3488C65.1642 28.3568 65.1467 28.3684 65.1319 28.3831C65.1172 28.3979 65.1055 28.4153 65.0975 28.4346C65.0896 28.4538 65.0855 28.4744 65.0855 28.4952C65.0855 28.516 65.0897 28.5366 65.0977 28.5559C65.1057 28.5751 65.1174 28.5925 65.1322 28.6072Z" fill="#CCCCCC"/>
</svg>
