<svg width="111" height="101" viewBox="0 0 111 101" fill="none" xmlns="http://www.w3.org/2000/svg">
<g clip-path="url(#clip0_105_722)">
<path d="M71.1152 80.6589L72.1818 83.0358C71.3148 82.8986 70.5085 83.6345 70.4903 84.5796C70.4722 85.5247 71.2456 86.5079 72.1127 86.6423C71.947 87.376 71.2318 87.6995 70.6111 87.9961C69.9904 88.2927 69.3214 88.7845 69.3676 89.5664C69.4046 90.1941 69.927 90.7484 70.4817 90.9712C71.0364 91.1941 71.6184 91.1598 72.1802 91.1224C71.3289 92.0075 71.2459 93.671 71.9935 94.8644C72.7412 96.0579 74.2342 96.6455 75.3522 96.1861C74.5623 97.1626 74.7339 98.951 75.7142 99.9588C76.7024 100.975 78.1346 101.073 79.3867 100.966C82.5751 100.698 85.6132 99.5016 88.1207 97.5261C89.0779 96.7702 89.972 95.8812 90.518 94.7216C91.064 93.5621 91.2249 92.0939 90.7163 90.7743C90.8535 92.4273 92.5183 93.733 94.016 93.806C95.5136 93.8791 96.8212 93.0407 97.9324 92.0847C99.4102 90.8133 100.778 89.0311 100.576 86.8321C100.475 85.7436 99.9967 84.6966 99.5275 83.6825L98.6178 81.7165C98.2506 80.9227 97.875 80.1156 97.3223 79.4496C96.7695 78.7835 96.0023 78.2679 95.2345 78.2728C95.4101 77.4757 95.5864 76.6489 95.4393 75.8021C95.2922 74.9552 94.7289 74.0783 93.9627 73.88C92.9877 73.6276 92.1614 74.5219 91.1809 74.4376C90.2374 74.3564 89.4577 73.4154 88.5415 73.0425C88.1642 72.8803 87.7476 72.831 87.3426 72.9007C86.9376 72.9703 86.5618 73.1558 86.2613 73.4344C85.6805 73.9979 85.4384 74.95 85.6468 75.8509C85.8294 76.64 86.3153 77.336 86.6102 78.0971C86.9051 78.8582 86.9509 79.8368 86.3845 80.2525C85.701 80.754 84.6607 80.0715 84.1267 79.2458C83.5927 78.4201 83.2861 77.4203 82.6109 76.7258C81.8139 75.9062 80.5664 75.7142 79.7458 76.2847C78.9253 76.8553 78.6114 78.133 79.0251 79.2191C79.3634 80.1071 80.1382 81.0055 79.8695 81.8418C79.5854 82.7256 78.3427 82.6137 77.593 81.989C76.8434 81.3644 76.3456 80.4236 75.6051 79.7849C74.8531 79.1363 73.871 78.8521 73.0089 79.0336C72.5715 79.1345 72.1668 79.3432 71.832 79.6405C71.4972 79.9378 71.2432 80.3141 71.0934 80.7347" fill="#E6E6E6"/>
<path d="M88.3844 73.9792L86.1713 75.0011C85.8386 75.1644 85.4613 75.215 85.097 75.1451C84.7757 75.0696 84.5586 74.8743 84.5015 74.6092L83.9865 72.2188C83.8893 71.7679 84.2651 71.2344 84.88 70.9504L86.1022 70.3861C86.7171 70.1021 87.3698 70.1608 87.6538 70.5255L89.1599 72.4582C89.3269 72.6725 89.3371 72.9633 89.1879 73.2561C89.0067 73.5779 88.7245 73.8318 88.3844 73.9792Z" fill="#3F3D56"/>
<path d="M19.7591 29.7988C21.8398 24.1392 25.0867 18.9738 29.292 14.6334C32.8599 10.9524 38.4127 11.1054 38.4127 11.1054L38.4444 11.0663C39.7809 9.42837 41.5742 8.21919 43.5995 7.59041C45.6248 6.96163 47.7918 6.94125 49.8287 7.53183C50.3581 7.68282 50.7654 7.74975 50.959 7.6825C54.4901 6.45429 54.3242 3.68211 57.3707 1.44886C62.7049 -2.46142 80.3981 2.01773 82.893 9.21313C84.9151 15.0448 93.9412 17.8714 97.3134 22.3322C97.8407 23.0297 98.358 23.7353 98.8654 24.4489C99.1033 24.7805 99.3386 25.1145 99.5711 25.4511C101.96 28.8897 104.104 32.4907 105.985 36.2277C107.219 38.6692 108.292 41.1881 109.196 43.7683C112.713 53.9858 111.51 61.5984 101.813 59.7177C100.665 59.4945 99.5449 59.2948 98.4522 59.1186C96.8699 58.8619 95.3428 58.651 93.8708 58.4859C91.8886 58.2618 90.0029 58.115 88.2135 58.0455C87.6118 58.0214 87.0212 58.0053 86.4416 57.9971C77.8719 57.879 71.5153 59.482 66.6727 61.9703C65.8518 62.3911 65.0739 62.8362 64.3389 63.3056C63.2164 64.0188 62.1445 64.8079 61.131 65.6673C59.7285 66.8635 58.4351 68.1806 57.266 69.6033L57.2017 69.6814C51.5377 76.567 49.6736 84.1897 45.7336 85.5319C28.8913 91.2701 18.2393 70.4688 17.1469 50.1205C17.0917 49.0952 17.0612 48.0728 17.0555 47.0533C17.0521 46.5976 17.0543 46.1431 17.0622 45.6898C17.0795 44.5072 17.132 43.3323 17.2198 42.1716C17.2526 41.7278 17.2907 41.2864 17.334 40.8473C17.3817 40.3738 17.4336 39.9031 17.4936 39.4354C17.922 36.0068 18.6716 32.7448 19.7591 29.7988Z" fill="#8E8CAF"/>
<path d="M71.9619 40.9942C70.6168 41.6166 70.5947 44.4043 71.0164 45.3075L71.7808 46.9425L76.6528 44.6928L75.8885 43.0578C75.4659 42.155 73.308 40.374 71.9619 40.9942Z" fill="#3F3D56"/>
<path d="M58.8694 64.4673C58.7836 64.4673 58.6992 64.4467 58.6231 64.4074C58.5471 64.368 58.4818 64.311 58.4326 64.2412C58.3835 64.1714 58.352 64.0908 58.3409 64.0063C58.3298 63.9218 58.3394 63.8359 58.3688 63.7559C58.3926 63.6905 58.4293 63.6305 58.4766 63.5793C58.524 63.528 58.5811 63.4867 58.6447 63.4576L83.8054 51.8396C83.8688 51.8103 83.9374 51.7937 84.0073 51.7907C84.0772 51.7878 84.147 51.7986 84.2127 51.8224C84.2784 51.8463 84.3387 51.8828 84.3902 51.9298C84.4417 51.9768 84.4834 52.0335 84.5129 52.0965C84.5722 52.2239 84.5783 52.3694 84.5298 52.5012C84.4814 52.633 84.3822 52.7404 84.2543 52.7997L59.0935 64.4176C59.0234 64.4503 58.9468 64.4672 58.8694 64.4673Z" fill="#3F3D56"/>
<path d="M78.5507 45.7354L71.3586 49.0564L82.6405 73.1893L89.8326 69.8683L78.5507 45.7354Z" fill="#E6E6E6"/>
<path d="M51.5522 15.3562C50.2071 15.9785 50.185 18.7662 50.6067 19.6695L51.371 21.3044L56.2431 19.0547L55.4788 17.4198C55.0562 16.5169 52.8982 14.7359 51.5522 15.3562Z" fill="#3F3D56"/>
<path d="M81.6897 76.7535L79.4765 77.7754C79.1439 77.9387 78.7665 77.9893 78.4022 77.9194C78.0809 77.8439 77.8638 77.6486 77.8068 77.3835L77.2918 74.9931C77.1946 74.5422 77.5703 74.0087 78.1853 73.7247L79.4075 73.1604C80.0224 72.8764 80.675 72.9351 80.9591 73.2998L82.4652 75.2325C82.6322 75.4468 82.6423 75.7376 82.4932 76.0304C82.312 76.3522 82.0298 76.6061 81.6897 76.7535Z" fill="#3F3D56"/>
<path d="M74.8853 80.1086L72.6722 81.1306C72.3395 81.2938 71.9622 81.3444 71.5979 81.2745C71.2766 81.199 71.0595 81.0038 71.0024 80.7387L70.4875 78.3482C70.3902 77.8973 70.766 77.3638 71.3809 77.0798L72.6031 76.5155C73.2181 76.2315 73.8707 76.2902 74.1547 76.6549L75.6608 78.5876C75.8279 78.8019 75.838 79.0928 75.6888 79.3855C75.5076 79.7073 75.2254 79.9613 74.8853 80.1086Z" fill="#3F3D56"/>
<path d="M60.06 24.2024L52.8679 27.5234L75.673 76.3052L82.8651 72.9843L60.06 24.2024Z" fill="#E6E6E6"/>
<path d="M67.5225 49.3494L66.7155 47.5845L67.1801 47.3716L67.9846 49.1308L79.6348 74.8031L79.1707 75.0174" fill="#3F3D56"/>
<path d="M76.6247 47.8824L75.8177 46.1176L76.2823 45.9046L77.0868 47.6639L88.737 73.3361L88.273 73.5504" fill="#3F3D56"/>
<path d="M63.4547 28.1063L53.7097 32.6061C53.0893 31.6468 51.219 26.731 51.639 25.2724L51.3237 23.8816L58.0524 20.7746L58.9531 21.8757C60.29 22.2834 62.8927 26.9007 63.4547 28.1063Z" fill="#E6E6E6"/>
<path d="M58.3336 20.8341L51.39 24.0403C51.1337 24.1587 50.8607 24.1152 50.7803 23.9431C50.7688 23.9183 50.7616 23.8918 50.7592 23.8646L50.3998 20.0544C50.3844 19.8913 50.5249 19.7064 50.7394 19.6073L55.3443 17.481C55.5588 17.3819 55.7916 17.3945 55.9071 17.5114L58.6053 20.2416C58.7433 20.3812 58.6683 20.6203 58.4379 20.7755C58.4048 20.7978 58.3699 20.8174 58.3336 20.8341Z" fill="#E6E6E6"/>
<path d="M63.7797 50.6851C63.7045 50.6853 63.6296 50.6765 63.5566 50.6589C63.4536 50.6377 63.3568 50.5934 63.2738 50.5292C63.1907 50.4651 63.1235 50.383 63.0773 50.2891L58.8321 41.2084C58.6565 40.8324 58.8923 40.3517 59.3579 40.1367L65.574 37.2664C66.0396 37.0512 66.5614 37.1823 66.7372 37.5582L70.9823 46.639C71.0247 46.7346 71.0446 46.8386 71.0403 46.9431C71.036 47.0475 71.0077 47.1496 70.9576 47.2415C70.8486 47.4496 70.672 47.6149 70.4565 47.7107L64.2405 50.5809C64.0963 50.6484 63.9391 50.684 63.7797 50.6851Z" fill="#3F3D56"/>
<path d="M64.6298 52.0596L57.4377 55.3806L68.7196 79.5135L75.9117 76.1925L64.6298 52.0596Z" fill="#E6E6E6"/>
<path d="M55.7692 21.2321L53.6601 22.206C53.2531 22.394 52.704 22.0808 52.4363 21.5081C52.1685 20.9353 52.2818 20.3163 52.6888 20.1283L54.7979 19.1545C55.2049 18.9665 55.754 19.2797 56.0218 19.8524C56.2895 20.4252 56.1762 21.0442 55.7692 21.2321Z" fill="#3F3D56"/>
<path d="M58.1814 47.2536C56.8363 47.876 56.8141 50.6636 57.2359 51.5669L58.0002 53.2018L62.8723 50.9521L62.108 49.3172C61.6854 48.4143 59.5274 46.6333 58.1814 47.2536Z" fill="#3F3D56"/>
<path d="M35.8382 41.6891C35.3632 42.0037 34.877 41.255 35.3612 40.9544C35.8362 40.6399 36.3224 41.3886 35.8382 41.6891Z" fill="#E6E6E6"/>
<path d="M85.2853 30.9315C84.8103 31.2461 84.3241 30.4974 84.8083 30.1968C85.2833 29.8823 85.7695 30.631 85.2853 30.9315Z" fill="#E6E6E6"/>
<path d="M51.5826 39.4887C51.1075 39.8033 50.6213 39.0546 51.1055 38.754C51.5805 38.4395 52.0667 39.1882 51.5826 39.4887Z" fill="#E6E6E6"/>
<path d="M35.8382 68.8276C35.3632 69.1422 34.877 68.3935 35.3612 68.0929C35.8362 67.7784 36.3224 68.527 35.8382 68.8276Z" fill="#E6E6E6"/>
<path d="M60.0698 7.58267C59.5947 7.89723 59.1085 7.14855 59.5927 6.84796C60.0677 6.53341 60.5539 7.2821 60.0698 7.58267Z" fill="#E6E6E6"/>
<path d="M36.6992 22.0076C36.2242 22.3222 35.738 21.5735 36.2222 21.2729C36.6972 20.9584 37.1834 21.7071 36.6992 22.0076Z" fill="#E6E6E6"/>
<path d="M70.3132 17.8723L70.011 17.8064L70.0772 17.5059L69.8757 17.462L69.8094 17.7625L69.5072 17.6967L69.463 17.897L69.7652 17.9629L69.6991 18.2632L69.9005 18.3071L69.9668 18.0066L70.2691 18.0725L70.3132 17.8723Z" fill="#E6E6E6"/>
<path d="M21.1001 42.9055L20.7979 42.8396L20.8641 42.5392L20.6626 42.4953L20.5963 42.7957L20.294 42.7299L20.2498 42.9301L20.5522 42.996L20.486 43.2965L20.6875 43.3403L20.7538 43.0399L21.056 43.1057L21.1001 42.9055Z" fill="#E6E6E6"/>
<path d="M83.0797 55.675C82.8282 55.7908 82.5407 55.8027 82.2804 55.7081C82.02 55.6135 81.8081 55.4202 81.691 55.1705L80.4471 52.5097C80.3307 52.2599 80.3188 51.9743 80.4141 51.7157C80.5094 51.4572 80.704 51.2468 80.9553 51.1308C81.2066 51.0147 81.4939 51.0026 81.7542 51.097C82.0145 51.1913 82.2264 51.3845 82.3435 51.6341L83.5873 54.2948C83.7038 54.5448 83.7158 54.8305 83.6207 55.0892C83.5255 55.348 83.3309 55.5586 83.0797 55.675Z" fill="#3F3D56"/>
<path d="M61.9232 65.4546C61.6717 65.5704 61.3842 65.5823 61.1239 65.4878C60.8635 65.3932 60.6516 65.1998 60.5345 64.9501L59.2906 62.2894C59.1742 62.0395 59.1623 61.7539 59.2576 61.4954C59.3529 61.2368 59.5475 61.0264 59.7988 60.9104C60.0501 60.7944 60.3374 60.7822 60.5977 60.8766C60.858 60.971 61.0699 61.1642 61.187 61.4137L62.4308 64.0745C62.5474 64.3244 62.5593 64.6101 62.4642 64.8689C62.369 65.1276 62.1744 65.3383 61.9232 65.4546Z" fill="#3F3D56"/>
<path d="M81.1635 49.8616L72.8232 53.7128C72.2922 52.8918 70.6915 48.6845 71.0509 47.4362L71.2273 46.0398L76.2073 43.6117L77.3108 44.5291C78.8655 44.0067 81.1509 47.8356 81.1635 49.8616Z" fill="#E6E6E6"/>
<path d="M77.2914 49.5946L75.1823 50.5685C74.7753 50.7564 74.156 50.2931 73.802 49.5359C73.448 48.7786 73.4911 48.0094 73.8981 47.8215L76.0072 46.8476C76.4142 46.6597 77.0335 47.123 77.3875 47.8802C77.7415 48.6375 77.6984 49.4067 77.2914 49.5946Z" fill="#3F3D56"/>
<path d="M59.4043 54.6059L58.5973 52.8411L59.0619 52.6281L59.8664 54.3874L71.5166 80.0596L71.0526 80.2739" fill="#3F3D56"/>
<path d="M67.383 56.121L59.0427 59.9722C57.8122 59.3408 55.9318 55.2094 57.2704 53.6956L57.4468 52.2992L62.4267 49.871L63.5302 50.7885C64.6744 51.1374 66.9019 55.0892 67.383 56.121Z" fill="#E6E6E6"/>
<path d="M63.3392 55.4868L61.2301 56.4607C60.8231 56.6486 60.2423 56.2677 59.9356 55.6117C59.6289 54.9556 59.7106 54.2688 60.1175 54.0809L62.2267 53.107C62.6337 52.9191 63.2144 53.3 63.5211 53.956C63.8278 54.6121 63.7462 55.2989 63.3392 55.4868Z" fill="#3F3D56"/>
<path d="M21.0693 37.6326C28.0664 37.6326 33.7386 31.9953 33.7386 25.0414C33.7386 18.0874 28.0664 12.4501 21.0693 12.4501C14.0723 12.4501 8.40005 18.0874 8.40005 25.0414C8.40005 31.9953 14.0723 37.6326 21.0693 37.6326Z" fill="#FF6584"/>
<path opacity="0.3" d="M73.0151 38.1557L80.7143 15.8082L72.2601 37.8882C72.2183 37.9406 72.1897 38.0022 72.1766 38.0678C72.1635 38.1334 72.1664 38.2012 72.1849 38.2655C72.2034 38.3298 72.2371 38.3887 72.2832 38.4375C72.3292 38.4863 72.3863 38.5234 72.4497 38.5459C72.5131 38.5684 72.5809 38.5755 72.6477 38.5667C72.7144 38.5578 72.778 38.5333 72.8333 38.4952C72.8886 38.4571 72.9339 38.4064 72.9655 38.3473C72.9971 38.2883 73.0142 38.2226 73.0151 38.1557Z" fill="#F0F0F0"/>
<path d="M92.6407 24.8351C91.1335 25.3329 89.4627 25.822 87.6282 26.3022C78.1391 28.7851 65.42 30.7219 51.814 31.7559C38.208 32.7899 25.3404 32.7973 15.5819 31.7772C10.8281 31.2802 7.06822 30.5653 4.4066 29.6524C1.58867 28.686 0.10799 27.5215 0.00561711 26.1912C-0.193738 23.5997 4.95188 21.3187 9.30364 19.8616L9.4215 20.2091C3.44538 22.2101 0.232127 24.3247 0.373604 26.1633C0.553717 28.505 6.11099 30.4182 15.6205 31.4124C25.3576 32.4304 38.2014 32.4226 51.7859 31.3903C65.3703 30.3579 78.0661 28.4249 87.5342 25.9475C96.7808 23.5282 101.981 20.7974 101.801 18.4556C101.651 16.5114 97.7949 14.8481 90.9424 13.7721L91 13.4099C95.9792 14.1917 101.959 15.6969 102.169 18.4277C102.271 19.7579 100.986 21.1326 98.3485 22.5136C96.8451 23.3008 94.9349 24.0774 92.6407 24.8351Z" fill="#3F3D56"/>
<path d="M96.3635 47.167C97.0905 47.167 97.6799 46.5812 97.6799 45.8587C97.6799 45.1361 97.0905 44.5504 96.3635 44.5504C95.6365 44.5504 95.0471 45.1361 95.0471 45.8587C95.0471 46.5812 95.6365 47.167 96.3635 47.167Z" fill="#FF6584"/>
<path d="M104.728 82.6182C105.455 82.6182 106.044 82.0324 106.044 81.3099C106.044 80.5873 105.455 80.0015 104.728 80.0015C104.001 80.0015 103.411 80.5873 103.411 81.3099C103.411 82.0324 104.001 82.6182 104.728 82.6182Z" fill="#F2F2F2"/>
<path d="M59.8317 90.5841C61.2492 90.5841 62.3983 89.4421 62.3983 88.0334C62.3983 86.6246 61.2492 85.4826 59.8317 85.4826C58.4142 85.4826 57.2651 86.6246 57.2651 88.0334C57.2651 89.4421 58.4142 90.5841 59.8317 90.5841Z" fill="#F2F2F2"/>
<path d="M40.2742 56.8244C41.0013 56.8244 41.5907 56.2386 41.5907 55.5161C41.5907 54.7935 41.0013 54.2078 40.2742 54.2078C39.5472 54.2078 38.9578 54.7935 38.9578 55.5161C38.9578 56.2386 39.5472 56.8244 40.2742 56.8244Z" fill="#3F3D56"/>
<path d="M84.5307 58.5272L90.2105 59.9884L93.6941 66.7887L87.8047 67.0182L84.5307 58.5272Z" fill="#E6E6E6"/>
<path d="M71.421 48.7239L74.547 51.8323L82.4864 68.8923L81.0246 70.1474L71.421 48.7239Z" fill="#CCCCCC"/>
<path d="M64.624 51.5416L64.8692 55.9297L72.3631 73.1876L74.2789 72.9424L64.624 51.5416Z" fill="#CCCCCC"/>
<path d="M64.4194 69.2688L61.3604 74.2444L63.6155 81.5387L68.0083 77.6333L64.4194 69.2688Z" fill="#E6E6E6"/>
<path d="M91.4409 72.3262C89.8526 72.3262 88.1119 72.2665 86.2186 72.1472C76.4259 71.5292 63.7413 69.3804 50.5015 66.097C37.2618 62.8136 25.0485 58.7875 16.1117 54.7606C11.7583 52.799 8.41714 50.9422 6.18105 49.2416C3.81361 47.4413 2.77806 45.872 3.10304 44.5776C3.73625 42.0558 9.34309 41.5041 13.9352 41.4853L13.9367 41.8521C7.6306 41.8778 3.91031 42.8773 3.46112 44.6664C2.88893 46.9451 7.55546 50.5025 16.2641 54.4266C25.1813 58.4446 37.3721 62.463 50.5909 65.7413C63.8097 69.0194 76.4708 71.1645 86.242 71.7812C95.7844 72.3836 101.586 71.4221 102.158 69.1434C102.633 67.2514 99.5013 64.4644 93.3399 61.2954L93.5095 60.9697C97.9864 63.2723 103.183 66.5749 102.516 69.2322C102.191 70.5266 100.535 71.4283 97.594 71.9121C95.9175 72.1879 93.8584 72.3262 91.4409 72.3262Z" fill="#3F3D56"/>
</g>
<defs>
<clipPath id="clip0_105_722">
<rect width="111" height="101" fill="white"/>
</clipPath>
</defs>
</svg>
