<svg width="182" height="107" viewBox="0 0 182 107" fill="none" xmlns="http://www.w3.org/2000/svg">
<g clip-path="url(#clip0_172_389)">
<path d="M29.4656 12.1897C28.0045 12.1913 26.6037 12.7725 25.5705 13.8056C24.5374 14.8387 23.9562 16.2394 23.9546 17.7004V77.6106C23.9562 79.0716 24.5374 80.4724 25.5705 81.5054C26.6037 82.5385 28.0045 83.1197 29.4656 83.1213H153.653C155.114 83.1197 156.515 82.5385 157.548 81.5054C158.581 80.4724 159.163 79.0716 159.164 77.6106V17.7004C159.163 16.2394 158.581 14.8387 157.548 13.8056C156.515 12.7725 155.114 12.1913 153.653 12.1897H29.4656Z" fill="white"/>
<path d="M153.653 83.3361H29.4656C27.9475 83.3344 26.4921 82.7306 25.4186 81.6572C24.3451 80.5838 23.7413 79.1285 23.7396 77.6105V17.7002C23.7413 16.1822 24.3451 14.7269 25.4186 13.6535C26.4921 12.5801 27.9475 11.9763 29.4656 11.9746H153.653C155.171 11.9763 156.627 12.5801 157.7 13.6535C158.774 14.7269 159.377 16.1822 159.379 17.7002V77.6105C159.377 79.1285 158.774 80.5838 157.7 81.6572C156.627 82.7306 155.171 83.3344 153.653 83.3361ZM29.4656 12.4045C28.0615 12.4061 26.7153 12.9645 25.7224 13.9573C24.7296 14.9501 24.1711 16.2962 24.1695 17.7002V77.6105C24.1711 79.0145 24.7296 80.3606 25.7224 81.3534C26.7153 82.3462 28.0615 82.9047 29.4656 82.9062H153.653C155.057 82.9047 156.403 82.3462 157.396 81.3534C158.389 80.3606 158.948 79.0145 158.949 77.6105V17.7002C158.948 16.2962 158.389 14.9501 157.396 13.9573C156.403 12.9645 155.057 12.4061 153.653 12.4045H29.4656Z" fill="#3F3D56"/>
<path d="M65.2989 79.9804C65.3085 79.7398 64.5714 79.5152 63.6526 79.4788C62.7338 79.4423 61.9813 79.6078 61.9717 79.8484C61.9622 80.0889 62.6993 80.3135 63.618 80.3499C64.5368 80.3864 65.2894 80.2209 65.2989 79.9804Z" fill="#E6E6E6"/>
<path d="M75.897 79.4191C75.9065 79.1785 75.1694 78.954 74.2507 78.9175C73.3319 78.8811 72.5793 79.0465 72.5698 79.2871C72.5602 79.5276 73.2973 79.7522 74.2161 79.7886C75.1349 79.8251 75.8874 79.6596 75.897 79.4191Z" fill="#3F3D56"/>
<path d="M61.2269 76.7103C61.2365 76.4698 60.4994 76.2452 59.5806 76.2088C58.6618 76.1723 57.9093 76.3378 57.8997 76.5783C57.8902 76.8189 58.6273 77.0435 59.546 77.0799C60.4648 77.1164 61.2174 76.9509 61.2269 76.7103Z" fill="#FF6584"/>
<path d="M56.1081 75.5159C56.1326 75.3011 55.8229 75.0895 55.4165 75.0432C55.0101 74.9969 54.6607 75.1334 54.6363 75.3482C54.6118 75.563 54.9214 75.7746 55.3279 75.8209C55.7343 75.8672 56.0836 75.7307 56.1081 75.5159Z" fill="#E6E6E6"/>
<path d="M53.6623 73.011C53.6867 72.7963 53.3771 72.5846 52.9707 72.5383C52.5642 72.492 52.2149 72.6285 52.1904 72.8433C52.166 73.0581 52.4756 73.2697 52.882 73.316C53.2885 73.3624 53.6378 73.2258 53.6623 73.011Z" fill="#3F3D56"/>
<path d="M67.4844 77.2759C67.5089 77.0612 67.1992 76.8495 66.7928 76.8032C66.3864 76.7569 66.0371 76.8934 66.0126 77.1082C65.9881 77.323 66.2977 77.5346 66.7042 77.5809C67.1106 77.6272 67.4599 77.4907 67.4844 77.2759Z" fill="#E6E6E6"/>
<path d="M62.634 78.3418C62.6584 78.1271 62.3488 77.9154 61.9424 77.8691C61.5359 77.8228 61.1866 77.9593 61.1621 78.1741C61.1377 78.3889 61.4473 78.6005 61.8537 78.6468C62.2602 78.6932 62.6095 78.5566 62.634 78.3418Z" fill="#FF6584"/>
<path d="M70.4794 80.0586C70.5039 79.8439 70.1942 79.6322 69.7878 79.5859C69.3814 79.5396 69.0321 79.6762 69.0076 79.8909C68.9831 80.1057 69.2927 80.3173 69.6992 80.3636C70.1056 80.41 70.4549 80.2734 70.4794 80.0586Z" fill="#3F3D56"/>
<path d="M1.1322e-06 71.1708C-9.9054e-05 71.2044 0.0064507 71.2377 0.0192713 71.2688C0.0320919 71.2999 0.0509322 71.3281 0.074707 71.3519C0.0984818 71.3757 0.126721 71.3945 0.157803 71.4073C0.188885 71.4202 0.222195 71.4267 0.255817 71.4266H181.744C181.812 71.4266 181.877 71.3997 181.925 71.3517C181.973 71.3037 182 71.2387 182 71.1708C182 71.103 181.973 71.0379 181.925 70.99C181.877 70.942 181.812 70.915 181.744 70.915H0.255804C0.222184 70.9149 0.188877 70.9215 0.157797 70.9343C0.126717 70.9471 0.0984769 70.966 0.0747037 70.9897C0.0509306 71.0135 0.0320915 71.0417 0.0192713 71.0728C0.0064511 71.1039 -9.79045e-05 71.1372 1.1322e-06 71.1708Z" fill="#CCCCCC"/>
<path d="M62.0349 66.6516C61.9113 66.6573 61.7889 66.6248 61.6844 66.5587C61.5798 66.4925 61.4982 66.3957 61.4504 66.2816C61.4027 66.1674 61.3912 66.0414 61.4175 65.9205C61.4438 65.7996 61.5067 65.6897 61.5975 65.6057L61.6389 65.4413C61.6335 65.4282 61.628 65.415 61.6225 65.4019C61.4979 65.1078 61.2893 64.857 61.0227 64.6811C60.7561 64.5052 60.4435 64.412 60.1241 64.4132C59.8047 64.4143 59.4927 64.5099 59.2275 64.6878C58.9622 64.8656 58.7554 65.1179 58.6331 65.413C58.1441 66.5905 57.5217 67.7699 57.3684 69.0149C57.3009 69.5653 57.3293 70.1231 57.4525 70.6637C56.3042 68.1589 55.7079 65.4364 55.704 62.6809C55.7038 61.9895 55.7422 61.2985 55.8191 60.6114C55.8827 60.048 55.9708 59.4887 56.0836 58.9334C56.6991 55.9204 58.0206 53.0962 59.9396 50.693C60.8684 50.1863 61.6195 49.4071 62.0917 48.4603C62.2628 48.12 62.3837 47.7567 62.4507 47.3818C62.346 47.3955 62.0557 45.8 62.1347 45.7021C61.9887 45.4805 61.7273 45.3704 61.5679 45.1542C60.7748 44.079 59.6821 44.2668 59.1117 45.7278C57.8932 46.3428 57.8814 47.3627 58.6291 48.3435C59.1048 48.9676 59.1701 49.812 59.5875 50.48C59.5446 50.535 59.4999 50.5883 59.457 50.6432C58.672 51.6525 57.9879 52.7362 57.4144 53.879C57.5538 52.5988 57.3874 51.3038 56.9287 50.1005C56.4638 48.9791 55.5924 48.0346 54.8251 47.0652C53.9034 45.9007 52.0133 46.4089 51.851 47.885C51.8494 47.8993 51.8478 47.9136 51.8463 47.9279C51.9603 47.9922 52.0719 48.0604 52.1811 48.1326C52.3182 48.2243 52.4245 48.3552 52.4859 48.5082C52.5474 48.6612 52.5612 48.8293 52.5255 48.9903C52.4898 49.1513 52.4064 49.2978 52.286 49.4105C52.1656 49.5233 52.014 49.5971 51.851 49.6222L51.8343 49.6248C51.8749 50.0355 51.9467 50.4426 52.049 50.8425C51.0646 54.6491 53.1899 56.0356 56.2245 56.0979C56.2915 56.1322 56.3567 56.1666 56.4237 56.1992C55.8475 57.832 55.4861 59.5328 55.3485 61.2589C55.2706 62.2772 55.2752 63.3001 55.3623 64.3177L55.3571 64.2816C55.1372 63.1501 54.5336 62.1291 53.6481 61.3911C52.3329 60.3108 50.4748 59.913 49.056 59.0447C48.9052 58.9479 48.7299 58.8962 48.5507 58.8958C48.3715 58.8953 48.1959 58.9461 48.0447 59.0422C47.8934 59.1383 47.7728 59.2756 47.697 59.438C47.6212 59.6003 47.5935 59.781 47.617 59.9586C47.6189 59.9713 47.6208 59.9839 47.6228 59.9965C47.8343 60.0827 48.0402 60.1819 48.2394 60.2936C48.3534 60.358 48.465 60.4262 48.5741 60.4984C48.7112 60.59 48.8175 60.7209 48.879 60.8739C48.9404 61.027 48.9542 61.195 48.9186 61.356C48.8829 61.517 48.7994 61.6635 48.679 61.7763C48.5587 61.889 48.4071 61.9628 48.2441 61.9879L48.2274 61.9905C48.2154 61.9922 48.205 61.9939 48.193 61.9957C48.5544 62.8585 49.0616 63.6527 49.6925 64.3434C50.308 67.6665 52.9517 67.9818 55.7796 67.0141H55.7813C56.0916 68.3623 56.5412 69.6746 57.1228 70.9299H61.9148C61.932 70.8767 61.9475 70.8217 61.9629 70.7684C61.5194 70.7963 61.0741 70.7698 60.6369 70.6895C60.9925 70.2532 61.348 69.8135 61.7036 69.3773C61.7115 69.3692 61.719 69.3606 61.7259 69.3516C61.9062 69.1283 62.0883 68.9067 62.2686 68.6835L62.2687 68.6832C62.2784 67.9988 62.1997 67.3159 62.0349 66.6516Z" fill="#F2F2F2"/>
<path d="M38.1126 63.9929C37.9122 64.0022 37.7138 63.9495 37.5442 63.8422C37.3747 63.7349 37.2423 63.5781 37.1649 63.393C37.0875 63.2079 37.0689 63.0035 37.1115 62.8075C37.1542 62.6114 37.2561 62.4333 37.4034 62.2971C37.4281 62.199 37.4458 62.1286 37.4705 62.0306C37.4616 62.0092 37.4528 61.9879 37.4438 61.9666C37.2419 61.4897 36.9036 61.0831 36.4713 60.7979C36.0391 60.5127 35.5322 60.3615 35.0143 60.3635C34.4964 60.3654 33.9907 60.5203 33.5605 60.8087C33.1304 61.0971 32.7951 61.5062 32.5968 61.9846C31.804 63.8938 30.7947 65.8062 30.5461 67.8249C30.4367 68.7172 30.4829 69.6217 30.6826 70.4983C28.8206 66.4369 27.8537 62.0226 27.8475 57.5548C27.8471 56.4336 27.9094 55.3134 28.0341 54.1992C28.1372 53.2858 28.2801 52.3789 28.463 51.4785C29.461 46.593 31.6037 42.0139 34.7152 38.1173C36.2211 37.2957 37.439 36.0322 38.2047 34.4971C38.4821 33.9453 38.6782 33.3563 38.7868 32.7483C38.6169 32.7706 38.1462 30.1835 38.2744 30.0248C38.0376 29.6656 37.6139 29.487 37.3553 29.1365C36.0694 27.3932 34.2977 27.6976 33.3728 30.0666C31.3971 31.0637 31.3779 32.7173 32.5903 34.3077C33.3616 35.3196 33.4675 36.6887 34.1443 37.7719C34.0746 37.8611 34.0022 37.9474 33.9326 38.0365C32.6599 39.673 31.5506 41.4302 30.6207 43.283C30.8468 41.2073 30.5769 39.1076 29.8332 37.1566C29.0794 35.3383 27.6665 33.8069 26.4223 32.235C24.9279 30.3469 21.8633 31.1709 21.6 33.5643C21.5975 33.5875 21.595 33.6107 21.5925 33.6338C21.7773 33.7381 21.9582 33.8487 22.1352 33.9658C22.3576 34.1143 22.5299 34.3266 22.6295 34.5747C22.7292 34.8229 22.7516 35.0953 22.6937 35.3564C22.6359 35.6175 22.5005 35.855 22.3054 36.0378C22.1102 36.2206 21.8644 36.3403 21.6001 36.381L21.5731 36.3852C21.6389 37.0512 21.7553 37.7112 21.9212 38.3596C20.325 44.5318 23.771 46.7799 28.6913 46.8809C28.8 46.9366 28.9058 46.9922 29.0144 47.0452C28.0801 49.6927 27.4941 52.4504 27.2711 55.249C27.1448 56.9001 27.1522 58.5587 27.2933 60.2086L27.285 60.1502C26.9285 58.3155 25.9497 56.6601 24.5139 55.4635C22.3815 53.7118 19.3687 53.0668 17.0682 51.6589C15.9608 50.9811 14.5417 51.857 14.735 53.1408C14.7381 53.1613 14.7412 53.1818 14.7444 53.2022C15.0873 53.3419 15.4212 53.5028 15.7442 53.684C15.929 53.7883 16.1099 53.8989 16.2869 54.0159C16.5092 54.1645 16.6815 54.3767 16.7812 54.6249C16.8808 54.873 16.9032 55.1455 16.8454 55.4065C16.7875 55.6676 16.6521 55.9051 16.457 56.088C16.2619 56.2708 16.016 56.3904 15.7517 56.4311L15.7246 56.4353C15.7052 56.4381 15.6884 56.4409 15.669 56.4437C16.2549 57.8427 17.0774 59.1304 18.1002 60.2504C19.0982 65.6386 23.3848 66.1498 27.9701 64.5807H27.9728C28.4759 66.7667 29.2049 68.8946 30.1479 70.9299H37.9179C37.9457 70.8436 37.9708 70.7544 37.9959 70.6681C37.2767 70.7133 36.5546 70.6703 35.8459 70.54C36.4224 69.8327 36.9988 69.1198 37.5753 68.4125C37.5882 68.3993 37.6003 68.3853 37.6115 68.3707C37.9039 68.0087 38.1991 67.6495 38.4916 67.2874L38.4917 67.287C38.5073 66.1773 38.38 65.0703 38.1128 63.9931L38.1126 63.9929Z" fill="#F2F2F2"/>
<path d="M144.451 3.87771C143.929 -0.120206 134.707 0.134824 133.836 3.89621C133.374 3.60733 132.199 3.80728 131.761 4.13934C131.322 4.47139 131.042 4.95953 130.767 5.43339C130.391 6.09155 130.002 6.77325 129.919 7.52789C129.832 8.28107 130.128 9.1343 130.811 9.46968C131.353 9.73693 132.545 9.55646 133.14 9.43681C133.556 9.3542 133.905 9.28183 134.201 9.21088C134.3 8.74275 134.232 8.25455 134.007 7.83196C134.246 7.87946 134.472 7.97933 134.668 8.12439C134.864 8.26945 135.026 8.45612 135.141 8.67099C135.188 8.76099 136.878 21.4786 136.878 21.4786C137.339 21.5342 137.806 21.5459 138.27 21.5133C138.558 19.9481 138.61 18.3487 138.425 16.7681C138.914 17.6715 139.301 18.6267 139.579 19.6159C139.738 20.1692 139.869 20.7302 139.971 21.2968C143.992 20.5449 149.428 17.9553 150.419 13.558C150.414 13.5439 150.408 13.5297 150.403 13.5155C150.349 13.3811 150.343 13.2321 150.386 13.0939C150.43 12.9557 150.52 12.837 150.642 12.758C150.763 12.6791 150.909 12.6449 151.053 12.6612C151.197 12.6776 151.33 12.7435 151.431 12.8476C151.552 12.9724 151.661 13.079 151.752 13.1616C151.399 10.3535 149.269 7.82653 144.451 3.87771Z" fill="#2F2E41"/>
<path d="M85.7382 101.79L83.4839 100.612L87.0587 91.1624L90.3861 92.9019L85.7382 101.79Z" fill="#A0616A"/>
<path d="M76.6418 101.677C76.5023 101.944 76.4745 102.256 76.5647 102.543C76.6548 102.831 76.8553 103.072 77.1224 103.212L81.6049 105.555L83.2112 104.361L82.6783 106.115L84.369 107L86.873 101.054L86.3022 100.712L83.9768 99.3114L83.2258 98.8611L82.3823 100.474L77.5098 101.075C77.3272 101.098 77.1529 101.164 77.0017 101.269C76.8505 101.374 76.727 101.514 76.6418 101.677Z" fill="#2F2E41"/>
<path d="M83.4287 67.0029L81.789 65.0581L88.678 57.6675L91.098 60.5378L83.4287 67.0029Z" fill="#A0616A"/>
<path d="M75.0536 63.4511C74.8232 63.6456 74.6794 63.9237 74.6538 64.2241C74.6281 64.5246 74.7227 64.823 74.9167 65.0538L78.1772 68.9204L80.116 68.4242L78.9583 69.8453L80.1875 71.3052L84.7579 66.7513L84.3592 66.2186L82.7379 64.0414L82.2136 63.3401L80.8217 64.5134L76.0849 63.2232C75.9074 63.1749 75.7208 63.1704 75.5412 63.2101C75.3616 63.2498 75.1942 63.3325 75.0536 63.4511Z" fill="#2F2E41"/>
<path d="M155.745 59.7154C155.745 59.7154 162.707 74.6152 133.877 70.6003C133.877 70.6003 118.518 53.5793 118.961 51.5314C118.961 51.5314 112.424 44.889 112.744 44.7681C113.064 44.6472 113.261 44.3845 112.733 44.4084C112.204 44.4322 112.204 43.6454 112.204 43.6454C112.204 43.6454 100.389 56.4568 90.4414 62.8141L87.0021 58.9451C87.0021 58.9451 88.3434 54.7496 88.9883 54.7496C89.6332 54.7496 89.8554 54.9045 89.9593 54.0747C90.0631 53.2449 89.5495 52.5324 90.2362 52.4588C90.9229 52.3851 105.155 35.7528 105.155 35.7528C105.155 35.7528 106.69 30.2746 111.382 31.335C116.073 32.3953 140.451 52.2134 140.451 52.2134L155.745 59.7154Z" fill="#2F2E41"/>
<path d="M144.005 71.0829L105.919 70.7669L89.3666 96.9901L84.6891 94.5141L85.726 94.0765C85.726 94.0765 85.4121 90.4318 85.7966 89.5091C86.1812 88.5865 87.3252 88.864 87.3252 88.864L96.9753 66.6111C97.6409 64.6359 98.9483 62.9401 100.689 61.794C102.431 60.6479 104.505 60.1174 106.583 60.2869C114.568 59.1224 127.53 60.0528 140.996 61.1955L144.005 71.0829Z" fill="#2F2E41"/>
<path d="M121.954 26.454C122.679 26.5651 123.332 26.9547 123.774 27.5398C124.216 28.125 124.413 28.8596 124.321 29.5873C124.3 29.7349 124.267 29.8805 124.222 30.0227L132.048 35.9585L130.434 40.989L120.592 31.6987C120.017 31.4668 119.535 31.0511 119.221 30.5164C118.907 29.9817 118.779 29.3581 118.856 28.7429C118.904 28.3933 119.02 28.0565 119.198 27.7517C119.375 27.4469 119.612 27.1801 119.892 26.9665C120.173 26.753 120.494 26.5968 120.835 26.507C121.176 26.4172 121.532 26.3954 121.881 26.443C121.906 26.4463 121.93 26.45 121.954 26.454Z" fill="#A0616A"/>
<path d="M156.479 26.8245L153.666 34.614L142.662 50.1631C142.662 50.1631 142.572 50.1244 142.408 50.0556C141.462 49.6472 138.027 48.1469 134.797 46.4424C131.763 44.8411 128.907 43.0592 128.464 41.834C128.417 41.705 128.374 41.5804 128.335 41.46V41.4579C128.129 40.834 127.999 40.1872 127.95 39.532C127.914 39.0268 127.946 38.756 127.877 38.7238C127.823 38.7001 127.711 38.8162 127.464 39.0784C127.447 39.0956 127.432 39.1128 127.415 39.1279C126.521 40.0242 125.422 39.9081 125.691 39.4825C125.966 39.0462 125.822 39.0548 125.418 38.5991C125.117 38.2595 124.139 36.9311 123.657 36.2756C123.492 36.0499 123.386 35.9037 123.386 35.9037L123.552 35.6436L124.01 34.9257L126.187 31.5124L126.308 31.3254C126.308 31.3254 130.783 32.3593 131.379 33.3416C131.976 34.3239 130.478 34.2916 131.976 34.3239C133.474 34.3561 135.003 32.3184 133.909 34.3454C132.815 36.3701 133.103 37.0773 134.457 36.757C135.007 36.6259 135.878 37.0408 136.716 37.5781V37.5803C137.24 37.9209 137.746 38.2889 138.232 38.6829C138.75 39.0999 139.1 39.4159 139.1 39.4159L147.599 22.173L148.541 20.2643C148.828 19.6835 149.228 19.1658 149.717 18.7413C150.207 18.3169 150.776 17.9943 151.391 17.7925L151.686 18.3062C153.519 21.0064 155.123 23.8558 156.479 26.8245Z" fill="#6C63FF"/>
<path d="M156.95 51.5472C159.556 52.1533 156.784 71.1168 153.679 71.1759C131.108 71.6058 137.98 58.9434 136.77 57.7311C135.56 56.5167 134.468 57.3872 135.56 55.4979C136.355 54.1222 137.535 54.3264 137.552 53.5548C137.561 53.2668 137.408 52.8455 137.013 52.1533C135.56 49.6084 135.56 48.8496 135.56 48.8496C135.197 48.0854 134.941 47.2756 134.796 46.4423C134.561 45.2032 134.532 43.9336 134.71 42.685C134.983 40.8534 135.669 39.1077 136.716 37.5801V37.578C136.826 37.4146 136.94 37.2491 137.06 37.0857C137.333 36.7139 138.846 36.7848 138.846 36.7848L142.071 23.2433L140.205 17.8439L149.042 13.7041L151.391 17.7923L151.686 18.3061C153.519 21.0063 155.123 23.8557 156.479 26.8243C157.784 29.7282 158.857 32.9524 158.896 35.7574C158.999 43.0719 157.737 45.2472 157.737 45.2472C157.737 45.2472 160.8 47.5363 159.268 48.9356C157.737 50.3371 154.345 50.9411 156.95 51.5472Z" fill="#6C63FF"/>
<path d="M116.916 24.6724L115.474 25.7676C115.19 25.9854 115.003 26.3072 114.955 26.6624C114.907 27.0177 115.001 27.3775 115.218 27.6631L118.691 32.2271L120.741 34.9198C120.959 35.2042 121.28 35.3908 121.635 35.4387C121.99 35.4866 122.349 35.392 122.634 35.1756L124.078 34.0791C124.361 33.8607 124.547 33.5391 124.595 33.1844C124.642 32.8296 124.548 32.4704 124.332 32.1849L124.119 31.9037L119.913 26.377L118.809 24.9282C118.701 24.7871 118.567 24.6685 118.414 24.5793C118.261 24.4901 118.091 24.4319 117.916 24.4082C117.74 24.3844 117.561 24.3955 117.39 24.4409C117.218 24.4862 117.057 24.5649 116.916 24.6724Z" fill="#3F3D56"/>
<path d="M117.67 24.5894L116.117 25.6729C115.98 25.7625 115.864 25.8801 115.775 26.0179C115.687 26.1558 115.629 26.3107 115.605 26.4726C115.581 26.6345 115.592 26.7997 115.636 26.9572C115.681 27.1146 115.758 27.2609 115.864 27.3863L117.897 29.8358L118.98 31.1406L119.703 32.0112L121.32 33.9589C121.548 34.2202 121.865 34.3882 122.209 34.4311C122.554 34.4739 122.902 34.3886 123.188 34.1912L124.352 33.3794L124.739 33.1093C124.932 32.9806 125.083 32.7977 125.172 32.5837C125.262 32.3696 125.286 32.1339 125.242 31.9061C125.203 31.7169 125.117 31.5403 124.993 31.3925L120.216 25.6365L119.539 24.8218C119.31 24.5602 118.993 24.3918 118.649 24.3489C118.304 24.3061 117.956 24.3917 117.67 24.5894Z" fill="#6C63FF"/>
<path d="M118.663 30.6393C119.388 30.7504 120.041 31.14 120.483 31.7252C120.925 32.3103 121.121 33.0449 121.03 33.7726C121.009 33.9202 120.976 34.0659 120.931 34.208L128.757 40.1438L127.142 45.1743L117.301 35.884C116.725 35.6521 116.243 35.2364 115.929 34.7017C115.615 34.167 115.487 33.5434 115.565 32.9282C115.613 32.5786 115.729 32.2418 115.906 31.937C116.084 31.6322 116.32 31.3654 116.601 31.1519C116.882 30.9383 117.202 30.7821 117.543 30.6923C117.885 30.6025 118.24 30.5807 118.59 30.6283C118.614 30.6316 118.639 30.6353 118.663 30.6393Z" fill="#A0616A"/>
<path d="M150.581 21.8363C151.265 21.9755 151.911 22.2605 152.475 22.6717C153.039 23.0829 153.508 23.6108 153.85 24.2195C154.192 24.8281 154.399 25.5032 154.456 26.1989C154.514 26.8946 154.421 27.5945 154.184 28.2511L150.375 38.799L139.37 54.3494C139.37 54.3494 126.171 48.7748 125.172 46.0194C124.173 43.264 125.075 42.3132 124.173 43.264C123.27 44.2148 122.126 44.1021 122.4 43.667C122.674 43.2319 122.53 43.2412 122.126 42.7854C121.723 42.3296 120.095 40.0898 120.095 40.0898L123.016 35.5113C123.016 35.5113 127.492 36.5444 128.088 37.5273C128.684 38.5102 127.186 38.478 128.684 38.5102C130.183 38.5423 131.712 36.5039 130.617 38.5302C129.523 40.5566 129.811 41.263 131.166 40.9419C132.52 40.6209 135.808 43.6017 135.808 43.6017L145.25 24.4503C145.725 23.487 146.506 22.7081 147.47 22.2352C148.435 21.7623 149.529 21.622 150.581 21.8363Z" fill="#6C63FF"/>
<path d="M144.949 15.4868C147.685 12.751 147.685 8.31539 144.949 5.57959C142.213 2.84378 137.777 2.84378 135.041 5.57959C132.305 8.31539 132.305 12.751 135.041 15.4868C137.777 18.2226 142.213 18.2226 144.949 15.4868Z" fill="#A0616A"/>
<path d="M148.188 2.90139C147.666 -1.09652 138.444 -0.841494 137.573 2.91989C137.111 2.63101 135.936 2.83097 135.498 3.16302C135.06 3.49507 134.779 3.98321 134.504 4.45707C134.128 5.11523 131.501 7.3419 131.108 6.6927C130.222 5.23171 128.485 8.42424 129.818 10.5617C130.138 11.0742 136.316 10.2515 136.912 10.1318C136.616 10.2028 137.327 10.0492 136.912 10.1318C137.007 9.6681 137.973 7.27227 137.744 6.85564C137.984 6.90315 138.209 7.00301 138.405 7.14807C138.602 7.29313 138.763 7.47979 138.879 7.69467C138.925 7.78467 140.615 20.5022 140.615 20.5022C141.077 20.5579 141.543 20.5695 142.007 20.537C142.295 18.9718 142.347 17.3724 142.162 15.7917C142.652 16.6952 143.039 17.6504 143.316 18.6396C143.476 19.1928 143.606 19.7539 143.708 20.3205C147.729 19.5686 153.165 16.979 154.157 12.5817C148.734 10.7766 153.006 6.85021 148.188 2.90139Z" fill="#2F2E41"/>
<path d="M86.8635 22.9914C86.9534 22.3739 86.3065 21.7686 85.4187 21.6394C84.531 21.5103 83.7385 21.9062 83.6486 22.5237C83.5587 23.1412 84.2056 23.7465 85.0933 23.8757C85.9811 24.0049 86.7736 23.609 86.8635 22.9914Z" fill="#E6E6E6"/>
<path d="M97.4334 21.9599C97.5233 21.3424 96.8764 20.7371 95.9886 20.6079C95.1009 20.4788 94.3083 20.8747 94.2185 21.4922C94.1286 22.1097 94.7755 22.7151 95.6632 22.8442C96.551 22.9734 97.3435 22.5775 97.4334 21.9599Z" fill="#3F3D56"/>
<path d="M83.9692 14.4348C84.059 13.8173 83.4122 13.2119 82.5244 13.0828C81.6366 12.9536 80.8441 13.3495 80.7543 13.9671C80.6644 14.5846 81.3112 15.1899 82.199 15.3191C83.0868 15.4482 83.8793 15.0523 83.9692 14.4348Z" fill="#FF6584"/>
<path d="M79.3763 10.9299C79.3805 10.3629 79.0643 9.90093 78.6699 9.89795C78.2755 9.89496 77.9523 10.3521 77.948 10.9191C77.9437 11.486 78.2599 11.948 78.6544 11.951C79.0488 11.9539 79.372 11.4968 79.3763 10.9299Z" fill="#E6E6E6"/>
<path d="M77.8187 4.40177C77.823 3.83485 77.5068 3.37285 77.1124 3.36987C76.7179 3.36689 76.3947 3.82405 76.3905 4.39098C76.3862 4.9579 76.7024 5.4199 77.0968 5.42288C77.4912 5.42586 77.8144 4.9687 77.8187 4.40177Z" fill="#3F3D56"/>
<path d="M89.9307 15.8908C89.935 15.3239 89.6187 14.8619 89.2243 14.8589C88.8299 14.8559 88.5067 15.3131 88.5024 15.88C88.4981 16.4469 88.8144 16.9089 89.2088 16.9119C89.6032 16.9149 89.9264 16.4577 89.9307 15.8908Z" fill="#E6E6E6"/>
<path d="M84.8228 18.4411C84.8271 17.8742 84.5109 17.4122 84.1164 17.4092C83.722 17.4062 83.3988 17.8634 83.3945 18.4303C83.3903 18.9972 83.7065 19.4592 84.1009 19.4622C84.4953 19.4652 84.8185 19.008 84.8228 18.4411Z" fill="#FF6584"/>
<path d="M91.9331 23.1542C91.9374 22.5873 91.6211 22.1253 91.2267 22.1223C90.8323 22.1193 90.5091 22.5765 90.5048 23.1434C90.5005 23.7103 90.8168 24.1723 91.2112 24.1753C91.6056 24.1783 91.9288 23.7211 91.9331 23.1542Z" fill="#3F3D56"/>
<path d="M116.334 29.1824C116.431 29.1134 116.369 28.8617 116.197 28.6203C116.024 28.3788 115.806 28.2391 115.709 28.3081C115.613 28.3771 115.674 28.6288 115.847 28.8703C116.019 29.1117 116.238 29.2514 116.334 29.1824Z" fill="#3F3D56"/>
<path d="M115.689 28.3228C115.786 28.2538 115.724 28.0021 115.552 27.7606C115.379 27.5192 115.161 27.3795 115.064 27.4485C114.968 27.5175 115.029 27.7692 115.202 28.0106C115.374 28.2521 115.593 28.3918 115.689 28.3228Z" fill="#3F3D56"/>
</g>
<defs>
<clipPath id="clip0_172_389">
<rect width="182" height="107" fill="white"/>
</clipPath>
</defs>
</svg>
